<svg viewBox="0 0 330 200" xmlns="http://www.w3.org/2000/svg"><g><g><g><g><g><line x1="40" y1="178" x2="35" y2="178" style="visibility: inherit;" fill="rgb(0, 0, 0)" stroke="rgb(204, 204, 204)" stroke-width="1px"></line><line x1="40" y1="163.16666666666666" x2="35" y2="163.16666666666666" style="visibility: inherit;" fill="rgb(0, 0, 0)" stroke="rgb(204, 204, 204)" stroke-width="1px"></line><line x1="40" y1="148.33333333333334" x2="35" y2="148.33333333333334" style="visibility: inherit;" fill="rgb(0, 0, 0)" stroke="rgb(204, 204, 204)" stroke-width="1px"></line><line x1="40" y1="133.5" x2="35" y2="133.5" style="visibility: inherit;" fill="rgb(0, 0, 0)" stroke="rgb(204, 204, 204)" stroke-width="1px"></line><line x1="40" y1="118.66666666666669" x2="35" y2="118.66666666666669" style="visibility: inherit;" fill="rgb(0, 0, 0)" stroke="rgb(204, 204, 204)" stroke-width="1px"></line><line x1="40" y1="103.83333333333331" x2="35" y2="103.83333333333331" style="visibility: inherit;" fill="rgb(0, 0, 0)" stroke="rgb(204, 204, 204)" stroke-width="1px"></line><line x1="40" y1="89" x2="35" y2="89" style="visibility: inherit;" fill="rgb(0, 0, 0)" stroke="rgb(204, 204, 204)" stroke-width="1px"></line><line x1="40" y1="74.16666666666666" x2="35" y2="74.16666666666666" style="visibility: inherit;" fill="rgb(0, 0, 0)" stroke="rgb(204, 204, 204)" stroke-width="1px"></line><line x1="40" y1="59.33333333333334" x2="35" y2="59.33333333333334" style="visibility: inherit;" fill="rgb(0, 0, 0)" stroke="rgb(204, 204, 204)" stroke-width="1px"></line><line x1="40" y1="44.5" x2="35" y2="44.5" style="visibility: inherit;" fill="rgb(0, 0, 0)" stroke="rgb(204, 204, 204)" stroke-width="1px"></line><line x1="40" y1="29.66666666666666" x2="35" y2="29.66666666666666" style="visibility: inherit;" fill="rgb(0, 0, 0)" stroke="rgb(204, 204, 204)" stroke-width="1px"></line><line x1="40" y1="14.83333333333334" x2="35" y2="14.83333333333334" style="visibility: inherit;" fill="rgb(0, 0, 0)" stroke="rgb(204, 204, 204)" stroke-width="1px"></line><line x1="40" y1="0" x2="35" y2="0" style="visibility: inherit;" fill="rgb(0, 0, 0)" stroke="rgb(204, 204, 204)" stroke-width="1px"></line></g><g transform="translate(30, 0)"><text x="0" y="178" dx="0em" dy="0.3em" style="text-anchor: end; visibility: hidden; font-family: Roboto, sans-serif; font-size: 12px; font-weight: 200;" fill="rgb(50, 49, 63)" stroke="none" stroke-width="1px">-30</text><text x="0" y="163.16666666666666" dx="0em" dy="0.3em" style="text-anchor: end; visibility: inherit; font-family: Roboto, sans-serif; font-size: 12px; font-weight: 200;" fill="rgb(50, 49, 63)" stroke="none" stroke-width="1px">-25</text><text x="0" y="148.33333333333334" dx="0em" dy="0.3em" style="text-anchor: end; visibility: hidden; font-family: Roboto, sans-serif; font-size: 12px; font-weight: 200;" fill="rgb(50, 49, 63)" stroke="none" stroke-width="1px">-20</text><text x="0" y="133.5" dx="0em" dy="0.3em" style="text-anchor: end; visibility: inherit; font-family: Roboto, sans-serif; font-size: 12px; font-weight: 200;" fill="rgb(50, 49, 63)" stroke="none" stroke-width="1px">-15</text><text x="0" y="118.66666666666669" dx="0em" dy="0.3em" style="text-anchor: end; visibility: hidden; font-family: Roboto, sans-serif; font-size: 12px; font-weight: 200;" fill="rgb(50, 49, 63)" stroke="none" stroke-width="1px">-10</text><text x="0" y="103.83333333333331" dx="0em" dy="0.3em" style="text-anchor: end; visibility: inherit; font-family: Roboto, sans-serif; font-size: 12px; font-weight: 200;" fill="rgb(50, 49, 63)" stroke="none" stroke-width="1px">-5</text><text x="0" y="89" dx="0em" dy="0.3em" style="text-anchor: end; visibility: hidden; font-family: Roboto, sans-serif; font-size: 12px; font-weight: 200;" fill="rgb(50, 49, 63)" stroke="none" stroke-width="1px">0</text><text x="0" y="74.16666666666666" dx="0em" dy="0.3em" style="text-anchor: end; visibility: inherit; font-family: Roboto, sans-serif; font-size: 12px; font-weight: 200;" fill="rgb(50, 49, 63)" stroke="none" stroke-width="1px">5</text><text x="0" y="59.33333333333334" dx="0em" dy="0.3em" style="text-anchor: end; visibility: hidden; font-family: Roboto, sans-serif; font-size: 12px; font-weight: 200;" fill="rgb(50, 49, 63)" stroke="none" stroke-width="1px">10</text><text x="0" y="44.5" dx="0em" dy="0.3em" style="text-anchor: end; visibility: inherit; font-family: Roboto, sans-serif; font-size: 12px; font-weight: 200;" fill="rgb(50, 49, 63)" stroke="none" stroke-width="1px">15</text><text x="0" y="29.66666666666666" dx="0em" dy="0.3em" style="text-anchor: end; visibility: hidden; font-family: Roboto, sans-serif; font-size: 12px; font-weight: 200;" fill="rgb(50, 49, 63)" stroke="none" stroke-width="1px">20</text><text x="0" y="14.83333333333334" dx="0em" dy="0.3em" style="text-anchor: end; visibility: inherit; font-family: Roboto, sans-serif; font-size: 12px; font-weight: 200;" fill="rgb(50, 49, 63)" stroke="none" stroke-width="1px">25</text><text x="0" y="0" dx="0em" dy="0.3em" style="text-anchor: end; visibility: hidden; font-family: Roboto, sans-serif; font-size: 12px; font-weight: 200;" fill="rgb(50, 49, 63)" stroke="none" stroke-width="1px">30</text></g><line x1="40" y1="0" x2="40" y2="178" fill="rgb(0, 0, 0)" stroke="rgb(204, 204, 204)" stroke-width="1px"></line></g></g><g transform="translate(40, 0)" clip-path="url(#clip_0)"><clipPath id="clip_0"><rect width="290" height="178"></rect></clipPath><g><g><g><line x1="0" y1="0" x2="0" y2="178" fill="rgb(0, 0, 0)" stroke="rgb(60, 60, 60)" stroke-width="1px" opacity="0.25"></line><line x1="22.30769230769231" y1="0" x2="22.30769230769231" y2="178" fill="rgb(0, 0, 0)" stroke="rgb(60, 60, 60)" stroke-width="1px" opacity="0.25"></line><line x1="44.61538461538462" y1="0" x2="44.61538461538462" y2="178" fill="rgb(0, 0, 0)" stroke="rgb(60, 60, 60)" stroke-width="1px" opacity="0.25"></line><line x1="66.92307692307692" y1="0" x2="66.92307692307692" y2="178" fill="rgb(0, 0, 0)" stroke="rgb(60, 60, 60)" stroke-width="1px" opacity="0.25"></line><line x1="89.23076923076924" y1="0" x2="89.23076923076924" y2="178" fill="rgb(0, 0, 0)" stroke="rgb(60, 60, 60)" stroke-width="1px" opacity="0.25"></line><line x1="111.53846153846155" y1="0" x2="111.53846153846155" y2="178" fill="rgb(0, 0, 0)" stroke="rgb(60, 60, 60)" stroke-width="1px" opacity="0.25"></line><line x1="133.84615384615384" y1="0" x2="133.84615384615384" y2="178" fill="rgb(0, 0, 0)" stroke="rgb(60, 60, 60)" stroke-width="1px" opacity="0.25"></line><line x1="156.15384615384616" y1="0" x2="156.15384615384616" y2="178" fill="rgb(0, 0, 0)" stroke="rgb(60, 60, 60)" stroke-width="1px" opacity="0.25"></line><line x1="178.46153846153848" y1="0" x2="178.46153846153848" y2="178" fill="rgb(0, 0, 0)" stroke="rgb(60, 60, 60)" stroke-width="1px" opacity="0.25"></line><line x1="200.76923076923077" y1="0" x2="200.76923076923077" y2="178" fill="rgb(0, 0, 0)" stroke="rgb(60, 60, 60)" stroke-width="1px" opacity="0.25"></line><line x1="223.0769230769231" y1="0" x2="223.0769230769231" y2="178" fill="rgb(0, 0, 0)" stroke="rgb(60, 60, 60)" stroke-width="1px" opacity="0.25"></line><line x1="245.3846153846154" y1="0" x2="245.3846153846154" y2="178" fill="rgb(0, 0, 0)" stroke="rgb(60, 60, 60)" stroke-width="1px" opacity="0.25"></line><line x1="267.6923076923077" y1="0" x2="267.6923076923077" y2="178" fill="rgb(0, 0, 0)" stroke="rgb(60, 60, 60)" stroke-width="1px" opacity="0.25"></line><line x1="290" y1="0" x2="290" y2="178" fill="rgb(0, 0, 0)" stroke="rgb(60, 60, 60)" stroke-width="1px" opacity="0.25"></line></g><g><line x1="0" y1="178" x2="290" y2="178" fill="rgb(0, 0, 0)" stroke="rgb(60, 60, 60)" stroke-width="1px" opacity="0.25"></line><line x1="0" y1="163.16666666666666" x2="290" y2="163.16666666666666" fill="rgb(0, 0, 0)" stroke="rgb(60, 60, 60)" stroke-width="1px" opacity="0.25"></line><line x1="0" y1="148.33333333333334" x2="290" y2="148.33333333333334" fill="rgb(0, 0, 0)" stroke="rgb(60, 60, 60)" stroke-width="1px" opacity="0.25"></line><line x1="0" y1="133.5" x2="290" y2="133.5" fill="rgb(0, 0, 0)" stroke="rgb(60, 60, 60)" stroke-width="1px" opacity="0.25"></line><line x1="0" y1="118.66666666666669" x2="290" y2="118.66666666666669" fill="rgb(0, 0, 0)" stroke="rgb(60, 60, 60)" stroke-width="1px" opacity="0.25"></line><line x1="0" y1="103.83333333333331" x2="290" y2="103.83333333333331" fill="rgb(0, 0, 0)" stroke="rgb(60, 60, 60)" stroke-width="1px" opacity="0.25"></line><line x1="0" y1="89" x2="290" y2="89" fill="rgb(0, 0, 0)" stroke="rgb(60, 60, 60)" stroke-width="1px" opacity="0.25"></line><line x1="0" y1="74.16666666666666" x2="290" y2="74.16666666666666" fill="rgb(0, 0, 0)" stroke="rgb(60, 60, 60)" stroke-width="1px" opacity="0.25"></line><line x1="0" y1="59.33333333333334" x2="290" y2="59.33333333333334" fill="rgb(0, 0, 0)" stroke="rgb(60, 60, 60)" stroke-width="1px" opacity="0.25"></line><line x1="0" y1="44.5" x2="290" y2="44.5" fill="rgb(0, 0, 0)" stroke="rgb(60, 60, 60)" stroke-width="1px" opacity="0.25"></line><line x1="0" y1="29.66666666666666" x2="290" y2="29.66666666666666" fill="rgb(0, 0, 0)" stroke="rgb(60, 60, 60)" stroke-width="1px" opacity="0.25"></line><line x1="0" y1="14.83333333333334" x2="290" y2="14.83333333333334" fill="rgb(0, 0, 0)" stroke="rgb(60, 60, 60)" stroke-width="1px" opacity="0.25"></line><line x1="0" y1="0" x2="290" y2="0" fill="rgb(0, 0, 0)" stroke="rgb(60, 60, 60)" stroke-width="1px" opacity="0.25"></line></g></g></g><g><g><line x1="0" y1="89" x2="290" y2="89" fill="rgb(0, 0, 0)" stroke="rgb(153, 153, 153)" stroke-width="1.5px"></line></g></g><g><g><line x1="22.30769230769231" y1="0" x2="22.30769230769231" y2="178" fill="rgb(0, 0, 0)" stroke="rgb(153, 153, 153)" stroke-width="1.5px"></line></g></g><g><g><g><g><g><path stroke="rgb(255, 112, 67)" stroke-width="2px" d="M22.50823846153846,151.29999999999998L22.72239230769231,147.59166666666667L22.904869230769233,149.48367346938775L23.1478,148.9550245098039L23.34522307692308,148.6853805227851L23.570084615384616,149.78241138560688L23.76616923076923,150.4069293370908L23.96872307692308,150.7702601649725L24.173953846153847,149.78556598370506L24.384315384615384,150.3950247543521L24.60136923076923,149.56734538957608L24.868838461538463,147.8834083359791L25.052653846153845,149.2518322582007L25.26413076923077,148.88414455285698L25.451515384615384,148.6637164230507L25.668123076923077,149.71852742760797L25.875361538461537,150.35122355088288L26.10713846153846,149.54398548079962L26.311253846153846,149.05969511110774L26.522953846153847,148.7691397768346L26.720376923076923,148.59481337524443L26.890361538461537,149.676902267785L27.079976923076924,150.32614648794885L27.3035,150.7156897385738L27.49646153846154,150.9494145076305L27.684069230769232,151.08964894379264L27.854053846153846,151.17378945239258L28.055046153846153,150.0376063070454L28.231276923076923,150.54256397028217L28.40126153846154,150.84553844914905L28.595115384615383,151.02732309360212L28.826446153846152,149.94972710373239L29.029,150.48983628803072L29.219061538461542,150.8139017821033L29.433884615384617,148.63500769847192L29.621269230769233,148.51433795117183L29.868884615384616,147.25526942957782L30.089953846153847,147.68649499268125L30.311246153846152,146.75856366020807L30.515807692307693,147.3884715303002L30.692038461538463,148.95308291943502L30.92180769230769,149.8918497521128L31.16696923076923,149.26844318442102L31.3809,150.08106591079337L31.581446153846155,150.5686395465267L31.817684615384618,148.4878503944529L32.01354615384615,149.61271023671384L32.23015384615385,150.28762614204345L32.46773076923077,149.50590901854886L32.65779230769231,150.22354541113512L32.89135384615385,149.46746058001074L33.07472307692308,150.20047634800858L33.26746153846154,149.45361914213717L33.48295384615385,150.1921714852831L33.716515384615384,149.4486362245027L33.94873846153846,147.81584840136767L34.2626076923077,145.6495090408201L34.480776923076924,147.9097054244924L34.708092307692304,148.07915658802878L34.9653,148.18082728615062L35.19596153846154,149.4284963716904L35.431976923076924,150.17709782301426L35.68115384615385,149.43959202714186L35.92876923076923,147.81042188295177L36.21118461538462,145.64625312977105L36.48646153846153,145.5344185445293L36.74924615384616,146.6539844600509L37.03567692307692,146.1390573426972L37.37408461538461,144.64343440561834L37.676130769230774,144.93272731003768L37.96657692307692,143.9196363860226L38.2336,144.49844849828023L38.54769230769231,144.8457357656348L38.78772307692308,147.42744145938087L39.0833,144.22979820896188L39.40006923076923,144.68454559204378L39.77684615384616,146.1440606885596L40.10722307692308,143.4597697464691L40.49649230769231,140.66252851454811L40.8784,137.79751710872887L41.23487692307692,139.63851026523733L41.56213076923077,144.3031061591424L42.05223076923077,143.54186369548543L42.53474615384616,137.15178488395793L42.916207692307694,134.5044042637081L43.38623076923077,132.9159758915582L43.7262,135.52291886826825L44.121715384615385,135.9004179876276L44.5779076923077,130.19358412590992L44.825746153846154,136.2628171422126L45.047930769230774,142.27769028532757L45.46240769230769,141.13994750452986L45.83762307692307,139.2706351693846L46.22555384615385,141.7090477682974L46.56507692307692,143.1720953276451L46.9162,144.04992386325372L47.26308461538462,141.0166209846189L47.7116923076923,139.196639257438L48.21116153846154,139.29131688779614L48.690776923076925,140.53479013267767L49.06487692307692,143.65420741293994L49.50411538461538,144.33919111443063L49.922384615384615,144.75018133532507L50.227999999999994,146.18344213452835L50.69177692307692,142.29673194738368L51.12722307692308,144.71137250176355L51.66461538461539,140.22682350105813L52.13173846153846,137.53609410063487L52.8119,126.4283231270476L53.291961538461535,131.6303272095619L53.77849230769231,132.37819632573715L54.3335076923077,132.82691779544226L55.02303846153846,124.78948401059871L55.9004,111.6603570730259L56.76571538461538,106.15621424381553L57.41063076923077,109.97372854628932L58.03078461538462,113.45090379444025L58.569961538461534,120.2838756099975L59.4297,111.33032536599849L60.25285384615385,107.14486188626576L60.929,108.19358379842612L61.64195384615385,108.82281694572235L62.35223076923077,102.08035683410006L63.070092307692306,100.40821410046006L63.72103076923077,101.77826179360936L64.40944615384615,103.7869570761656L65.12998461538461,101.43217424569937L65.75437692307692,103.57930454741961L66.32835384615385,108.42758272845177L66.99356923076922,94.72321630373771L67.74087692307693,90.06059644890931L68.32801538461538,77.76969120267893L68.8277076923077,96.50181472160736L69.40012307692308,80.44775549963107L70.05596923076924,77.9353199664453L70.63440769230769,70.49452531320053L71.26816923076923,67.21671518792031L71.88118461538461,64.06336244608552L72.57562307692308,69.29135080098465L73.28166153846153,80.7348104805908L73.75748461538461,66.24088628835447L74.29777692307692,58.731198439679346L74.71091538461538,50.66538573047426L75.14234615384615,44.639231438284554L75.57288461538462,39.836872196304064L75.99360769230769,38.142123317782435L76.57026153846154,45.43194065733615L77.03269999999999,43.872497727735016L77.51856153846154,46.496831969974345L77.97720769230769,45.69809918198461L78.4690923076923,49.965526175857434L78.93175384615384,52.525982372181126L79.4591076923077,57.62225608997535L79.87871538461539,50.000020320651856L80.31081538461538,46.61334552572445L80.76321538461538,46.95467398210134L81.17635384615386,43.59947105592746L81.64169230769231,47.51968263355647L82.03386153846155,41.56514291346723L82.46216923076923,41.552419081413674L82.96052307692308,46.291451448848214L83.34421538461538,40.82820420264225L83.88205384615385,68.40358918825204L84.30857692307693,57.655486846284546L84.80001538461538,55.95329210777072L85.17946923076923,45.4386419313291L85.5914923076923,40.3165184921308L86.00173076923076,37.24324442861181L86.4655076923077,40.14594665716708L86.86838461538461,37.14090132763358L87.23378461538461,32.96454079658016L87.63465384615384,34.018724477948105L88.06519230769231,35.83790135343553L88.43817692307692,33.36940747872797L88.88343846153846,37.82164448723678L89.2669076923077,34.55965335900874L89.67268461538463,34.97579201540525L90.12530769230769,37.59880854257648L90.49405384615385,33.2392851255459L90.93574615384615,35.3702377419942L91.34754615384614,34.275475978529855L91.75979230769231,33.61861892045125L92.15084615384616,32.03783801893741L92.54613846153846,32.276036144695794L92.94276923076923,32.418955020150804L93.31530769230768,31.318039678757142L93.69498461538461,30.657490473920962L94.07867692307693,30.261160951019257L94.51456923076923,34.77002990394488L94.93016153846153,33.91535127570026L95.32322307692309,33.402544098753495L95.71360769230769,33.094859792585424L96.08547692307693,31.723582542217933L96.4975,34.46081619199742L96.93272307692308,36.103156381865126L97.30972307692306,33.528560495785726L97.68850769230768,30.797136297471443L98.09517692307692,32.71828177848288L98.47797692307691,31.497635733756393L98.85029230769231,30.76524810692052L99.25272307692308,31.512482197485642L99.70913846153846,35.52082265182471L100.19165384615384,37.92582692442818L100.60345384615385,36.995496154656884L101.00276153846154,35.25063102612748L101.53613846153846,38.95037861567649L101.91983076923077,35.23689383607255L102.30263076923076,33.008802968310185L102.69792307692308,32.85861511431945L103.07514615384615,31.581835735258352L103.45928461538462,32.002434774488336L103.89272307692308,34.628127531359674L104.31166153846155,36.203543185482474L104.70383076923076,34.775459244622816L105.10023846153847,32.73194221344036L105.49686923076922,32.692498661397565L105.87543076923077,31.482165863505195L106.29905384615385,31.942632851436443L106.67783846153846,31.032246377528534L107.08941538461539,31.672681159850455L107.51816923076923,33.243608695910275L107.95093846153847,34.18616521754617L108.36028461538461,34.75169913052769L108.74754615384616,32.717686144983304L109.13324615384616,31.49727835365665L109.5504,34.32503367886064L109.92249230769231,32.461686873983055L110.31354615384615,32.53034545772315L110.67872307692308,30.198207274633905L111.06174615384616,28.798924364780344L111.56322307692308,32.70602128553487L111.9353153846154,31.4902794379876L112.34912307692308,33.13416766279257L112.72166153846153,31.747167264342206L113.0942,30.914967025272L113.49172307692308,30.415646881829872L113.93564615384615,32.489388129097925L114.38826923076924,34.92029954412543L114.86833076923077,36.378846393141906L115.29150769230769,37.2539745025518L115.66404615384616,34.21905136819775L116.02989230769232,31.211430820918643L116.4068923076923,30.59352515921786L116.77251538461539,29.03611509553071L117.16468461538462,28.101669057318432L117.5573,28.72766810105772L118.01750769230769,35.036600860634636L118.42685384615383,35.26196051638078L118.84222307692308,37.77050964316181L119.2227923076923,35.71563911923043L119.58863846153847,32.10938347153824L119.9544846153846,29.945630082922946L120.38725384615385,35.76737804975378L120.75287692307693,32.14042682985225L121.15508461538462,32.33758943124469L121.52093076923077,30.082553658746807L121.89346923076924,29.916198861914747L122.30683076923077,29.8163859838155L122.69297692307693,29.75649825695599L123.10656153846153,32.093898954173596L123.50274615384616,29.936339372504154L123.93373076923078,33.38847029016915L124.31363076923077,31.899748840768172L124.69776923076923,31.00651597112756L125.08480769230769,31.657242916009867L125.5128923076923,35.60767908293926L125.91911538461538,35.60460744976357L126.50201538461539,49.84276446985814L126.86763846153846,40.585658681914886L127.23348461538461,35.03139520914894L127.61360769230768,32.88550379215601L127.97945384615385,30.411302275293618L128.35913076923077,30.113448031842847L128.74594615384615,29.934735485772368L129.13276153846155,31.014174624796766L129.68666153846152,55.39517144154473L130.05206153846154,43.917102864926825L130.47077692307693,41.77692838562278L130.91157692307692,40.49282369804033L131.30151538461539,36.162360885490855L131.6843153846154,33.56408319796118L132.05016153846154,30.818449918776714L132.45928461538463,32.73106995126604L132.82446153846155,30.31864197075962L133.2434,33.61785184912242L133.63534615384614,34.41071110947344L134.04402307692308,34.88642666568407L134.45314615384615,35.17185599941044L134.81854615384614,31.78311359964626L135.20446923076923,30.936534826454434L135.57031538461538,29.24192089587267L135.95556923076924,29.411819204190262L136.3472923076923,31.88709152251415L136.74704615384616,32.18558824684183L137.12828461538462,31.178019614771756L137.53606923076924,32.946811768863064L137.90793846153846,31.634753727984496L138.29497692307692,30.847518903457374L138.66394615384615,29.188511342074417L139.03313846153847,28.193106805244653L139.4407,31.15586408314679L139.8353230769231,31.746851783221423L140.24957692307692,32.101444403266186L140.63527692307693,31.127533308626376L141.04796923076924,31.72985331850917L141.41336923076923,29.717911991105492L141.83007692307692,30.88408052799664L142.2209076923077,30.397114983464636L142.58675384615384,28.918268990078776L142.95237692307694,28.030961394047267L143.38358461538462,28.685243503095027L143.79940000000002,30.264479435190367L144.16881538461539,28.838687661114193L144.57704615384617,31.54321259666852L144.97657692307692,31.979260891334448L145.4196076923077,36.98755653480067L145.8033,34.05920058754705L146.19413076923078,32.30218701919492L146.5666692307692,31.247978878183613L146.95036153846155,31.802120660243492L147.3162076923077,29.761272396146087L147.7152923076923,32.096763437687656L148.0934076923077,31.124724729279265L148.46973846153844,30.54150150423422L148.8384846153846,29.00490090254053L149.2166,28.082940541524298L149.58177692307692,27.529764324914588L149.9601153846154,27.19785859494878L150.35206153846156,28.185381823635915L150.78706153846153,29.96456242751489L151.2129153846154,34.59207078984225L151.58946923076923,32.62190914057203L151.99078461538463,32.62647881767656L152.40035384615382,33.81588729060594L152.82442307692307,34.52953237436356L153.18915384615386,31.39771942461814L153.67166923076925,36.6386316547709L154.0821307692308,37.40984565952921L154.4847846153846,35.49924072905085L154.8495153846154,31.979544437430512L155.2468153846154,32.24105999579166L155.68783846153846,35.95796933080831L156.06416923076924,33.44144826515167L156.44072307692306,31.931535625757657L156.80545384615385,29.838921375454607L157.16996153846154,28.583352825272765L157.55276153846157,29.016678361830326L157.93556153846154,29.276673683764866L158.4113846153846,34.17933754359224L158.80355384615387,33.5609358594887L159.1685076923077,30.8165615156932L159.63116923076922,36.28993690941592L160.02244615384615,33.64062881231621L160.3940923076923,32.05104395405641L160.79183846153845,32.28395970576719L161.1576846153846,30.050375823460296L161.52263846153846,28.71022549407618L161.9699076923077,32.652801963112374L162.36252307692308,32.645014511200756L162.75268461538462,31.453675373387128L163.24367692307692,40.23220522403229L163.61554615384617,36.00598980108604L163.98451538461538,32.28359388065162L164.36374615384617,31.23682299505765L164.76305384615384,31.79542713036791L165.1529923076923,32.130589611554086L165.54694615384616,31.14502043359912L165.93197692307692,30.553678926826144L166.31433076923076,30.198874022762347L166.6966846153846,28.799324413657413L167.06141538461537,27.959594648194443L167.45960769230769,29.82909012225L167.8609230769231,30.95078740668333L168.30261538461536,32.81047244401L168.66823846153844,30.366283466406003L169.05973846153847,31.27310341317694L169.44633076923077,30.63052871457283L169.77336153846153,68.21831722874369L170.13898461538463,51.610990337246214L170.54476153846153,45.20659420234772L170.91663076923075,38.99062318807532L171.32843076923078,36.44770724617853L171.71836923076924,33.73529101437377L172.1564923076923,34.48117460862427L172.54933076923075,32.55537143184123L172.93369230769233,32.586556192438074L173.2993153846154,30.231933715462855L173.68546153846154,31.192493562611038L174.1012769230769,32.955496137566634L174.49991538461538,31.63996434920663L174.88003846153845,30.850645276190654L175.24499230769229,29.190387165714395L175.66036153846153,30.56756563276197L176.06078461538462,31.393872712990493L176.48530000000002,31.889656961127617L176.87501538461538,31.000460843343248L177.27164615384615,30.46694317267262L177.8326846153846,40.826832570270255L178.19763846153845,35.176099542162135L178.5762,32.97232639196395L179.00495384615385,34.02339583517837L179.3699076923077,31.094037501107024L179.7768,31.70975583399754L180.14242307692308,29.705853500398533L180.60463846153849,34.43684543357245L180.97338461538462,31.342107260143482L181.35016153846152,30.671931022752737L181.72872307692307,30.269825280318315L182.12178461538463,31.215228501524326L182.5210923076923,32.96913710091459L182.97438461538462,34.021482260548765L183.39533076923075,34.65288935632925L183.77210769230769,32.65840028046421L184.14152307692308,30.275040168278522L184.5829923076923,31.218357434300447L184.97248461538462,30.59768112724694L185.38606923076924,30.225275343014854L185.79563846153846,32.375165205808905L186.1974,32.478432456818666L186.6089769230769,32.54039280742453L187.00560769230768,31.390902351121383L187.40736923076923,33.07454141067282L187.8164923076923,35.27139151307037L188.2499307692308,35.402834907842234L188.62938461538462,33.10836761137201L189.03895384615385,32.91835390015652L189.4036846153846,30.431012340093925L189.8157076923077,31.31194073738969L190.20229999999998,30.653831109100476L190.56747692307692,29.072298665460277L191.00604615384617,32.87004586594284L191.44283076923077,32.775360852899034L191.80756153846153,30.345216511739423L192.24568461538462,33.63379657371031L192.61063846153849,30.860277944226176L192.97536923076922,29.196166766535704L193.52213076923078,38.87770005992143L193.9221076923077,36.37995336928619L194.35666153846154,37.25463868823837L194.7213923076923,33.03278321294302L195.10642307692308,31.68633659443248L195.4718230769231,29.691801956659486L195.91463076923077,32.0550811739957L196.32464615384615,32.28638203773075L196.72596153846155,32.42516255597178L197.16832307692306,33.69509753358307L197.53305384615385,30.897058520149855L197.89778461538464,29.218235112089896L198.31873076923077,31.770941067253947L198.7445846153846,32.115897973685705L199.15616153846153,32.32287211754475L199.5896,32.447056603860204L199.99158461538462,32.52156729564946L200.43015384615387,37.31294037738967L200.8424,36.6277642264338L201.22564615384616,33.84332520252696L201.6225,33.3593284548495L202.05772307692308,35.44226373957637L202.49495384615383,36.692024910412485L202.91344615384617,33.88188161291416L203.27862307692308,31.009128967748502L203.6690076923077,31.658810713982426L204.03418461538462,29.675286428389477L204.42479230769231,30.858505190367012L204.7971076923077,30.381769780886877L205.3226769230769,43.14906186853213L205.7086,37.75610378778593L206.074,33.33366227267155L206.48624615384617,35.42686403026959L206.87194615384615,33.12278508482843L207.2366769230769,30.55367105089707L207.6739076923077,34.94553596387156L208.06005384615383,34.02065491165627L208.45802307692307,33.46572628032708L208.86803846153848,34.31943576819625L209.28206923076922,32.45832812758442L209.67111538461538,32.52833020988401L210.0365153846154,30.196998125930378L210.4057076923077,28.798198875558256L210.84784615384615,31.518919325334938L211.2194923076923,30.77801826186764L211.6161230769231,31.520144290453914L212.00115384615384,30.77875324093902L212.36610769230768,29.147251944563397L212.73083846153847,28.168351166738038L213.11810000000003,29.954344033376163L213.48283076923076,28.652606420025705L213.85135384615387,27.871563852015417L214.23393076923077,28.589604977875922L214.60245384615385,27.83376298672554L215.04213846153846,32.12692445870199L215.44613076923076,32.32948800855453L215.81086153846152,30.077692805132735L216.25456153846153,35.84661568307964L216.64070769230767,34.561302743181116L217.2416769230769,57.52344831257533L217.56402307692306,86.72740232087854L217.9825153846154,66.27644139252713L218.38784615384614,52.81919816884962L218.77912307692307,43.55818556797644L219.16482307692308,39.18824467411919L219.5424923076923,35.379613471138185L219.9072230769231,31.907768082682914L220.2848923076923,31.011327516276417L220.67706153846154,31.660129843099185L221.05428461538463,30.862744572526186L221.43217692307695,30.38431341018237L221.79735384615384,28.910588046109435L222.1623076923077,28.02635282766568L222.5410923076923,28.68247836326606L222.9528923076923,31.449487017959633L223.3963692307692,33.10969221077578L223.76132307692308,30.54581532646548L224.17000000000002,31.38082252921262L224.55614615384616,30.695160184194243L224.94162307692307,30.283762777183206L225.33423846153846,31.223590999643257L225.7380076923077,31.78748793311928L226.13374615384615,32.125826093204886L226.54063846153846,33.51549565592294L226.92343846153847,31.975964060220434L227.34036923076923,33.42557843613228L227.72116153846153,31.922013728346027L228.1198,32.206541570340946L228.49791538461537,31.19059160887124L228.86264615384616,29.39435496532274L229.24856923076925,29.503279645860314L229.67085384615385,33.128634454182844L230.06793076923077,32.93051400584305L230.43266153846153,30.43830840350583L230.82906923076922,31.31631837543682L231.2506846153846,34.216457691928774L231.64686923076925,34.76987461515726L232.04595384615382,32.72859143576102L232.4106846153846,30.317154861456626L232.78701538461536,30.05695958354063L233.17940769230768,31.087509083457714L233.63403846153844,35.26583878340797L233.9989923076923,31.83950327004477L234.36796153846151,29.783701962026864L234.73291538461538,28.550221177216116L235.10456153846155,28.99679937299633L235.5866307692308,34.01141295713114L235.96965384615385,33.46018110761204L236.35223076923077,31.94277533123388L236.79325384615387,34.59233186540698L237.24297692307692,37.36873245257754L237.6471923076923,35.47457280487983L238.04404615384618,34.33807701626125L238.44513846153845,33.65617954309008L238.8103153846154,30.87370772585406L239.17504615384615,29.20422463551241L239.61606923076923,34.13586811464078L240.00065384615385,32.34818753545114L240.36538461538464,30.08891252127068L240.75063846153844,29.920014179429074L241.14146923076925,31.005341840990777L241.5267230769231,30.46987177126114L241.9122,30.14858972942336L242.27693076923074,28.769153837654027L242.68917692307693,31.50149230259242L243.1157,34.327562048222106L243.53910000000002,36.02320389559992L243.92502307692308,33.480589004026626L244.3392769230769,33.14168673574931L244.72854615384614,31.751678708116273L245.09327692307693,29.731007224869746L245.49972307692306,30.891937668255174L245.88586923076923,30.401829267619775L246.32309999999998,34.8544308939052L246.70567692307694,32.77932520300979L247.08200769230768,31.534261788472534L247.4505307692308,29.60055707308353L247.83221538461538,28.440334243850106L248.20832307692308,28.930867212976754L248.58688461538463,29.2251869944527L248.97749230769233,31.77511219667162L249.3669846153846,32.11840065133631L249.75781538461538,29.95104039080178L250.14173076923078,29.837290901147743L250.50579230769233,28.582374540688644L250.90576923076924,30.202758057746525L251.28165384615383,29.988321501314584L251.66155384615385,29.859659567455417L252.09186923076925,32.15579574047325L252.46797692307692,31.16014411095062L252.88379230769232,35.309419799903694L253.31522307692308,36.612318546608904L253.6995846153846,35.02072446129866L254.0634230769231,31.692434676779197L254.42793076923078,29.695460806067498L254.84463846153847,32.05727648364051L255.24082307692308,32.28769922351763L255.6303153846154,31.23928620077724L256.1059153846154,34.170238387133004L256.49920000000003,32.36880969894648L256.8924846153846,32.474619152701216L257.29402307692305,33.724771491620736L257.6580846153846,30.914862894972448L258.02236923076924,29.22891773698345L258.3940153846154,29.404017308856737L258.8049230769231,31.882410385314056L259.21404615384614,32.18277956452177L259.6213846153846,32.36300107204641L260.1052384615385,38.404467309894486L260.4699692307692,33.7226803859367L260.8848923076923,34.47360823156202L261.2494,31.36416493893721L261.6803846153846,34.24516563002898L262.0480153846154,31.227099378017403L262.4381769230769,30.602926293477104L262.8147307692308,30.22842244275294L263.1915076923077,30.003720132318428L263.5702923076923,29.868898746057727L263.93524615384615,28.601339247634638L264.3002,27.840803548580784L264.6807692307692,28.571148795815134L265.0660230769231,30.196022610822403L265.43075384615383,28.797613566493446L265.79615384615386,27.95856813989607L266.1794,29.828474217270976L266.58071538461536,30.950417863695908L266.945,29.250250718217547L267.3135230769231,28.23015043093053L267.6847230769231,28.804756925224982L268.0898307692308,31.522854155134986L268.47865384615386,30.780379159747664L268.85498461538464,30.33489416251526L269.27570769230766,31.254269830842507L269.6471307692308,30.619228565172158L270.0230153846154,30.238203805769974L270.4627,32.38292228346196L270.8499615384615,33.66975337007719L271.2146923076923,30.881852022046328L271.6113230769231,31.58244454656113L272.0179923076923,33.18946672793667L272.38294615384615,30.593680036762013L272.7748923076923,32.596208022057205L273.2192615384615,34.984391479900985L273.58376923076924,31.6706348879406L273.9685769230769,30.869047599431017L274.34513076923076,30.388095226325287L274.7207923076923,30.099523802461828L275.0995769230769,29.926380948143766L275.50245384615386,29.822495235552932L275.86718461538464,28.57349714133174L276.2319153846154,27.82409828479907L276.61248461538463,28.561125637546116L276.9772153846154,27.81667538252766" style="fill: none;" fill="none"></path></g></g></g></g><g opacity="0.2"><g><g><g><path stroke="rgb(255, 112, 67)" stroke-width="2px" d="M22.50823846153846,151.29999999999998L22.72239230769231,145.36666666666667L22.904869230769233,151.29999999999998L23.1478,148.33333333333334L23.34522307692308,148.33333333333334L23.570084615384616,151.29999999999998L23.76616923076923,151.29999999999998L23.96872307692308,151.29999999999998L24.173953846153847,148.33333333333334L24.384315384615384,151.29999999999998L24.60136923076923,148.33333333333334L24.868838461538463,145.36666666666667L25.052653846153845,151.29999999999998L25.26413076923077,148.33333333333334L25.451515384615384,148.33333333333334L25.668123076923077,151.29999999999998L25.875361538461537,151.29999999999998L26.10713846153846,148.33333333333334L26.311253846153846,148.33333333333334L26.522953846153847,148.33333333333334L26.720376923076923,148.33333333333334L26.890361538461537,151.29999999999998L27.079976923076924,151.29999999999998L27.3035,151.29999999999998L27.49646153846154,151.29999999999998L27.684069230769232,151.29999999999998L27.854053846153846,151.29999999999998L28.055046153846153,148.33333333333334L28.231276923076923,151.29999999999998L28.40126153846154,151.29999999999998L28.595115384615383,151.29999999999998L28.826446153846152,148.33333333333334L29.029,151.29999999999998L29.219061538461542,151.29999999999998L29.433884615384617,145.36666666666667L29.621269230769233,148.33333333333334L29.868884615384616,145.36666666666667L30.089953846153847,148.33333333333334L30.311246153846152,145.36666666666667L30.515807692307693,148.33333333333334L30.692038461538463,151.29999999999998L30.92180769230769,151.29999999999998L31.16696923076923,148.33333333333334L31.3809,151.29999999999998L31.581446153846155,151.29999999999998L31.817684615384618,145.36666666666667L32.01354615384615,151.29999999999998L32.23015384615385,151.29999999999998L32.46773076923077,148.33333333333334L32.65779230769231,151.29999999999998L32.89135384615385,148.33333333333334L33.07472307692308,151.29999999999998L33.26746153846154,148.33333333333334L33.48295384615385,151.29999999999998L33.716515384615384,148.33333333333334L33.94873846153846,145.36666666666667L34.2626076923077,142.4L34.480776923076924,151.29999999999998L34.708092307692304,148.33333333333334L34.9653,148.33333333333334L35.19596153846154,151.29999999999998L35.431976923076924,151.29999999999998L35.68115384615385,148.33333333333334L35.92876923076923,145.36666666666667L36.21118461538462,142.4L36.48646153846153,145.36666666666667L36.74924615384616,148.33333333333334L37.03567692307692,145.36666666666667L37.37408461538461,142.4L37.676130769230774,145.36666666666667L37.96657692307692,142.4L38.2336,145.36666666666667L38.54769230769231,145.36666666666667L38.78772307692308,151.29999999999998L39.0833,139.43333333333334L39.40006923076923,145.36666666666667L39.77684615384616,148.33333333333334L40.10722307692308,139.43333333333334L40.49649230769231,136.46666666666667L40.8784,133.5L41.23487692307692,142.4L41.56213076923077,151.29999999999998L42.05223076923077,142.4L42.53474615384616,127.56666666666666L42.916207692307694,130.53333333333333L43.38623076923077,130.53333333333333L43.7262,139.43333333333334L44.121715384615385,136.46666666666667L44.5779076923077,121.63333333333334L44.825746153846154,145.36666666666667L45.047930769230774,151.29999999999998L45.46240769230769,139.43333333333334L45.83762307692307,136.46666666666667L46.22555384615385,145.36666666666667L46.56507692307692,145.36666666666667L46.9162,145.36666666666667L47.26308461538462,136.46666666666667L47.7116923076923,136.46666666666667L48.21116153846154,139.43333333333334L48.690776923076925,142.4L49.06487692307692,148.33333333333334L49.50411538461538,145.36666666666667L49.922384615384615,145.36666666666667L50.227999999999994,148.33333333333334L50.69177692307692,136.46666666666667L51.12722307692308,148.33333333333334L51.66461538461539,133.5L52.13173846153846,133.5L52.8119,109.76666666666667L53.291961538461535,139.43333333333334L53.77849230769231,133.5L54.3335076923077,133.5L55.02303846153846,112.73333333333333L55.9004,91.96666666666665L56.76571538461538,97.9L57.41063076923077,115.7L58.03078461538462,118.66666666666669L58.569961538461534,130.53333333333333L59.4297,97.9L60.25285384615385,100.86666666666666L60.929,109.76666666666667L61.64195384615385,109.76666666666667L62.35223076923077,91.96666666666665L63.070092307692306,97.9L63.72103076923077,103.83333333333331L64.40944615384615,106.8L65.12998461538461,97.9L65.75437692307692,106.8L66.32835384615385,115.7L66.99356923076922,74.16666666666666L67.74087692307693,83.06666666666666L68.32801538461538,59.33333333333334L68.8277076923077,124.6L69.40012307692308,56.36666666666667L70.05596923076924,74.16666666666666L70.63440769230769,59.33333333333334L71.26816923076923,62.3L71.88118461538461,59.33333333333334L72.57562307692308,77.13333333333334L73.28166153846153,97.9L73.75748461538461,44.5L74.29777692307692,47.466666666666676L74.71091538461538,38.56666666666667L75.14234615384615,35.599999999999994L75.57288461538462,32.63333333333333L75.99360769230769,35.599999999999994L76.57026153846154,56.36666666666667L77.03269999999999,41.533333333333324L77.51856153846154,50.43333333333333L77.97720769230769,44.5L78.4690923076923,56.36666666666667L78.93175384615384,56.36666666666667L79.4591076923077,65.26666666666667L79.87871538461539,38.56666666666667L80.31081538461538,41.533333333333324L80.76321538461538,47.466666666666676L81.17635384615386,38.56666666666667L81.64169230769231,53.400000000000006L82.03386153846155,32.63333333333333L82.46216923076923,41.533333333333324L82.96052307692308,53.400000000000006L83.34421538461538,32.63333333333333L83.88205384615385,109.76666666666667L84.30857692307693,41.533333333333324L84.80001538461538,53.400000000000006L85.17946923076923,29.66666666666666L85.5914923076923,32.63333333333333L86.00173076923076,32.63333333333333L86.4655076923077,44.5L86.86838461538461,32.63333333333333L87.23378461538461,26.700000000000003L87.63465384615384,35.599999999999994L88.06519230769231,38.56666666666667L88.43817692307692,29.66666666666666L88.88343846153846,44.5L89.2669076923077,29.66666666666666L89.67268461538463,35.599999999999994L90.12530769230769,41.533333333333324L90.49405384615385,26.700000000000003L90.93574615384615,38.56666666666667L91.34754615384614,32.63333333333333L91.75979230769231,32.63333333333333L92.15084615384616,29.66666666666666L92.54613846153846,32.63333333333333L92.94276923076923,32.63333333333333L93.31530769230768,29.66666666666666L93.69498461538461,29.66666666666666L94.07867692307693,29.66666666666666L94.51456923076923,41.533333333333324L94.93016153846153,32.63333333333333L95.32322307692309,32.63333333333333L95.71360769230769,32.63333333333333L96.08547692307693,29.66666666666666L96.4975,38.56666666666667L96.93272307692308,38.56666666666667L97.30972307692306,29.66666666666666L97.68850769230768,26.700000000000003L98.09517692307692,35.599999999999994L98.47797692307691,29.66666666666666L98.85029230769231,29.66666666666666L99.25272307692308,32.63333333333333L99.70913846153846,41.533333333333324L100.19165384615384,41.533333333333324L100.60345384615385,35.599999999999994L101.00276153846154,32.63333333333333L101.53613846153846,44.5L101.91983076923077,29.66666666666666L102.30263076923076,29.66666666666666L102.69792307692308,32.63333333333333L103.07514615384615,29.66666666666666L103.45928461538462,32.63333333333333L103.89272307692308,38.56666666666667L104.31166153846155,38.56666666666667L104.70383076923076,32.63333333333333L105.10023846153847,29.66666666666666L105.49686923076922,32.63333333333333L105.87543076923077,29.66666666666666L106.29905384615385,32.63333333333333L106.67783846153846,29.66666666666666L107.08941538461539,32.63333333333333L107.51816923076923,35.599999999999994L107.95093846153847,35.599999999999994L108.36028461538461,35.599999999999994L108.74754615384616,29.66666666666666L109.13324615384616,29.66666666666666L109.5504,38.56666666666667L109.92249230769231,29.66666666666666L110.31354615384615,32.63333333333333L110.67872307692308,26.700000000000003L111.06174615384616,26.700000000000003L111.56322307692308,38.56666666666667L111.9353153846154,29.66666666666666L112.34912307692308,35.599999999999994L112.72166153846153,29.66666666666666L113.0942,29.66666666666666L113.49172307692308,29.66666666666666L113.93564615384615,35.599999999999994L114.38826923076924,38.56666666666667L114.86833076923077,38.56666666666667L115.29150769230769,38.56666666666667L115.66404615384616,29.66666666666666L116.02989230769232,26.700000000000003L116.4068923076923,29.66666666666666L116.77251538461539,26.700000000000003L117.16468461538462,26.700000000000003L117.5573,29.66666666666666L118.01750769230769,44.5L118.42685384615383,35.599999999999994L118.84222307692308,41.533333333333324L119.2227923076923,32.63333333333333L119.58863846153847,26.700000000000003L119.9544846153846,26.700000000000003L120.38725384615385,44.5L120.75287692307693,26.700000000000003L121.15508461538462,32.63333333333333L121.52093076923077,26.700000000000003L121.89346923076924,29.66666666666666L122.30683076923077,29.66666666666666L122.69297692307693,29.66666666666666L123.10656153846153,35.599999999999994L123.50274615384616,26.700000000000003L123.93373076923078,38.56666666666667L124.31363076923077,29.66666666666666L124.69776923076923,29.66666666666666L125.08480769230769,32.63333333333333L125.5128923076923,41.533333333333324L125.91911538461538,35.599999999999994L126.50201538461539,71.2L126.86763846153846,26.700000000000003L127.23348461538461,26.700000000000003L127.61360769230768,29.66666666666666L127.97945384615385,26.700000000000003L128.35913076923077,29.66666666666666L128.74594615384615,29.66666666666666L129.13276153846155,32.63333333333333L129.68666153846152,91.96666666666665L130.05206153846154,26.700000000000003L130.47077692307693,38.56666666666667L130.91157692307692,38.56666666666667L131.30151538461539,29.66666666666666L131.6843153846154,29.66666666666666L132.05016153846154,26.700000000000003L132.45928461538463,35.599999999999994L132.82446153846155,26.700000000000003L133.2434,38.56666666666667L133.63534615384614,35.599999999999994L134.04402307692308,35.599999999999994L134.45314615384615,35.599999999999994L134.81854615384614,26.700000000000003L135.20446923076923,29.66666666666666L135.57031538461538,26.700000000000003L135.95556923076924,29.66666666666666L136.3472923076923,35.599999999999994L136.74704615384616,32.63333333333333L137.12828461538462,29.66666666666666L137.53606923076924,35.599999999999994L137.90793846153846,29.66666666666666L138.29497692307692,29.66666666666666L138.66394615384615,26.700000000000003L139.03313846153847,26.700000000000003L139.4407,35.599999999999994L139.8353230769231,32.63333333333333L140.24957692307692,32.63333333333333L140.63527692307693,29.66666666666666L141.04796923076924,32.63333333333333L141.41336923076923,26.700000000000003L141.83007692307692,32.63333333333333L142.2209076923077,29.66666666666666L142.58675384615384,26.700000000000003L142.95237692307694,26.700000000000003L143.38358461538462,29.66666666666666L143.79940000000002,32.63333333333333L144.16881538461539,26.700000000000003L144.57704615384617,35.599999999999994L144.97657692307692,32.63333333333333L145.4196076923077,44.5L145.8033,29.66666666666666L146.19413076923078,29.66666666666666L146.5666692307692,29.66666666666666L146.95036153846155,32.63333333333333L147.3162076923077,26.700000000000003L147.7152923076923,35.599999999999994L148.0934076923077,29.66666666666666L148.46973846153844,29.66666666666666L148.8384846153846,26.700000000000003L149.2166,26.700000000000003L149.58177692307692,26.700000000000003L149.9601153846154,26.700000000000003L150.35206153846156,29.66666666666666L150.78706153846153,32.63333333333333L151.2129153846154,41.533333333333324L151.58946923076923,29.66666666666666L151.99078461538463,32.63333333333333L152.40035384615382,35.599999999999994L152.82442307692307,35.599999999999994L153.18915384615386,26.700000000000003L153.67166923076925,44.5L154.0821307692308,38.56666666666667L154.4847846153846,32.63333333333333L154.8495153846154,26.700000000000003L155.2468153846154,32.63333333333333L155.68783846153846,41.533333333333324L156.06416923076924,29.66666666666666L156.44072307692306,29.66666666666666L156.80545384615385,26.700000000000003L157.16996153846154,26.700000000000003L157.55276153846157,29.66666666666666L157.93556153846154,29.66666666666666L158.4113846153846,41.533333333333324L158.80355384615387,32.63333333333333L159.1685076923077,26.700000000000003L159.63116923076922,44.5L160.02244615384615,29.66666666666666L160.3940923076923,29.66666666666666L160.79183846153845,32.63333333333333L161.1576846153846,26.700000000000003L161.52263846153846,26.700000000000003L161.9699076923077,38.56666666666667L162.36252307692308,32.63333333333333L162.75268461538462,29.66666666666666L163.24367692307692,53.400000000000006L163.61554615384617,29.66666666666666L163.98451538461538,26.700000000000003L164.36374615384617,29.66666666666666L164.76305384615384,32.63333333333333L165.1529923076923,32.63333333333333L165.54694615384616,29.66666666666666L165.93197692307692,29.66666666666666L166.31433076923076,29.66666666666666L166.6966846153846,26.700000000000003L167.06141538461537,26.700000000000003L167.45960769230769,32.63333333333333L167.8609230769231,32.63333333333333L168.30261538461536,35.599999999999994L168.66823846153844,26.700000000000003L169.05973846153847,32.63333333333333L169.44633076923077,29.66666666666666L169.77336153846153,124.6L170.13898461538463,26.700000000000003L170.54476153846153,35.599999999999994L170.91663076923075,29.66666666666666L171.32843076923078,32.63333333333333L171.71836923076924,29.66666666666666L172.1564923076923,35.599999999999994L172.54933076923075,29.66666666666666L172.93369230769233,32.63333333333333L173.2993153846154,26.700000000000003L173.68546153846154,32.63333333333333L174.1012769230769,35.599999999999994L174.49991538461538,29.66666666666666L174.88003846153845,29.66666666666666L175.24499230769229,26.700000000000003L175.66036153846153,32.63333333333333L176.06078461538462,32.63333333333333L176.48530000000002,32.63333333333333L176.87501538461538,29.66666666666666L177.27164615384615,29.66666666666666L177.8326846153846,56.36666666666667L178.19763846153845,26.700000000000003L178.5762,29.66666666666666L179.00495384615385,35.599999999999994L179.3699076923077,26.700000000000003L179.7768,32.63333333333333L180.14242307692308,26.700000000000003L180.60463846153849,41.533333333333324L180.97338461538462,26.700000000000003L181.35016153846152,29.66666666666666L181.72872307692307,29.66666666666666L182.12178461538463,32.63333333333333L182.5210923076923,35.599999999999994L182.97438461538462,35.599999999999994L183.39533076923075,35.599999999999994L183.77210769230769,29.66666666666666L184.14152307692308,26.700000000000003L184.5829923076923,32.63333333333333L184.97248461538462,29.66666666666666L185.38606923076924,29.66666666666666L185.79563846153846,35.599999999999994L186.1974,32.63333333333333L186.6089769230769,32.63333333333333L187.00560769230768,29.66666666666666L187.40736923076923,35.599999999999994L187.8164923076923,38.56666666666667L188.2499307692308,35.599999999999994L188.62938461538462,29.66666666666666L189.03895384615385,32.63333333333333L189.4036846153846,26.700000000000003L189.8157076923077,32.63333333333333L190.20229999999998,29.66666666666666L190.56747692307692,26.700000000000003L191.00604615384617,38.56666666666667L191.44283076923077,32.63333333333333L191.80756153846153,26.700000000000003L192.24568461538462,38.56666666666667L192.61063846153849,26.700000000000003L192.97536923076922,26.700000000000003L193.52213076923078,53.400000000000006L193.9221076923077,32.63333333333333L194.35666153846154,38.56666666666667L194.7213923076923,26.700000000000003L195.10642307692308,29.66666666666666L195.4718230769231,26.700000000000003L195.91463076923077,35.599999999999994L196.32464615384615,32.63333333333333L196.72596153846155,32.63333333333333L197.16832307692306,35.599999999999994L197.53305384615385,26.700000000000003L197.89778461538464,26.700000000000003L198.31873076923077,35.599999999999994L198.7445846153846,32.63333333333333L199.15616153846153,32.63333333333333L199.5896,32.63333333333333L199.99158461538462,32.63333333333333L200.43015384615387,44.5L200.8424,35.599999999999994L201.22564615384616,29.66666666666666L201.6225,32.63333333333333L202.05772307692308,38.56666666666667L202.49495384615383,38.56666666666667L202.91344615384617,29.66666666666666L203.27862307692308,26.700000000000003L203.6690076923077,32.63333333333333L204.03418461538462,26.700000000000003L204.42479230769231,32.63333333333333L204.7971076923077,29.66666666666666L205.3226769230769,62.3L205.7086,29.66666666666666L206.074,26.700000000000003L206.48624615384617,38.56666666666667L206.87194615384615,29.66666666666666L207.2366769230769,26.700000000000003L207.6739076923077,41.533333333333324L208.06005384615383,32.63333333333333L208.45802307692307,32.63333333333333L208.86803846153848,35.599999999999994L209.28206923076922,29.66666666666666L209.67111538461538,32.63333333333333L210.0365153846154,26.700000000000003L210.4057076923077,26.700000000000003L210.84784615384615,35.599999999999994L211.2194923076923,29.66666666666666L211.6161230769231,32.63333333333333L212.00115384615384,29.66666666666666L212.36610769230768,26.700000000000003L212.73083846153847,26.700000000000003L213.11810000000003,32.63333333333333L213.48283076923076,26.700000000000003L213.85135384615387,26.700000000000003L214.23393076923077,29.66666666666666L214.60245384615385,26.700000000000003L215.04213846153846,38.56666666666667L215.44613076923076,32.63333333333333L215.81086153846152,26.700000000000003L216.25456153846153,44.5L216.64070769230767,32.63333333333333L217.2416769230769,91.96666666666665L217.56402307692306,130.53333333333333L217.9825153846154,35.599999999999994L218.38784615384614,32.63333333333333L218.77912307692307,29.66666666666666L219.16482307692308,32.63333333333333L219.5424923076923,29.66666666666666L219.9072230769231,26.700000000000003L220.2848923076923,29.66666666666666L220.67706153846154,32.63333333333333L221.05428461538463,29.66666666666666L221.43217692307695,29.66666666666666L221.79735384615384,26.700000000000003L222.1623076923077,26.700000000000003L222.5410923076923,29.66666666666666L222.9528923076923,35.599999999999994L223.3963692307692,35.599999999999994L223.76132307692308,26.700000000000003L224.17000000000002,32.63333333333333L224.55614615384616,29.66666666666666L224.94162307692307,29.66666666666666L225.33423846153846,32.63333333333333L225.7380076923077,32.63333333333333L226.13374615384615,32.63333333333333L226.54063846153846,35.599999999999994L226.92343846153847,29.66666666666666L227.34036923076923,35.599999999999994L227.72116153846153,29.66666666666666L228.1198,32.63333333333333L228.49791538461537,29.66666666666666L228.86264615384616,26.700000000000003L229.24856923076925,29.66666666666666L229.67085384615385,38.56666666666667L230.06793076923077,32.63333333333333L230.43266153846153,26.700000000000003L230.82906923076922,32.63333333333333L231.2506846153846,38.56666666666667L231.64686923076925,35.599999999999994L232.04595384615382,29.66666666666666L232.4106846153846,26.700000000000003L232.78701538461536,29.66666666666666L233.17940769230768,32.63333333333333L233.63403846153844,41.533333333333324L233.9989923076923,26.700000000000003L234.36796153846151,26.700000000000003L234.73291538461538,26.700000000000003L235.10456153846155,29.66666666666666L235.5866307692308,41.533333333333324L235.96965384615385,32.63333333333333L236.35223076923077,29.66666666666666L236.79325384615387,38.56666666666667L237.24297692307692,41.533333333333324L237.6471923076923,32.63333333333333L238.04404615384618,32.63333333333333L238.44513846153845,32.63333333333333L238.8103153846154,26.700000000000003L239.17504615384615,26.700000000000003L239.61606923076923,41.533333333333324L240.00065384615385,29.66666666666666L240.36538461538464,26.700000000000003L240.75063846153844,29.66666666666666L241.14146923076925,32.63333333333333L241.5267230769231,29.66666666666666L241.9122,29.66666666666666L242.27693076923074,26.700000000000003L242.68917692307693,35.599999999999994L243.1157,38.56666666666667L243.53910000000002,38.56666666666667L243.92502307692308,29.66666666666666L244.3392769230769,32.63333333333333L244.72854615384614,29.66666666666666L245.09327692307693,26.700000000000003L245.49972307692306,32.63333333333333L245.88586923076923,29.66666666666666L246.32309999999998,41.533333333333324L246.70567692307694,29.66666666666666L247.08200769230768,29.66666666666666L247.4505307692308,26.700000000000003L247.83221538461538,26.700000000000003L248.20832307692308,29.66666666666666L248.58688461538463,29.66666666666666L248.97749230769233,35.599999999999994L249.3669846153846,32.63333333333333L249.75781538461538,26.700000000000003L250.14173076923078,29.66666666666666L250.50579230769233,26.700000000000003L250.90576923076924,32.63333333333333L251.28165384615383,29.66666666666666L251.66155384615385,29.66666666666666L252.09186923076925,35.599999999999994L252.46797692307692,29.66666666666666L252.88379230769232,41.533333333333324L253.31522307692308,38.56666666666667L253.6995846153846,32.63333333333333L254.0634230769231,26.700000000000003L254.42793076923078,26.700000000000003L254.84463846153847,35.599999999999994L255.24082307692308,32.63333333333333L255.6303153846154,29.66666666666666L256.1059153846154,38.56666666666667L256.49920000000003,29.66666666666666L256.8924846153846,32.63333333333333L257.29402307692305,35.599999999999994L257.6580846153846,26.700000000000003L258.02236923076924,26.700000000000003L258.3940153846154,29.66666666666666L258.8049230769231,35.599999999999994L259.21404615384614,32.63333333333333L259.6213846153846,32.63333333333333L260.1052384615385,47.466666666666676L260.4699692307692,26.700000000000003L260.8848923076923,35.599999999999994L261.2494,26.700000000000003L261.6803846153846,38.56666666666667L262.0480153846154,26.700000000000003L262.4381769230769,29.66666666666666L262.8147307692308,29.66666666666666L263.1915076923077,29.66666666666666L263.5702923076923,29.66666666666666L263.93524615384615,26.700000000000003L264.3002,26.700000000000003L264.6807692307692,29.66666666666666L265.0660230769231,32.63333333333333L265.43075384615383,26.700000000000003L265.79615384615386,26.700000000000003L266.1794,32.63333333333333L266.58071538461536,32.63333333333333L266.945,26.700000000000003L267.3135230769231,26.700000000000003L267.6847230769231,29.66666666666666L268.0898307692308,35.599999999999994L268.47865384615386,29.66666666666666L268.85498461538464,29.66666666666666L269.27570769230766,32.63333333333333L269.6471307692308,29.66666666666666L270.0230153846154,29.66666666666666L270.4627,35.599999999999994L270.8499615384615,35.599999999999994L271.2146923076923,26.700000000000003L271.6113230769231,32.63333333333333L272.0179923076923,35.599999999999994L272.38294615384615,26.700000000000003L272.7748923076923,35.599999999999994L273.2192615384615,38.56666666666667L273.58376923076924,26.700000000000003L273.9685769230769,29.66666666666666L274.34513076923076,29.66666666666666L274.7207923076923,29.66666666666666L275.0995769230769,29.66666666666666L275.50245384615386,29.66666666666666L275.86718461538464,26.700000000000003L276.2319153846154,26.700000000000003L276.61248461538463,29.66666666666666L276.9772153846154,26.700000000000003" style="fill: none;" fill="none"></path></g></g></g></g></g></g><g transform="translate(40, 178)" clip-path="url(#clip_1)"><clipPath id="clip_1"><rect width="290" height="22"></rect></clipPath><g><g><line x1="0" y1="0" x2="0" y2="5" style="visibility: inherit;" fill="rgb(0, 0, 0)" stroke="rgb(204, 204, 204)" stroke-width="1px"></line><line x1="22.30769230769231" y1="0" x2="22.30769230769231" y2="5" style="visibility: inherit;" fill="rgb(0, 0, 0)" stroke="rgb(204, 204, 204)" stroke-width="1px"></line><line x1="44.61538461538462" y1="0" x2="44.61538461538462" y2="5" style="visibility: inherit;" fill="rgb(0, 0, 0)" stroke="rgb(204, 204, 204)" stroke-width="1px"></line><line x1="66.92307692307692" y1="0" x2="66.92307692307692" y2="5" style="visibility: inherit;" fill="rgb(0, 0, 0)" stroke="rgb(204, 204, 204)" stroke-width="1px"></line><line x1="89.23076923076924" y1="0" x2="89.23076923076924" y2="5" style="visibility: inherit;" fill="rgb(0, 0, 0)" stroke="rgb(204, 204, 204)" stroke-width="1px"></line><line x1="111.53846153846155" y1="0" x2="111.53846153846155" y2="5" style="visibility: inherit;" fill="rgb(0, 0, 0)" stroke="rgb(204, 204, 204)" stroke-width="1px"></line><line x1="133.84615384615384" y1="0" x2="133.84615384615384" y2="5" style="visibility: inherit;" fill="rgb(0, 0, 0)" stroke="rgb(204, 204, 204)" stroke-width="1px"></line><line x1="156.15384615384616" y1="0" x2="156.15384615384616" y2="5" style="visibility: inherit;" fill="rgb(0, 0, 0)" stroke="rgb(204, 204, 204)" stroke-width="1px"></line><line x1="178.46153846153848" y1="0" x2="178.46153846153848" y2="5" style="visibility: inherit;" fill="rgb(0, 0, 0)" stroke="rgb(204, 204, 204)" stroke-width="1px"></line><line x1="200.76923076923077" y1="0" x2="200.76923076923077" y2="5" style="visibility: inherit;" fill="rgb(0, 0, 0)" stroke="rgb(204, 204, 204)" stroke-width="1px"></line><line x1="223.0769230769231" y1="0" x2="223.0769230769231" y2="5" style="visibility: inherit;" fill="rgb(0, 0, 0)" stroke="rgb(204, 204, 204)" stroke-width="1px"></line><line x1="245.3846153846154" y1="0" x2="245.3846153846154" y2="5" style="visibility: inherit;" fill="rgb(0, 0, 0)" stroke="rgb(204, 204, 204)" stroke-width="1px"></line><line x1="267.6923076923077" y1="0" x2="267.6923076923077" y2="5" style="visibility: inherit;" fill="rgb(0, 0, 0)" stroke="rgb(204, 204, 204)" stroke-width="1px"></line><line x1="290" y1="0" x2="290" y2="5" style="visibility: inherit;" fill="rgb(0, 0, 0)" stroke="rgb(204, 204, 204)" stroke-width="1px"></line></g><g transform="translate(0, 8)"><text x="0" y="0" dx="0em" dy="0.95em" style="text-anchor: middle; visibility: hidden; font-family: Roboto, sans-serif; font-size: 12px; font-weight: 200;" fill="rgb(50, 49, 63)" stroke="none" stroke-width="1px">-100k</text><text x="22.30769230769231" y="0" dx="0em" dy="0.95em" style="text-anchor: middle; visibility: inherit; font-family: Roboto, sans-serif; font-size: 12px; font-weight: 200;" fill="rgb(50, 49, 63)" stroke="none" stroke-width="1px">0</text><text x="44.61538461538462" y="0" dx="0em" dy="0.95em" style="text-anchor: middle; visibility: hidden; font-family: Roboto, sans-serif; font-size: 12px; font-weight: 200;" fill="rgb(50, 49, 63)" stroke="none" stroke-width="1px">100k</text><text x="66.92307692307692" y="0" dx="0em" dy="0.95em" style="text-anchor: middle; visibility: inherit; font-family: Roboto, sans-serif; font-size: 12px; font-weight: 200;" fill="rgb(50, 49, 63)" stroke="none" stroke-width="1px">200k</text><text x="89.23076923076924" y="0" dx="0em" dy="0.95em" style="text-anchor: middle; visibility: hidden; font-family: Roboto, sans-serif; font-size: 12px; font-weight: 200;" fill="rgb(50, 49, 63)" stroke="none" stroke-width="1px">300k</text><text x="111.53846153846155" y="0" dx="0em" dy="0.95em" style="text-anchor: middle; visibility: inherit; font-family: Roboto, sans-serif; font-size: 12px; font-weight: 200;" fill="rgb(50, 49, 63)" stroke="none" stroke-width="1px">400k</text><text x="133.84615384615384" y="0" dx="0em" dy="0.95em" style="text-anchor: middle; visibility: hidden; font-family: Roboto, sans-serif; font-size: 12px; font-weight: 200;" fill="rgb(50, 49, 63)" stroke="none" stroke-width="1px">500k</text><text x="156.15384615384616" y="0" dx="0em" dy="0.95em" style="text-anchor: middle; visibility: inherit; font-family: Roboto, sans-serif; font-size: 12px; font-weight: 200;" fill="rgb(50, 49, 63)" stroke="none" stroke-width="1px">600k</text><text x="178.46153846153848" y="0" dx="0em" dy="0.95em" style="text-anchor: middle; visibility: hidden; font-family: Roboto, sans-serif; font-size: 12px; font-weight: 200;" fill="rgb(50, 49, 63)" stroke="none" stroke-width="1px">700k</text><text x="200.76923076923077" y="0" dx="0em" dy="0.95em" style="text-anchor: middle; visibility: inherit; font-family: Roboto, sans-serif; font-size: 12px; font-weight: 200;" fill="rgb(50, 49, 63)" stroke="none" stroke-width="1px">800k</text><text x="223.0769230769231" y="0" dx="0em" dy="0.95em" style="text-anchor: middle; visibility: hidden; font-family: Roboto, sans-serif; font-size: 12px; font-weight: 200;" fill="rgb(50, 49, 63)" stroke="none" stroke-width="1px">900k</text><text x="245.3846153846154" y="0" dx="0em" dy="0.95em" style="text-anchor: middle; visibility: inherit; font-family: Roboto, sans-serif; font-size: 12px; font-weight: 200;" fill="rgb(50, 49, 63)" stroke="none" stroke-width="1px">1M</text><text x="267.6923076923077" y="0" dx="0em" dy="0.95em" style="text-anchor: middle; visibility: hidden; font-family: Roboto, sans-serif; font-size: 12px; font-weight: 200;" fill="rgb(50, 49, 63)" stroke="none" stroke-width="1px">1.1M</text><text x="290" y="0" dx="0em" dy="0.95em" style="text-anchor: middle; visibility: hidden; font-family: Roboto, sans-serif; font-size: 12px; font-weight: 200;" fill="rgb(50, 49, 63)" stroke="none" stroke-width="1px">1.2M</text></g><line x1="0" y1="0" x2="290" y2="0" fill="rgb(0, 0, 0)" stroke="rgb(204, 204, 204)" stroke-width="1px"></line></g></g></g></g></svg>