<svg viewBox="0 0 330 200" xmlns="http://www.w3.org/2000/svg"><g><g><g><g><g><line x1="50" y1="178" x2="45" y2="178" style="visibility: inherit;" fill="rgb(0, 0, 0)" stroke="rgb(204, 204, 204)" stroke-width="1px"></line><line x1="50" y1="160.20000000000002" x2="45" y2="160.20000000000002" style="visibility: inherit;" fill="rgb(0, 0, 0)" stroke="rgb(204, 204, 204)" stroke-width="1px"></line><line x1="50" y1="142.4" x2="45" y2="142.4" style="visibility: inherit;" fill="rgb(0, 0, 0)" stroke="rgb(204, 204, 204)" stroke-width="1px"></line><line x1="50" y1="124.6" x2="45" y2="124.6" style="visibility: inherit;" fill="rgb(0, 0, 0)" stroke="rgb(204, 204, 204)" stroke-width="1px"></line><line x1="50" y1="106.8" x2="45" y2="106.8" style="visibility: inherit;" fill="rgb(0, 0, 0)" stroke="rgb(204, 204, 204)" stroke-width="1px"></line><line x1="50" y1="89" x2="45" y2="89" style="visibility: inherit;" fill="rgb(0, 0, 0)" stroke="rgb(204, 204, 204)" stroke-width="1px"></line><line x1="50" y1="71.2" x2="45" y2="71.2" style="visibility: inherit;" fill="rgb(0, 0, 0)" stroke="rgb(204, 204, 204)" stroke-width="1px"></line><line x1="50" y1="53.400000000000006" x2="45" y2="53.400000000000006" style="visibility: inherit;" fill="rgb(0, 0, 0)" stroke="rgb(204, 204, 204)" stroke-width="1px"></line><line x1="50" y1="35.60000000000001" x2="45" y2="35.60000000000001" style="visibility: inherit;" fill="rgb(0, 0, 0)" stroke="rgb(204, 204, 204)" stroke-width="1px"></line><line x1="50" y1="17.799999999999997" x2="45" y2="17.799999999999997" style="visibility: inherit;" fill="rgb(0, 0, 0)" stroke="rgb(204, 204, 204)" stroke-width="1px"></line><line x1="50" y1="0" x2="45" y2="0" style="visibility: inherit;" fill="rgb(0, 0, 0)" stroke="rgb(204, 204, 204)" stroke-width="1px"></line></g><g transform="translate(40, 0)"><text x="0" y="178" dx="0em" dy="0.3em" style="text-anchor: end; visibility: hidden; font-family: Roboto, sans-serif; font-size: 12px; font-weight: 200;" fill="rgb(50, 49, 63)" stroke="none" stroke-width="1px">-0.1</text><text x="0" y="160.20000000000002" dx="0em" dy="0.3em" style="text-anchor: end; visibility: inherit; font-family: Roboto, sans-serif; font-size: 12px; font-weight: 200;" fill="rgb(50, 49, 63)" stroke="none" stroke-width="1px">0</text><text x="0" y="142.4" dx="0em" dy="0.3em" style="text-anchor: end; visibility: hidden; font-family: Roboto, sans-serif; font-size: 12px; font-weight: 200;" fill="rgb(50, 49, 63)" stroke="none" stroke-width="1px">0.1</text><text x="0" y="124.6" dx="0em" dy="0.3em" style="text-anchor: end; visibility: inherit; font-family: Roboto, sans-serif; font-size: 12px; font-weight: 200;" fill="rgb(50, 49, 63)" stroke="none" stroke-width="1px">0.2</text><text x="0" y="106.8" dx="0em" dy="0.3em" style="text-anchor: end; visibility: hidden; font-family: Roboto, sans-serif; font-size: 12px; font-weight: 200;" fill="rgb(50, 49, 63)" stroke="none" stroke-width="1px">0.3</text><text x="0" y="89" dx="0em" dy="0.3em" style="text-anchor: end; visibility: inherit; font-family: Roboto, sans-serif; font-size: 12px; font-weight: 200;" fill="rgb(50, 49, 63)" stroke="none" stroke-width="1px">0.4</text><text x="0" y="71.2" dx="0em" dy="0.3em" style="text-anchor: end; visibility: hidden; font-family: Roboto, sans-serif; font-size: 12px; font-weight: 200;" fill="rgb(50, 49, 63)" stroke="none" stroke-width="1px">0.5</text><text x="0" y="53.400000000000006" dx="0em" dy="0.3em" style="text-anchor: end; visibility: inherit; font-family: Roboto, sans-serif; font-size: 12px; font-weight: 200;" fill="rgb(50, 49, 63)" stroke="none" stroke-width="1px">0.6</text><text x="0" y="35.60000000000001" dx="0em" dy="0.3em" style="text-anchor: end; visibility: hidden; font-family: Roboto, sans-serif; font-size: 12px; font-weight: 200;" fill="rgb(50, 49, 63)" stroke="none" stroke-width="1px">0.7</text><text x="0" y="17.799999999999997" dx="0em" dy="0.3em" style="text-anchor: end; visibility: inherit; font-family: Roboto, sans-serif; font-size: 12px; font-weight: 200;" fill="rgb(50, 49, 63)" stroke="none" stroke-width="1px">0.8</text><text x="0" y="0" dx="0em" dy="0.3em" style="text-anchor: end; visibility: hidden; font-family: Roboto, sans-serif; font-size: 12px; font-weight: 200;" fill="rgb(50, 49, 63)" stroke="none" stroke-width="1px">0.9</text></g><line x1="50" y1="0" x2="50" y2="178" fill="rgb(0, 0, 0)" stroke="rgb(204, 204, 204)" stroke-width="1px"></line></g></g><g transform="translate(50, 0)" clip-path="url(#clip_0)"><clipPath id="clip_0"><rect width="280" height="178"></rect></clipPath><g><g><g><line x1="0" y1="0" x2="0" y2="178" fill="rgb(0, 0, 0)" stroke="rgb(60, 60, 60)" stroke-width="1px" opacity="0.25"></line><line x1="21.53846153846154" y1="0" x2="21.53846153846154" y2="178" fill="rgb(0, 0, 0)" stroke="rgb(60, 60, 60)" stroke-width="1px" opacity="0.25"></line><line x1="43.07692307692308" y1="0" x2="43.07692307692308" y2="178" fill="rgb(0, 0, 0)" stroke="rgb(60, 60, 60)" stroke-width="1px" opacity="0.25"></line><line x1="64.61538461538461" y1="0" x2="64.61538461538461" y2="178" fill="rgb(0, 0, 0)" stroke="rgb(60, 60, 60)" stroke-width="1px" opacity="0.25"></line><line x1="86.15384615384616" y1="0" x2="86.15384615384616" y2="178" fill="rgb(0, 0, 0)" stroke="rgb(60, 60, 60)" stroke-width="1px" opacity="0.25"></line><line x1="107.6923076923077" y1="0" x2="107.6923076923077" y2="178" fill="rgb(0, 0, 0)" stroke="rgb(60, 60, 60)" stroke-width="1px" opacity="0.25"></line><line x1="129.23076923076923" y1="0" x2="129.23076923076923" y2="178" fill="rgb(0, 0, 0)" stroke="rgb(60, 60, 60)" stroke-width="1px" opacity="0.25"></line><line x1="150.76923076923077" y1="0" x2="150.76923076923077" y2="178" fill="rgb(0, 0, 0)" stroke="rgb(60, 60, 60)" stroke-width="1px" opacity="0.25"></line><line x1="172.30769230769232" y1="0" x2="172.30769230769232" y2="178" fill="rgb(0, 0, 0)" stroke="rgb(60, 60, 60)" stroke-width="1px" opacity="0.25"></line><line x1="193.84615384615384" y1="0" x2="193.84615384615384" y2="178" fill="rgb(0, 0, 0)" stroke="rgb(60, 60, 60)" stroke-width="1px" opacity="0.25"></line><line x1="215.3846153846154" y1="0" x2="215.3846153846154" y2="178" fill="rgb(0, 0, 0)" stroke="rgb(60, 60, 60)" stroke-width="1px" opacity="0.25"></line><line x1="236.92307692307693" y1="0" x2="236.92307692307693" y2="178" fill="rgb(0, 0, 0)" stroke="rgb(60, 60, 60)" stroke-width="1px" opacity="0.25"></line><line x1="258.46153846153845" y1="0" x2="258.46153846153845" y2="178" fill="rgb(0, 0, 0)" stroke="rgb(60, 60, 60)" stroke-width="1px" opacity="0.25"></line><line x1="280" y1="0" x2="280" y2="178" fill="rgb(0, 0, 0)" stroke="rgb(60, 60, 60)" stroke-width="1px" opacity="0.25"></line></g><g><line x1="0" y1="178" x2="280" y2="178" fill="rgb(0, 0, 0)" stroke="rgb(60, 60, 60)" stroke-width="1px" opacity="0.25"></line><line x1="0" y1="160.20000000000002" x2="280" y2="160.20000000000002" fill="rgb(0, 0, 0)" stroke="rgb(60, 60, 60)" stroke-width="1px" opacity="0.25"></line><line x1="0" y1="142.4" x2="280" y2="142.4" fill="rgb(0, 0, 0)" stroke="rgb(60, 60, 60)" stroke-width="1px" opacity="0.25"></line><line x1="0" y1="124.6" x2="280" y2="124.6" fill="rgb(0, 0, 0)" stroke="rgb(60, 60, 60)" stroke-width="1px" opacity="0.25"></line><line x1="0" y1="106.8" x2="280" y2="106.8" fill="rgb(0, 0, 0)" stroke="rgb(60, 60, 60)" stroke-width="1px" opacity="0.25"></line><line x1="0" y1="89" x2="280" y2="89" fill="rgb(0, 0, 0)" stroke="rgb(60, 60, 60)" stroke-width="1px" opacity="0.25"></line><line x1="0" y1="71.2" x2="280" y2="71.2" fill="rgb(0, 0, 0)" stroke="rgb(60, 60, 60)" stroke-width="1px" opacity="0.25"></line><line x1="0" y1="53.400000000000006" x2="280" y2="53.400000000000006" fill="rgb(0, 0, 0)" stroke="rgb(60, 60, 60)" stroke-width="1px" opacity="0.25"></line><line x1="0" y1="35.60000000000001" x2="280" y2="35.60000000000001" fill="rgb(0, 0, 0)" stroke="rgb(60, 60, 60)" stroke-width="1px" opacity="0.25"></line><line x1="0" y1="17.799999999999997" x2="280" y2="17.799999999999997" fill="rgb(0, 0, 0)" stroke="rgb(60, 60, 60)" stroke-width="1px" opacity="0.25"></line><line x1="0" y1="0" x2="280" y2="0" fill="rgb(0, 0, 0)" stroke="rgb(60, 60, 60)" stroke-width="1px" opacity="0.25"></line></g></g></g><g><g><line x1="0" y1="160.20000000000002" x2="280" y2="160.20000000000002" fill="rgb(0, 0, 0)" stroke="rgb(153, 153, 153)" stroke-width="1.5px"></line></g></g><g><g><line x1="21.53846153846154" y1="0" x2="21.53846153846154" y2="178" fill="rgb(0, 0, 0)" stroke="rgb(153, 153, 153)" stroke-width="1.5px"></line></g></g><g><g><g><g><g><path stroke="rgb(255, 112, 67)" stroke-width="2px" d="M24.011292307692308,-0.11754423344871645L24.188769230769232,1.5728393985062374L24.392953846153848,3.2611608257214844L24.573876923076924,4.87166951650973L24.783015384615382,6.52903804314521L24.98310769230769,8.18471841997842L25.206892307692307,9.917789241463376L25.40396923076923,11.609040791705004L25.60836923076923,13.299439401767094L25.798984615384615,14.943771301204237L25.96310769230769,16.472896858063017L26.146184615384616,17.995566908469645L26.362,19.622589878005062L26.548307692307695,21.214676579066918L26.729446153846155,22.768721327619858L26.89356923076923,24.243689397663942L27.08763076923077,25.770182872060197L27.257784615384615,27.248558536843685L27.421907692307695,28.678126069249824L27.609076923076923,30.154594438621885L27.83243076923077,31.778820539845785L28.028,33.39985163402669L28.211507692307695,34.979094766279026L28.41892307692308,36.61229836809848L28.599846153846155,38.19029790996851L28.838923076923077,39.92741721536494L29.05236923076923,41.67528414460806L29.266030769230767,43.43030837290756L29.463538461538462,45.13622660813246L29.633692307692307,46.72225752109846L29.855538461538462,48.40723469001413L30.09224615384615,50.2007106723144L30.2988,51.959602133444946L30.492430769230772,53.65502428073148L30.72052307692308,55.426286768180105L30.90963076923077,57.114180445294345L31.118769230769228,58.81826963882743L31.34815384615385,60.599001667887705L31.531661538461538,62.27406539321747L31.75716923076923,64.02456571222682L31.934215384615385,65.66013111091935L32.12030769230769,67.25663772951216L32.32836923076923,68.90233409721222L32.55387692307692,70.63521612357349L32.778092307692305,72.41613810939407L33.081138461538465,74.48647560169039L33.291784615384614,76.42501336508857L33.51126153846154,78.3136647401684L33.7596,80.26779029002401L33.98230769230769,82.17647398728502L34.21018461538462,84.07498043786512L34.45076923076923,86.0093882966699L34.689846153846155,87.96035259775293L34.96252307692308,90.03232294685823L35.22830769230769,92.15411381225101L35.48203076923077,94.26592388808912L35.75858461538461,96.44721813118569L36.085323076923075,98.83609924266406L36.376953846153846,101.23347588985959L36.657384615384615,103.59892650490879L36.915200000000006,105.87045970467257L37.21846153846154,108.23587477032855L37.45021538461538,110.42123647108386L37.7356,112.67585407718842L38.04144615384615,115.03966478004948L38.40523076923077,117.66051844534215L38.724215384615384,120.28750341282449L39.10006153846154,123.10613367525437L39.4688,126.01625609617054L39.812984615384615,128.90010592353713L40.12895384615385,131.6749197829507L40.60215384615385,134.904071841761L41.068030769230774,138.38161936528954L41.43633846153846,141.685667800471L41.890153846153844,145.1682805809765L42.2184,148.34293642183476L42.600276923076926,151.51010589057407L43.04073846153847,153.56206356617332L43.28003076923077,154.79323817153286L43.49455384615385,155.5319429347486L43.894738461538466,155.97516579267804L44.257015384615386,156.2410995074357L44.63156923076923,156.4006597362903L44.959384615384614,156.49639587360306L45.2984,156.55383755599073L45.63332307692308,156.58830256542333L46.06646153846153,156.60898157108286L46.548707692307694,156.6213889744786L47.01178461538461,156.62883341651604L47.37298461538461,156.6333000817385L47.79707692307692,156.63598008087197L48.200923076923075,156.63758808035206L48.495999999999995,156.63855288004012L48.943784615384615,156.63913175985294L49.364215384615385,156.63947908774065L49.88307692307693,156.63968748447328L50.33409230769231,156.63981252251284L50.9908,156.6398875453366L51.454307692307694,156.63993255903083L51.924061538461544,156.6399595672474L52.459938461538464,156.6399757721773L53.12569230769231,156.63998549513528L53.9728,156.63999132891004L54.808276923076924,156.6399948291749L55.43095384615385,156.63999692933382L56.02972307692308,156.63999818942918L56.55030769230769,156.63999894548638L57.3804,156.6399993991207L58.17516923076923,156.6399996713013L58.828,156.63999983460965L59.51636923076923,156.63999993259466L60.20215384615385,156.63999999138568L60.89526153846154,156.6400000266603L61.52375384615385,156.64000004782505L62.18843076923077,156.64000006052393L62.88412307692308,156.64000006814322L63.486984615384614,156.64000007271483L64.04116923076923,156.64000007545775L64.68344615384615,156.64000007710354L65.40498461538462,156.640000078091L65.97187692307692,156.6400000786835L66.45433846153847,156.64000007903897L67.00701538461539,156.64000007925225L67.64024615384615,156.64000007938023L68.19873846153845,156.64000007945702L68.81064615384615,156.6400000795031L69.40252307692307,156.64000007953075L70.07301538461539,156.64000007954732L70.75470769230769,156.6400000795573L71.21412307692307,156.64000007956326L71.73578461538462,156.64000007956682L72.13467692307692,156.64000007956898L72.55123076923077,156.64000007957026L72.96692307692308,156.64000007957105L73.37313846153846,156.6400000795715L73.9299076923077,156.6400000795718L74.37639999999999,156.64000007957196L74.84550769230769,156.64000007957205L75.28833846153846,156.6400000795721L75.76326153846153,156.64000007957213L76.20996923076923,156.64000007957216L76.71913846153846,156.6400000795722L77.12427692307692,156.6400000795722L77.54147692307691,156.6400000795722L77.97827692307692,156.6400000795722L78.37716923076924,156.64000007957222L78.82646153846154,156.64000007957222L79.2051076923077,156.64000007957222L79.61864615384616,156.64000007957222L80.09981538461538,156.64000007957222L80.47027692307692,156.64000007957222L80.98956923076923,156.64000007957222L81.40138461538461,156.64000007957222L81.87587692307692,156.64000007957222L82.24224615384615,156.64000007957222L82.64006153846154,156.64000007957222L83.03615384615384,156.64000007957222L83.48393846153847,156.64000007957222L83.87292307692307,156.64000007957222L84.22572307692307,156.64000007957222L84.61276923076923,156.64000007957222L85.02846153846154,156.64000007957222L85.38858461538462,156.64000007957222L85.8184923076923,156.64000007957222L86.18873846153846,156.64000007957222L86.58052307692309,156.64000007957222L87.01753846153846,156.64000007957222L87.37356923076923,156.64000007957222L87.80003076923077,156.64000007957222L88.19763076923076,156.64000007957222L88.59566153846153,156.64000007957222L88.97323076923078,156.64000007957222L89.35489230769231,156.64000007957222L89.73784615384615,156.64000007957222L90.09753846153846,156.64000007957222L90.46412307692307,156.64000007957222L90.83458461538461,156.64000007957222L91.25544615384615,156.64000007957222L91.65670769230769,156.64000007957222L92.03621538461539,156.64000007957222L92.41313846153847,156.64000007957222L92.77218461538462,156.64000007957222L93.17,156.64000007957222L93.59021538461539,156.64000007957222L93.95421538461538,156.64000007957222L94.31993846153846,156.64000007957222L94.71258461538461,156.64000007957222L95.0821846153846,156.64000007957222L95.44166153846155,156.64000007957222L95.83021538461539,156.64000007957222L96.2708923076923,156.64000007957222L96.73676923076923,156.64000007957222L97.13436923076924,156.64000007957222L97.5199076923077,156.64000007957222L98.0348923076923,156.64000007957222L98.40535384615384,156.64000007957222L98.77495384615384,156.64000007957222L99.15661538461539,156.64000007957222L99.52083076923077,156.64000007957222L99.89172307692307,156.64000007957222L100.31021538461538,156.64000007957222L100.7147076923077,156.64000007957222L101.09335384615385,156.64000007957222L101.47609230769231,156.64000007957222L101.85904615384615,156.64000007957222L102.22455384615385,156.64000007957222L102.63356923076924,156.64000007957222L102.99929230769231,156.64000007957222L103.39667692307692,156.64000007957222L103.81064615384616,156.64000007957222L104.2284923076923,156.64000007957222L104.62372307692308,156.64000007957222L104.99763076923078,156.64000007957222L105.37003076923078,156.64000007957222L105.77279999999999,156.64000007957222L106.13206153846154,156.64000007957222L106.50963076923077,156.64000007957222L106.86221538461538,156.64000007957222L107.23203076923078,156.64000007957222L107.71621538461538,156.64000007957222L108.07547692307693,156.64000007957222L108.47501538461539,156.64000007957222L108.83470769230769,156.64000007957222L109.1944,156.64000007957222L109.57821538461538,156.64000007957222L110.00683076923076,156.64000007957222L110.44384615384615,156.64000007957222L110.90735384615385,156.64000007957222L111.31593846153847,156.64000007957222L111.67563076923076,156.64000007957222L112.02886153846154,156.64000007957222L112.39286153846153,156.64000007957222L112.74587692307692,156.64000007957222L113.12452307692308,156.64000007957222L113.5036,156.64000007957222L113.94793846153846,156.64000007957222L114.34316923076922,156.64000007957222L114.74421538461539,156.64000007957222L115.11166153846153,156.64000007957222L115.46489230769231,156.64000007957222L115.81812307692307,156.64000007957222L116.23596923076924,156.64000007957222L116.58898461538462,156.64000007957222L116.97732307692308,156.64000007957222L117.33055384615385,156.64000007957222L117.69024615384616,156.64000007957222L118.08935384615386,156.64000007957222L118.46218461538461,156.64000007957222L118.8615076923077,156.64000007957222L119.24403076923078,156.64000007957222L119.66015384615385,156.64000007957222L120.02695384615384,156.64000007957222L120.39784615384615,156.64000007957222L120.77153846153846,156.64000007957222L121.18486153846153,156.64000007957222L121.57707692307693,156.64000007957222L122.13987692307693,156.64000007957222L122.49289230769232,156.64000007957222L122.84612307692308,156.64000007957222L123.21313846153845,156.64000007957222L123.56636923076923,156.64000007957222L123.93295384615385,156.64000007957222L124.30643076923077,156.64000007957222L124.6799076923077,156.64000007957222L125.21470769230768,156.64000007957222L125.56750769230769,156.64000007957222L125.97178461538462,156.64000007957222L126.39738461538462,156.64000007957222L126.77387692307691,156.64000007957222L127.14347692307693,156.64000007957222L127.49670769230768,156.64000007957222L127.89172307692309,156.64000007957222L128.2443076923077,156.64000007957222L128.6488,156.64000007957222L129.02723076923075,156.64000007957222L129.42181538461537,156.64000007957222L129.81683076923076,156.64000007957222L130.16963076923076,156.64000007957222L130.54224615384615,156.64000007957222L130.89547692307693,156.64000007957222L131.26744615384615,156.64000007957222L131.64566153846152,156.64000007957222L132.03163076923076,156.64000007957222L132.3997230769231,156.64000007957222L132.79344615384616,156.64000007957222L133.1524923076923,156.64000007957222L133.5261846153846,156.64000007957222L133.88243076923078,156.64000007957222L134.2388923076923,156.64000007957222L134.6324,156.64000007957222L135.0134153846154,156.64000007957222L135.41338461538462,156.64000007957222L135.7857846153846,156.64000007957222L136.18424615384615,156.64000007957222L136.53704615384615,156.64000007957222L136.93938461538463,156.64000007957222L137.31673846153848,156.64000007957222L137.66996923076923,156.64000007957222L138.02298461538462,156.64000007957222L138.43932307692307,156.64000007957222L138.8408,156.64000007957222L139.19747692307692,156.64000007957222L139.59163076923076,156.64000007957222L139.9773846153846,156.64000007957222L140.40513846153846,156.64000007957222L140.77560000000003,156.64000007957222L141.15295384615385,156.64000007957222L141.51264615384613,156.64000007957222L141.8831076923077,156.64000007957222L142.23633846153845,156.64000007957222L142.62166153846152,156.64000007957222L142.98673846153847,156.64000007957222L143.3500923076923,156.64000007957222L143.70612307692306,156.64000007957222L144.0712,156.64000007957222L144.4237846153846,156.64000007957222L144.78907692307695,156.64000007957222L145.1675076923077,156.64000007957222L145.5875076923077,156.64000007957222L145.99867692307694,156.64000007957222L146.36224615384614,156.64000007957222L146.7497230769231,156.64000007957222L147.14516923076923,156.64000007957222L147.55461538461537,156.64000007957222L147.90676923076924,156.64000007957222L148.37264615384618,156.64000007957222L148.76895384615386,156.64000007957222L149.15772307692308,156.64000007957222L149.50987692307692,156.64000007957222L149.89347692307692,156.64000007957222L150.3192923076923,156.64000007957222L150.68264615384615,156.64000007957222L151.04621538461538,156.64000007957222L151.39836923076922,156.64000007957222L151.75030769230767,156.64000007957222L152.11990769230772,156.64000007957222L152.4895076923077,156.64000007957222L152.94892307692308,156.64000007957222L153.32756923076926,156.64000007957222L153.67993846153848,156.64000007957222L154.12664615384614,156.64000007957222L154.50443076923077,156.64000007957222L154.86326153846153,156.64000007957222L155.2472923076923,156.64000007957222L155.60052307692305,156.64000007957222L155.9528923076923,156.64000007957222L156.38473846153843,156.64000007957222L156.7638153846154,156.64000007957222L157.14052307692307,156.64000007957222L157.61458461538462,156.64000007957222L157.97363076923077,156.64000007957222L158.3298769230769,156.64000007957222L158.6960307692308,156.64000007957222L159.08156923076922,156.64000007957222L159.45806153846155,156.64000007957222L159.83843076923077,156.64000007957222L160.2101846153846,156.64000007957222L160.57935384615385,156.64000007957222L160.94852307692307,156.64000007957222L161.30067692307694,156.64000007957222L161.68513846153846,156.64000007957222L162.0726153846154,156.64000007957222L162.4990769230769,156.64000007957222L162.8520923076923,156.64000007957222L163.2300923076923,156.64000007957222L163.60335384615385,156.64000007957222L163.9191076923077,156.64000007957222L164.2721230769231,156.64000007957222L164.6639076923077,156.64000007957222L165.02295384615383,156.64000007957222L165.42055384615387,156.64000007957222L165.79704615384617,156.64000007957222L166.22006153846155,156.64000007957222L166.59935384615383,156.64000007957222L166.97046153846154,156.64000007957222L167.32347692307692,156.64000007957222L167.6963076923077,156.64000007957222L168.0977846153846,156.64000007957222L168.48267692307692,156.64000007957222L168.8496923076923,156.64000007957222L169.20206153846152,156.64000007957222L169.6031076923077,156.64000007957222L169.98972307692307,156.64000007957222L170.39960000000002,156.64000007957222L170.7758769230769,156.64000007957222L171.15883076923075,156.64000007957222L171.70052307692308,156.64000007957222L172.0528923076923,156.64000007957222L172.4184,156.64000007957222L172.83236923076922,156.64000007957222L173.18473846153847,156.64000007957222L173.57760000000002,156.64000007957222L173.93061538461538,156.64000007957222L174.37689230769232,156.64000007957222L174.73292307692307,156.64000007957222L175.0967076923077,156.64000007957222L175.46221538461538,156.64000007957222L175.84172307692307,156.64000007957222L176.22726153846153,156.64000007957222L176.66492307692306,156.64000007957222L177.07135384615384,156.64000007957222L177.43513846153846,156.64000007957222L177.79181538461538,156.64000007957222L178.21806153846154,156.64000007957222L178.5941230769231,156.64000007957222L178.99344615384618,156.64000007957222L179.3888923076923,156.64000007957222L179.77679999999998,156.64000007957222L180.1741846153846,156.64000007957222L180.55713846153844,156.64000007957222L180.94504615384614,156.64000007957222L181.34006153846153,156.64000007957222L181.75855384615386,156.64000007957222L182.1249230769231,156.64000007957222L182.52036923076923,156.64000007957222L182.87252307692307,156.64000007957222L183.27033846153847,156.64000007957222L183.6436,156.64000007957222L183.99618461538464,156.64000007957222L184.4196307692308,156.64000007957222L184.84135384615385,156.64000007957222L185.1935076923077,156.64000007957222L185.61652307692307,156.64000007957222L185.96889230769233,156.64000007957222L186.32104615384614,156.64000007957222L186.84895384615385,156.64000007957222L187.23513846153847,156.64000007957222L187.6547076923077,156.64000007957222L188.00686153846152,156.64000007957222L188.3786153846154,156.64000007957222L188.7314153846154,156.64000007957222L189.15895384615385,156.64000007957222L189.55483076923076,156.64000007957222L189.9423076923077,156.64000007957222L190.36941538461537,156.64000007957222L190.72156923076923,156.64000007957222L191.0737230769231,156.64000007957222L191.48015384615385,156.64000007957222L191.89132307692307,156.64000007957222L192.2887076923077,156.64000007957222L192.7072,156.64000007957222L193.09532307692308,156.64000007957222L193.51876923076924,156.64000007957222L193.9168,156.64000007957222L194.28683076923076,156.64000007957222L194.67000000000002,156.64000007957222L195.0902153846154,156.64000007957222L195.51236923076922,156.64000007957222L195.91643076923077,156.64000007957222L196.2690153846154,156.64000007957222L196.64593846153846,156.64000007957222L196.99852307692308,156.64000007957222L197.37566153846154,156.64000007957222L197.73513846153847,156.64000007957222L198.2425846153846,156.64000007957222L198.6152,156.64000007957222L198.968,156.64000007957222L199.36603076923078,156.64000007957222L199.73843076923075,156.64000007957222L200.0905846153846,156.64000007957222L200.51273846153848,156.64000007957222L200.88556923076922,156.64000007957222L201.26981538461538,156.64000007957222L201.66569230769232,156.64000007957222L202.06544615384615,156.64000007957222L202.44107692307693,156.64000007957222L202.79387692307694,156.64000007957222L203.15033846153847,156.64000007957222L203.57723076923077,156.64000007957222L203.93606153846153,156.64000007957222L204.3190153846154,156.64000007957222L204.69076923076923,156.64000007957222L205.04313846153846,156.64000007957222L205.39529230769233,156.64000007957222L205.7692,156.64000007957222L206.12135384615385,156.64000007957222L206.47716923076925,156.64000007957222L206.84655384615382,156.64000007957222L207.20236923076925,156.64000007957222L207.6268923076923,156.64000007957222L208.01695384615385,156.64000007957222L208.3691076923077,156.64000007957222L208.79750769230768,156.64000007957222L209.17033846153845,156.64000007957222L209.7505846153846,156.64000007957222L210.0618153846154,156.64000007957222L210.46587692307693,156.64000007957222L210.85723076923077,156.64000007957222L211.2350153846154,156.64000007957222L211.6074153846154,156.64000007957222L211.97206153846153,156.64000007957222L212.3242153846154,156.64000007957222L212.68886153846154,156.64000007957222L213.0675076923077,156.64000007957222L213.43172307692308,156.64000007957222L213.79658461538463,156.64000007957222L214.14916923076925,156.64000007957222L214.50153846153847,156.64000007957222L214.86726153846155,156.64000007957222L215.26486153846153,156.64000007957222L215.69304615384615,156.64000007957222L216.04541538461538,156.64000007957222L216.44,156.64000007957222L216.81283076923077,156.64000007957222L217.18501538461538,156.64000007957222L217.5640923076923,156.64000007957222L217.95393846153846,156.64000007957222L218.33603076923077,156.64000007957222L218.72889230769232,156.64000007957222L219.0984923076923,156.64000007957222L219.50104615384615,156.64000007957222L219.86870769230768,156.64000007957222L220.2536,156.64000007957222L220.61867692307692,156.64000007957222L220.9708307692308,156.64000007957222L221.34344615384617,156.64000007957222L221.75116923076925,156.64000007957222L222.13455384615386,156.64000007957222L222.48670769230768,156.64000007957222L222.86944615384616,156.64000007957222L223.27652307692307,156.64000007957222L223.65904615384616,156.64000007957222L224.0443692307692,156.64000007957222L224.39652307692307,156.64000007957222L224.75987692307692,156.64000007957222L225.13873846153845,156.64000007957222L225.5776923076923,156.64000007957222L225.93006153846153,156.64000007957222L226.28630769230767,156.64000007957222L226.6386769230769,156.64000007957222L226.9975076923077,156.64000007957222L227.46295384615385,156.64000007957222L227.83276923076923,156.64000007957222L228.20215384615386,156.64000007957222L228.62796923076925,156.64000007957222L229.0621846153846,156.64000007957222L229.45246153846153,156.64000007957222L229.8356307692308,156.64000007957222L230.2228923076923,156.64000007957222L230.57547692307693,156.64000007957222L230.92763076923075,156.64000007957222L231.35344615384616,156.64000007957222L231.72476923076923,156.64000007957222L232.0769230769231,156.64000007957222L232.4488923076923,156.64000007957222L232.82624615384617,156.64000007957222L233.1982153846154,156.64000007957222L233.5704,156.64000007957222L233.92255384615385,156.64000007957222L234.3205846153846,156.64000007957222L234.7324,156.64000007957222L235.1412,156.64000007957222L235.5138153846154,156.64000007957222L235.9137846153846,156.64000007957222L236.28963076923077,156.64000007957222L236.6417846153846,156.64000007957222L237.03421538461538,156.64000007957222L237.40704615384615,156.64000007957222L237.8292,156.64000007957222L238.19858461538462,156.64000007957222L238.56193846153846,156.64000007957222L238.91775384615386,156.64000007957222L239.2862769230769,156.64000007957222L239.6494153846154,156.64000007957222L240.01492307692308,156.64000007957222L240.39206153846155,156.64000007957222L240.76812307692308,156.64000007957222L241.14547692307693,156.64000007957222L241.51615384615386,156.64000007957222L241.86766153846156,156.64000007957222L242.25384615384615,156.64000007957222L242.61676923076922,156.64000007957222L242.98356923076923,156.64000007957222L243.39904615384617,156.64000007957222L243.7621846153846,156.64000007957222L244.16366153846155,156.64000007957222L244.5802153846154,156.64000007957222L244.95132307692307,156.64000007957222L245.3026153846154,156.64000007957222L245.65455384615385,156.64000007957222L246.05689230769232,156.64000007957222L246.4394153846154,156.64000007957222L246.81547692307691,156.64000007957222L247.27467692307692,156.64000007957222L247.6544,156.64000007957222L248.0341230769231,156.64000007957222L248.42181538461537,156.64000007957222L248.77332307692308,156.64000007957222L249.12504615384617,156.64000007957222L249.48387692307693,156.64000007957222L249.8806153846154,156.64000007957222L250.27563076923076,156.64000007957222L250.66892307692308,156.64000007957222L251.1360923076923,156.64000007957222L251.48824615384615,156.64000007957222L251.88886153846155,156.64000007957222L252.2408,156.64000007957222L252.65692307692305,156.64000007957222L253.0118769230769,156.64000007957222L253.38858461538462,156.64000007957222L253.75215384615385,156.64000007957222L254.11593846153846,156.64000007957222L254.48166153846154,156.64000007957222L254.83403076923076,156.64000007957222L255.1864,156.64000007957222L255.55384615384617,156.64000007957222L255.9258153846154,156.64000007957222L256.2779692307692,156.64000007957222L256.6307692307692,156.64000007957222L257.0008,156.64000007957222L257.38827692307694,156.64000007957222L257.74,156.64000007957222L258.0958153846154,156.64000007957222L258.4542153846154,156.64000007957222L258.84535384615384,156.64000007957222L259.22076923076924,156.64000007957222L259.5841230769231,156.64000007957222L259.99033846153844,156.64000007957222L260.34895384615385,156.64000007957222L260.71187692307694,156.64000007957222L261.1364,156.64000007957222L261.51030769230766,156.64000007957222L261.86246153846156,156.64000007957222L262.2454153846154,156.64000007957222L262.6380615384615,156.64000007957222L262.9904307692308,156.64000007957222L263.36886153846154,156.64000007957222L263.79790769230766,156.64000007957222L264.1498461538461,156.64000007957222L264.52138461538465,156.64000007957222L264.88495384615385,156.64000007957222L265.2476615384615,156.64000007957222L265.6133846153846,156.64000007957222L266.0023692307692,156.64000007957222L266.3545230769231,156.64000007957222L266.7066769230769,156.64000007957222L267.07412307692306,156.64000007957222L267.42627692307695,156.64000007957222" style="fill: none;" fill="none"></path></g></g></g></g><g opacity="0.2"><g><g><g><path stroke="rgb(255, 112, 67)" stroke-width="2px" d="M23.54347692307692,-1.229980397224442L23.753046153846153,0.501956295967106L24.011292307692308,2.6361782073974647L24.188769230769232,4.102895450592045L24.392953846153848,5.790335369110111L24.573876923076924,7.285539460182194L24.783015384615382,9.013921928405766L24.98310769230769,10.66753835678101L25.206892307692307,12.516955447196965L25.40396923076923,14.145660471916203L25.60836923076923,15.834882807731633L25.798984615384615,17.41017897129059L25.96310769230769,18.766534876823428L26.146184615384616,20.279541921615603L26.362,22.063105058670047L26.548307692307695,23.60279531478882L26.729446153846155,25.099781823158267L26.89356923076923,26.456137728691104L27.08763076923077,28.059920740127566L27.257784615384615,29.466120672225955L27.421907692307695,30.822476577758792L27.609076923076923,32.36929650306702L27.83243076923077,34.21515936851502L28.028,35.83139808177948L28.211507692307695,37.347959351539615L28.41892307692308,39.06210370063782L28.599846153846155,40.55729718208313L28.838923076923077,42.53309614658356L29.05236923076923,44.29708452224732L29.266030769230767,46.06284470558167L29.463538461538462,47.69510395526886L29.633692307692307,49.10130388736725L29.855538461538462,50.93470044136048L30.09224615384615,52.89092464447022L30.2988,54.59793932437897L30.492430769230772,56.198157501220706L30.72052307692308,58.083180499076846L30.90963076923077,59.6460209608078L31.118769230769228,61.374403429031375L31.34815384615385,63.270099711418155L31.531661538461538,64.78666098117829L31.75716923076923,66.65031619071961L31.934215384615385,68.11347920894623L32.12030769230769,69.65139765739441L32.32836923076923,71.37087864875794L32.55387692307692,73.23453916311264L32.778092307692305,75.08752108812332L33.081138461538465,77.59198184013367L33.291784615384614,79.33282001018524L33.51126153846154,81.14664180278778L33.7596,83.19897861480713L33.98230769230769,85.03949953317642L34.21018461538462,86.9227401137352L34.45076923076923,88.91100008487702L34.689846153846155,90.88679904937744L34.96252307692308,93.14027847051621L35.22830769230769,95.33680011034012L35.48203076923077,97.43363900184632L35.75858461538461,99.71915949583054L36.085323076923075,102.4194209098816L36.376953846153846,104.82954086065293L36.657384615384615,107.14710242748261L36.915200000000006,109.27775950431824L37.21846153846154,111.78399736881256L37.45021538461538,113.6992790222168L37.7356,116.0577804863453L38.04144615384615,118.58538083434105L38.40523076923077,121.59179894328118L38.724215384615384,124.227980864048L39.10006153846154,127.33407906889916L39.4688,130.3814397275448L39.812984615384615,133.22588066458704L40.12895384615385,135.8371405720711L40.60215384615385,139.74779992997648L41.068030769230774,143.59794065058233L41.43633846153846,146.64174045324327L41.890153846153844,150.39219975173475L42.2184,153.10492018312218L42.600276923076926,156.26086009368302L43.04073846153847,156.64000007957222L43.28003076923077,156.64000007957222L43.49455384615385,156.64000007957222L43.894738461538466,156.64000007957222L44.257015384615386,156.64000007957222L44.63156923076923,156.64000007957222L44.959384615384614,156.64000007957222L45.2984,156.64000007957222L45.63332307692308,156.64000007957222L46.06646153846153,156.64000007957222L46.548707692307694,156.64000007957222L47.01178461538461,156.64000007957222L47.37298461538461,156.64000007957222L47.79707692307692,156.64000007957222L48.200923076923075,156.64000007957222L48.495999999999995,156.64000007957222L48.943784615384615,156.64000007957222L49.364215384615385,156.64000007957222L49.88307692307693,156.64000007957222L50.33409230769231,156.64000007957222L50.9908,156.64000007957222L51.454307692307694,156.64000007957222L51.924061538461544,156.64000007957222L52.459938461538464,156.64000007957222L53.12569230769231,156.64000007957222L53.9728,156.64000007957222L54.808276923076924,156.64000007957222L55.43095384615385,156.64000007957222L56.02972307692308,156.64000007957222L56.55030769230769,156.64000007957222L57.3804,156.64000007957222L58.17516923076923,156.64000007957222L58.828,156.64000007957222L59.51636923076923,156.64000007957222L60.20215384615385,156.64000007957222L60.89526153846154,156.64000007957222L61.52375384615385,156.64000007957222L62.18843076923077,156.64000007957222L62.88412307692308,156.64000007957222L63.486984615384614,156.64000007957222L64.04116923076923,156.64000007957222L64.68344615384615,156.64000007957222L65.40498461538462,156.64000007957222L65.97187692307692,156.64000007957222L66.45433846153847,156.64000007957222L67.00701538461539,156.64000007957222L67.64024615384615,156.64000007957222L68.19873846153845,156.64000007957222L68.81064615384615,156.64000007957222L69.40252307692307,156.64000007957222L70.07301538461539,156.64000007957222L70.75470769230769,156.64000007957222L71.21412307692307,156.64000007957222L71.73578461538462,156.64000007957222L72.13467692307692,156.64000007957222L72.55123076923077,156.64000007957222L72.96692307692308,156.64000007957222L73.37313846153846,156.64000007957222L73.9299076923077,156.64000007957222L74.37639999999999,156.64000007957222L74.84550769230769,156.64000007957222L75.28833846153846,156.64000007957222L75.76326153846153,156.64000007957222L76.20996923076923,156.64000007957222L76.71913846153846,156.64000007957222L77.12427692307692,156.64000007957222L77.54147692307691,156.64000007957222L77.97827692307692,156.64000007957222L78.37716923076924,156.64000007957222L78.82646153846154,156.64000007957222L79.2051076923077,156.64000007957222L79.61864615384616,156.64000007957222L80.09981538461538,156.64000007957222L80.47027692307692,156.64000007957222L80.98956923076923,156.64000007957222L81.40138461538461,156.64000007957222L81.87587692307692,156.64000007957222L82.24224615384615,156.64000007957222L82.64006153846154,156.64000007957222L83.03615384615384,156.64000007957222L83.48393846153847,156.64000007957222L83.87292307692307,156.64000007957222L84.22572307692307,156.64000007957222L84.61276923076923,156.64000007957222L85.02846153846154,156.64000007957222L85.38858461538462,156.64000007957222L85.8184923076923,156.64000007957222L86.18873846153846,156.64000007957222L86.58052307692309,156.64000007957222L87.01753846153846,156.64000007957222L87.37356923076923,156.64000007957222L87.80003076923077,156.64000007957222L88.19763076923076,156.64000007957222L88.59566153846153,156.64000007957222L88.97323076923078,156.64000007957222L89.35489230769231,156.64000007957222L89.73784615384615,156.64000007957222L90.09753846153846,156.64000007957222L90.46412307692307,156.64000007957222L90.83458461538461,156.64000007957222L91.25544615384615,156.64000007957222L91.65670769230769,156.64000007957222L92.03621538461539,156.64000007957222L92.41313846153847,156.64000007957222L92.77218461538462,156.64000007957222L93.17,156.64000007957222L93.59021538461539,156.64000007957222L93.95421538461538,156.64000007957222L94.31993846153846,156.64000007957222L94.71258461538461,156.64000007957222L95.0821846153846,156.64000007957222L95.44166153846155,156.64000007957222L95.83021538461539,156.64000007957222L96.2708923076923,156.64000007957222L96.73676923076923,156.64000007957222L97.13436923076924,156.64000007957222L97.5199076923077,156.64000007957222L98.0348923076923,156.64000007957222L98.40535384615384,156.64000007957222L98.77495384615384,156.64000007957222L99.15661538461539,156.64000007957222L99.52083076923077,156.64000007957222L99.89172307692307,156.64000007957222L100.31021538461538,156.64000007957222L100.7147076923077,156.64000007957222L101.09335384615385,156.64000007957222L101.47609230769231,156.64000007957222L101.85904615384615,156.64000007957222L102.22455384615385,156.64000007957222L102.63356923076924,156.64000007957222L102.99929230769231,156.64000007957222L103.39667692307692,156.64000007957222L103.81064615384616,156.64000007957222L104.2284923076923,156.64000007957222L104.62372307692308,156.64000007957222L104.99763076923078,156.64000007957222L105.37003076923078,156.64000007957222L105.77279999999999,156.64000007957222L106.13206153846154,156.64000007957222L106.50963076923077,156.64000007957222L106.86221538461538,156.64000007957222L107.23203076923078,156.64000007957222L107.71621538461538,156.64000007957222L108.07547692307693,156.64000007957222L108.47501538461539,156.64000007957222L108.83470769230769,156.64000007957222L109.1944,156.64000007957222L109.57821538461538,156.64000007957222L110.00683076923076,156.64000007957222L110.44384615384615,156.64000007957222L110.90735384615385,156.64000007957222L111.31593846153847,156.64000007957222L111.67563076923076,156.64000007957222L112.02886153846154,156.64000007957222L112.39286153846153,156.64000007957222L112.74587692307692,156.64000007957222L113.12452307692308,156.64000007957222L113.5036,156.64000007957222L113.94793846153846,156.64000007957222L114.34316923076922,156.64000007957222L114.74421538461539,156.64000007957222L115.11166153846153,156.64000007957222L115.46489230769231,156.64000007957222L115.81812307692307,156.64000007957222L116.23596923076924,156.64000007957222L116.58898461538462,156.64000007957222L116.97732307692308,156.64000007957222L117.33055384615385,156.64000007957222L117.69024615384616,156.64000007957222L118.08935384615386,156.64000007957222L118.46218461538461,156.64000007957222L118.8615076923077,156.64000007957222L119.24403076923078,156.64000007957222L119.66015384615385,156.64000007957222L120.02695384615384,156.64000007957222L120.39784615384615,156.64000007957222L120.77153846153846,156.64000007957222L121.18486153846153,156.64000007957222L121.57707692307693,156.64000007957222L122.13987692307693,156.64000007957222L122.49289230769232,156.64000007957222L122.84612307692308,156.64000007957222L123.21313846153845,156.64000007957222L123.56636923076923,156.64000007957222L123.93295384615385,156.64000007957222L124.30643076923077,156.64000007957222L124.6799076923077,156.64000007957222L125.21470769230768,156.64000007957222L125.56750769230769,156.64000007957222L125.97178461538462,156.64000007957222L126.39738461538462,156.64000007957222L126.77387692307691,156.64000007957222L127.14347692307693,156.64000007957222L127.49670769230768,156.64000007957222L127.89172307692309,156.64000007957222L128.2443076923077,156.64000007957222L128.6488,156.64000007957222L129.02723076923075,156.64000007957222L129.42181538461537,156.64000007957222L129.81683076923076,156.64000007957222L130.16963076923076,156.64000007957222L130.54224615384615,156.64000007957222L130.89547692307693,156.64000007957222L131.26744615384615,156.64000007957222L131.64566153846152,156.64000007957222L132.03163076923076,156.64000007957222L132.3997230769231,156.64000007957222L132.79344615384616,156.64000007957222L133.1524923076923,156.64000007957222L133.5261846153846,156.64000007957222L133.88243076923078,156.64000007957222L134.2388923076923,156.64000007957222L134.6324,156.64000007957222L135.0134153846154,156.64000007957222L135.41338461538462,156.64000007957222L135.7857846153846,156.64000007957222L136.18424615384615,156.64000007957222L136.53704615384615,156.64000007957222L136.93938461538463,156.64000007957222L137.31673846153848,156.64000007957222L137.66996923076923,156.64000007957222L138.02298461538462,156.64000007957222L138.43932307692307,156.64000007957222L138.8408,156.64000007957222L139.19747692307692,156.64000007957222L139.59163076923076,156.64000007957222L139.9773846153846,156.64000007957222L140.40513846153846,156.64000007957222L140.77560000000003,156.64000007957222L141.15295384615385,156.64000007957222L141.51264615384613,156.64000007957222L141.8831076923077,156.64000007957222L142.23633846153845,156.64000007957222L142.62166153846152,156.64000007957222L142.98673846153847,156.64000007957222L143.3500923076923,156.64000007957222L143.70612307692306,156.64000007957222L144.0712,156.64000007957222L144.4237846153846,156.64000007957222L144.78907692307695,156.64000007957222L145.1675076923077,156.64000007957222L145.5875076923077,156.64000007957222L145.99867692307694,156.64000007957222L146.36224615384614,156.64000007957222L146.7497230769231,156.64000007957222L147.14516923076923,156.64000007957222L147.55461538461537,156.64000007957222L147.90676923076924,156.64000007957222L148.37264615384618,156.64000007957222L148.76895384615386,156.64000007957222L149.15772307692308,156.64000007957222L149.50987692307692,156.64000007957222L149.89347692307692,156.64000007957222L150.3192923076923,156.64000007957222L150.68264615384615,156.64000007957222L151.04621538461538,156.64000007957222L151.39836923076922,156.64000007957222L151.75030769230767,156.64000007957222L152.11990769230772,156.64000007957222L152.4895076923077,156.64000007957222L152.94892307692308,156.64000007957222L153.32756923076926,156.64000007957222L153.67993846153848,156.64000007957222L154.12664615384614,156.64000007957222L154.50443076923077,156.64000007957222L154.86326153846153,156.64000007957222L155.2472923076923,156.64000007957222L155.60052307692305,156.64000007957222L155.9528923076923,156.64000007957222L156.38473846153843,156.64000007957222L156.7638153846154,156.64000007957222L157.14052307692307,156.64000007957222L157.61458461538462,156.64000007957222L157.97363076923077,156.64000007957222L158.3298769230769,156.64000007957222L158.6960307692308,156.64000007957222L159.08156923076922,156.64000007957222L159.45806153846155,156.64000007957222L159.83843076923077,156.64000007957222L160.2101846153846,156.64000007957222L160.57935384615385,156.64000007957222L160.94852307692307,156.64000007957222L161.30067692307694,156.64000007957222L161.68513846153846,156.64000007957222L162.0726153846154,156.64000007957222L162.4990769230769,156.64000007957222L162.8520923076923,156.64000007957222L163.2300923076923,156.64000007957222L163.60335384615385,156.64000007957222L163.9191076923077,156.64000007957222L164.2721230769231,156.64000007957222L164.6639076923077,156.64000007957222L165.02295384615383,156.64000007957222L165.42055384615387,156.64000007957222L165.79704615384617,156.64000007957222L166.22006153846155,156.64000007957222L166.59935384615383,156.64000007957222L166.97046153846154,156.64000007957222L167.32347692307692,156.64000007957222L167.6963076923077,156.64000007957222L168.0977846153846,156.64000007957222L168.48267692307692,156.64000007957222L168.8496923076923,156.64000007957222L169.20206153846152,156.64000007957222L169.6031076923077,156.64000007957222L169.98972307692307,156.64000007957222L170.39960000000002,156.64000007957222L170.7758769230769,156.64000007957222L171.15883076923075,156.64000007957222L171.70052307692308,156.64000007957222L172.0528923076923,156.64000007957222L172.4184,156.64000007957222L172.83236923076922,156.64000007957222L173.18473846153847,156.64000007957222L173.57760000000002,156.64000007957222L173.93061538461538,156.64000007957222L174.37689230769232,156.64000007957222L174.73292307692307,156.64000007957222L175.0967076923077,156.64000007957222L175.46221538461538,156.64000007957222L175.84172307692307,156.64000007957222L176.22726153846153,156.64000007957222L176.66492307692306,156.64000007957222L177.07135384615384,156.64000007957222L177.43513846153846,156.64000007957222L177.79181538461538,156.64000007957222L178.21806153846154,156.64000007957222L178.5941230769231,156.64000007957222L178.99344615384618,156.64000007957222L179.3888923076923,156.64000007957222L179.77679999999998,156.64000007957222L180.1741846153846,156.64000007957222L180.55713846153844,156.64000007957222L180.94504615384614,156.64000007957222L181.34006153846153,156.64000007957222L181.75855384615386,156.64000007957222L182.1249230769231,156.64000007957222L182.52036923076923,156.64000007957222L182.87252307692307,156.64000007957222L183.27033846153847,156.64000007957222L183.6436,156.64000007957222L183.99618461538464,156.64000007957222L184.4196307692308,156.64000007957222L184.84135384615385,156.64000007957222L185.1935076923077,156.64000007957222L185.61652307692307,156.64000007957222L185.96889230769233,156.64000007957222L186.32104615384614,156.64000007957222L186.84895384615385,156.64000007957222L187.23513846153847,156.64000007957222L187.6547076923077,156.64000007957222L188.00686153846152,156.64000007957222L188.3786153846154,156.64000007957222L188.7314153846154,156.64000007957222L189.15895384615385,156.64000007957222L189.55483076923076,156.64000007957222L189.9423076923077,156.64000007957222L190.36941538461537,156.64000007957222L190.72156923076923,156.64000007957222L191.0737230769231,156.64000007957222L191.48015384615385,156.64000007957222L191.89132307692307,156.64000007957222L192.2887076923077,156.64000007957222L192.7072,156.64000007957222L193.09532307692308,156.64000007957222L193.51876923076924,156.64000007957222L193.9168,156.64000007957222L194.28683076923076,156.64000007957222L194.67000000000002,156.64000007957222L195.0902153846154,156.64000007957222L195.51236923076922,156.64000007957222L195.91643076923077,156.64000007957222L196.2690153846154,156.64000007957222L196.64593846153846,156.64000007957222L196.99852307692308,156.64000007957222L197.37566153846154,156.64000007957222L197.73513846153847,156.64000007957222L198.2425846153846,156.64000007957222L198.6152,156.64000007957222L198.968,156.64000007957222L199.36603076923078,156.64000007957222L199.73843076923075,156.64000007957222L200.0905846153846,156.64000007957222L200.51273846153848,156.64000007957222L200.88556923076922,156.64000007957222L201.26981538461538,156.64000007957222L201.66569230769232,156.64000007957222L202.06544615384615,156.64000007957222L202.44107692307693,156.64000007957222L202.79387692307694,156.64000007957222L203.15033846153847,156.64000007957222L203.57723076923077,156.64000007957222L203.93606153846153,156.64000007957222L204.3190153846154,156.64000007957222L204.69076923076923,156.64000007957222L205.04313846153846,156.64000007957222L205.39529230769233,156.64000007957222L205.7692,156.64000007957222L206.12135384615385,156.64000007957222L206.47716923076925,156.64000007957222L206.84655384615382,156.64000007957222L207.20236923076925,156.64000007957222L207.6268923076923,156.64000007957222L208.01695384615385,156.64000007957222L208.3691076923077,156.64000007957222L208.79750769230768,156.64000007957222L209.17033846153845,156.64000007957222L209.7505846153846,156.64000007957222L210.0618153846154,156.64000007957222L210.46587692307693,156.64000007957222L210.85723076923077,156.64000007957222L211.2350153846154,156.64000007957222L211.6074153846154,156.64000007957222L211.97206153846153,156.64000007957222L212.3242153846154,156.64000007957222L212.68886153846154,156.64000007957222L213.0675076923077,156.64000007957222L213.43172307692308,156.64000007957222L213.79658461538463,156.64000007957222L214.14916923076925,156.64000007957222L214.50153846153847,156.64000007957222L214.86726153846155,156.64000007957222L215.26486153846153,156.64000007957222L215.69304615384615,156.64000007957222L216.04541538461538,156.64000007957222L216.44,156.64000007957222L216.81283076923077,156.64000007957222L217.18501538461538,156.64000007957222L217.5640923076923,156.64000007957222L217.95393846153846,156.64000007957222L218.33603076923077,156.64000007957222L218.72889230769232,156.64000007957222L219.0984923076923,156.64000007957222L219.50104615384615,156.64000007957222L219.86870769230768,156.64000007957222L220.2536,156.64000007957222L220.61867692307692,156.64000007957222L220.9708307692308,156.64000007957222L221.34344615384617,156.64000007957222L221.75116923076925,156.64000007957222L222.13455384615386,156.64000007957222L222.48670769230768,156.64000007957222L222.86944615384616,156.64000007957222L223.27652307692307,156.64000007957222L223.65904615384616,156.64000007957222L224.0443692307692,156.64000007957222L224.39652307692307,156.64000007957222L224.75987692307692,156.64000007957222L225.13873846153845,156.64000007957222L225.5776923076923,156.64000007957222L225.93006153846153,156.64000007957222L226.28630769230767,156.64000007957222L226.6386769230769,156.64000007957222L226.9975076923077,156.64000007957222L227.46295384615385,156.64000007957222L227.83276923076923,156.64000007957222L228.20215384615386,156.64000007957222L228.62796923076925,156.64000007957222L229.0621846153846,156.64000007957222L229.45246153846153,156.64000007957222L229.8356307692308,156.64000007957222L230.2228923076923,156.64000007957222L230.57547692307693,156.64000007957222L230.92763076923075,156.64000007957222L231.35344615384616,156.64000007957222L231.72476923076923,156.64000007957222L232.0769230769231,156.64000007957222L232.4488923076923,156.64000007957222L232.82624615384617,156.64000007957222L233.1982153846154,156.64000007957222L233.5704,156.64000007957222L233.92255384615385,156.64000007957222L234.3205846153846,156.64000007957222L234.7324,156.64000007957222L235.1412,156.64000007957222L235.5138153846154,156.64000007957222L235.9137846153846,156.64000007957222L236.28963076923077,156.64000007957222L236.6417846153846,156.64000007957222L237.03421538461538,156.64000007957222L237.40704615384615,156.64000007957222L237.8292,156.64000007957222L238.19858461538462,156.64000007957222L238.56193846153846,156.64000007957222L238.91775384615386,156.64000007957222L239.2862769230769,156.64000007957222L239.6494153846154,156.64000007957222L240.01492307692308,156.64000007957222L240.39206153846155,156.64000007957222L240.76812307692308,156.64000007957222L241.14547692307693,156.64000007957222L241.51615384615386,156.64000007957222L241.86766153846156,156.64000007957222L242.25384615384615,156.64000007957222L242.61676923076922,156.64000007957222L242.98356923076923,156.64000007957222L243.39904615384617,156.64000007957222L243.7621846153846,156.64000007957222L244.16366153846155,156.64000007957222L244.5802153846154,156.64000007957222L244.95132307692307,156.64000007957222L245.3026153846154,156.64000007957222L245.65455384615385,156.64000007957222L246.05689230769232,156.64000007957222L246.4394153846154,156.64000007957222L246.81547692307691,156.64000007957222L247.27467692307692,156.64000007957222L247.6544,156.64000007957222L248.0341230769231,156.64000007957222L248.42181538461537,156.64000007957222L248.77332307692308,156.64000007957222L249.12504615384617,156.64000007957222L249.48387692307693,156.64000007957222L249.8806153846154,156.64000007957222L250.27563076923076,156.64000007957222L250.66892307692308,156.64000007957222L251.1360923076923,156.64000007957222L251.48824615384615,156.64000007957222L251.88886153846155,156.64000007957222L252.2408,156.64000007957222L252.65692307692305,156.64000007957222L253.0118769230769,156.64000007957222L253.38858461538462,156.64000007957222L253.75215384615385,156.64000007957222L254.11593846153846,156.64000007957222L254.48166153846154,156.64000007957222L254.83403076923076,156.64000007957222L255.1864,156.64000007957222L255.55384615384617,156.64000007957222L255.9258153846154,156.64000007957222L256.2779692307692,156.64000007957222L256.6307692307692,156.64000007957222L257.0008,156.64000007957222L257.38827692307694,156.64000007957222L257.74,156.64000007957222L258.0958153846154,156.64000007957222L258.4542153846154,156.64000007957222L258.84535384615384,156.64000007957222L259.22076923076924,156.64000007957222L259.5841230769231,156.64000007957222L259.99033846153844,156.64000007957222L260.34895384615385,156.64000007957222L260.71187692307694,156.64000007957222L261.1364,156.64000007957222L261.51030769230766,156.64000007957222L261.86246153846156,156.64000007957222L262.2454153846154,156.64000007957222L262.6380615384615,156.64000007957222L262.9904307692308,156.64000007957222L263.36886153846154,156.64000007957222L263.79790769230766,156.64000007957222L264.1498461538461,156.64000007957222L264.52138461538465,156.64000007957222L264.88495384615385,156.64000007957222L265.2476615384615,156.64000007957222L265.6133846153846,156.64000007957222L266.0023692307692,156.64000007957222L266.3545230769231,156.64000007957222L266.7066769230769,156.64000007957222L267.07412307692306,156.64000007957222L267.42627692307695,156.64000007957222" style="fill: none;" fill="none"></path></g></g></g></g></g></g><g transform="translate(50, 178)" clip-path="url(#clip_1)"><clipPath id="clip_1"><rect width="280" height="22"></rect></clipPath><g><g><line x1="0" y1="0" x2="0" y2="5" style="visibility: inherit;" fill="rgb(0, 0, 0)" stroke="rgb(204, 204, 204)" stroke-width="1px"></line><line x1="21.53846153846154" y1="0" x2="21.53846153846154" y2="5" style="visibility: inherit;" fill="rgb(0, 0, 0)" stroke="rgb(204, 204, 204)" stroke-width="1px"></line><line x1="43.07692307692308" y1="0" x2="43.07692307692308" y2="5" style="visibility: inherit;" fill="rgb(0, 0, 0)" stroke="rgb(204, 204, 204)" stroke-width="1px"></line><line x1="64.61538461538461" y1="0" x2="64.61538461538461" y2="5" style="visibility: inherit;" fill="rgb(0, 0, 0)" stroke="rgb(204, 204, 204)" stroke-width="1px"></line><line x1="86.15384615384616" y1="0" x2="86.15384615384616" y2="5" style="visibility: inherit;" fill="rgb(0, 0, 0)" stroke="rgb(204, 204, 204)" stroke-width="1px"></line><line x1="107.6923076923077" y1="0" x2="107.6923076923077" y2="5" style="visibility: inherit;" fill="rgb(0, 0, 0)" stroke="rgb(204, 204, 204)" stroke-width="1px"></line><line x1="129.23076923076923" y1="0" x2="129.23076923076923" y2="5" style="visibility: inherit;" fill="rgb(0, 0, 0)" stroke="rgb(204, 204, 204)" stroke-width="1px"></line><line x1="150.76923076923077" y1="0" x2="150.76923076923077" y2="5" style="visibility: inherit;" fill="rgb(0, 0, 0)" stroke="rgb(204, 204, 204)" stroke-width="1px"></line><line x1="172.30769230769232" y1="0" x2="172.30769230769232" y2="5" style="visibility: inherit;" fill="rgb(0, 0, 0)" stroke="rgb(204, 204, 204)" stroke-width="1px"></line><line x1="193.84615384615384" y1="0" x2="193.84615384615384" y2="5" style="visibility: inherit;" fill="rgb(0, 0, 0)" stroke="rgb(204, 204, 204)" stroke-width="1px"></line><line x1="215.3846153846154" y1="0" x2="215.3846153846154" y2="5" style="visibility: inherit;" fill="rgb(0, 0, 0)" stroke="rgb(204, 204, 204)" stroke-width="1px"></line><line x1="236.92307692307693" y1="0" x2="236.92307692307693" y2="5" style="visibility: inherit;" fill="rgb(0, 0, 0)" stroke="rgb(204, 204, 204)" stroke-width="1px"></line><line x1="258.46153846153845" y1="0" x2="258.46153846153845" y2="5" style="visibility: inherit;" fill="rgb(0, 0, 0)" stroke="rgb(204, 204, 204)" stroke-width="1px"></line><line x1="280" y1="0" x2="280" y2="5" style="visibility: inherit;" fill="rgb(0, 0, 0)" stroke="rgb(204, 204, 204)" stroke-width="1px"></line></g><g transform="translate(0, 8)"><text x="0" y="0" dx="0em" dy="0.95em" style="text-anchor: middle; visibility: hidden; font-family: Roboto, sans-serif; font-size: 12px; font-weight: 200;" fill="rgb(50, 49, 63)" stroke="none" stroke-width="1px">-100k</text><text x="21.53846153846154" y="0" dx="0em" dy="0.95em" style="text-anchor: middle; visibility: inherit; font-family: Roboto, sans-serif; font-size: 12px; font-weight: 200;" fill="rgb(50, 49, 63)" stroke="none" stroke-width="1px">0</text><text x="43.07692307692308" y="0" dx="0em" dy="0.95em" style="text-anchor: middle; visibility: hidden; font-family: Roboto, sans-serif; font-size: 12px; font-weight: 200;" fill="rgb(50, 49, 63)" stroke="none" stroke-width="1px">100k</text><text x="64.61538461538461" y="0" dx="0em" dy="0.95em" style="text-anchor: middle; visibility: inherit; font-family: Roboto, sans-serif; font-size: 12px; font-weight: 200;" fill="rgb(50, 49, 63)" stroke="none" stroke-width="1px">200k</text><text x="86.15384615384616" y="0" dx="0em" dy="0.95em" style="text-anchor: middle; visibility: hidden; font-family: Roboto, sans-serif; font-size: 12px; font-weight: 200;" fill="rgb(50, 49, 63)" stroke="none" stroke-width="1px">300k</text><text x="107.6923076923077" y="0" dx="0em" dy="0.95em" style="text-anchor: middle; visibility: inherit; font-family: Roboto, sans-serif; font-size: 12px; font-weight: 200;" fill="rgb(50, 49, 63)" stroke="none" stroke-width="1px">400k</text><text x="129.23076923076923" y="0" dx="0em" dy="0.95em" style="text-anchor: middle; visibility: hidden; font-family: Roboto, sans-serif; font-size: 12px; font-weight: 200;" fill="rgb(50, 49, 63)" stroke="none" stroke-width="1px">500k</text><text x="150.76923076923077" y="0" dx="0em" dy="0.95em" style="text-anchor: middle; visibility: inherit; font-family: Roboto, sans-serif; font-size: 12px; font-weight: 200;" fill="rgb(50, 49, 63)" stroke="none" stroke-width="1px">600k</text><text x="172.30769230769232" y="0" dx="0em" dy="0.95em" style="text-anchor: middle; visibility: hidden; font-family: Roboto, sans-serif; font-size: 12px; font-weight: 200;" fill="rgb(50, 49, 63)" stroke="none" stroke-width="1px">700k</text><text x="193.84615384615384" y="0" dx="0em" dy="0.95em" style="text-anchor: middle; visibility: inherit; font-family: Roboto, sans-serif; font-size: 12px; font-weight: 200;" fill="rgb(50, 49, 63)" stroke="none" stroke-width="1px">800k</text><text x="215.3846153846154" y="0" dx="0em" dy="0.95em" style="text-anchor: middle; visibility: hidden; font-family: Roboto, sans-serif; font-size: 12px; font-weight: 200;" fill="rgb(50, 49, 63)" stroke="none" stroke-width="1px">900k</text><text x="236.92307692307693" y="0" dx="0em" dy="0.95em" style="text-anchor: middle; visibility: inherit; font-family: Roboto, sans-serif; font-size: 12px; font-weight: 200;" fill="rgb(50, 49, 63)" stroke="none" stroke-width="1px">1M</text><text x="258.46153846153845" y="0" dx="0em" dy="0.95em" style="text-anchor: middle; visibility: hidden; font-family: Roboto, sans-serif; font-size: 12px; font-weight: 200;" fill="rgb(50, 49, 63)" stroke="none" stroke-width="1px">1.1M</text><text x="280" y="0" dx="0em" dy="0.95em" style="text-anchor: middle; visibility: hidden; font-family: Roboto, sans-serif; font-size: 12px; font-weight: 200;" fill="rgb(50, 49, 63)" stroke="none" stroke-width="1px">1.2M</text></g><line x1="0" y1="0" x2="280" y2="0" fill="rgb(0, 0, 0)" stroke="rgb(204, 204, 204)" stroke-width="1px"></line></g></g></g></g></svg>