<svg viewBox="0 0 330 200" xmlns="http://www.w3.org/2000/svg"><g><g><g><g><g><line x1="41.171875" y1="178" x2="36.171875" y2="178" style="visibility: inherit;" fill="rgb(0, 0, 0)" stroke="rgb(204, 204, 204)" stroke-width="1px"></line><line x1="41.171875" y1="164.30769230769232" x2="36.171875" y2="164.30769230769232" style="visibility: inherit;" fill="rgb(0, 0, 0)" stroke="rgb(204, 204, 204)" stroke-width="1px"></line><line x1="41.171875" y1="150.6153846153846" x2="36.171875" y2="150.6153846153846" style="visibility: inherit;" fill="rgb(0, 0, 0)" stroke="rgb(204, 204, 204)" stroke-width="1px"></line><line x1="41.171875" y1="136.9230769230769" x2="36.171875" y2="136.9230769230769" style="visibility: inherit;" fill="rgb(0, 0, 0)" stroke="rgb(204, 204, 204)" stroke-width="1px"></line><line x1="41.171875" y1="123.23076923076923" x2="36.171875" y2="123.23076923076923" style="visibility: inherit;" fill="rgb(0, 0, 0)" stroke="rgb(204, 204, 204)" stroke-width="1px"></line><line x1="41.171875" y1="109.53846153846155" x2="36.171875" y2="109.53846153846155" style="visibility: inherit;" fill="rgb(0, 0, 0)" stroke="rgb(204, 204, 204)" stroke-width="1px"></line><line x1="41.171875" y1="95.84615384615384" x2="36.171875" y2="95.84615384615384" style="visibility: inherit;" fill="rgb(0, 0, 0)" stroke="rgb(204, 204, 204)" stroke-width="1px"></line><line x1="41.171875" y1="82.15384615384616" x2="36.171875" y2="82.15384615384616" style="visibility: inherit;" fill="rgb(0, 0, 0)" stroke="rgb(204, 204, 204)" stroke-width="1px"></line><line x1="41.171875" y1="68.46153846153845" x2="36.171875" y2="68.46153846153845" style="visibility: inherit;" fill="rgb(0, 0, 0)" stroke="rgb(204, 204, 204)" stroke-width="1px"></line><line x1="41.171875" y1="54.769230769230774" x2="36.171875" y2="54.769230769230774" style="visibility: inherit;" fill="rgb(0, 0, 0)" stroke="rgb(204, 204, 204)" stroke-width="1px"></line><line x1="41.171875" y1="41.076923076923066" x2="36.171875" y2="41.076923076923066" style="visibility: inherit;" fill="rgb(0, 0, 0)" stroke="rgb(204, 204, 204)" stroke-width="1px"></line><line x1="41.171875" y1="27.384615384615387" x2="36.171875" y2="27.384615384615387" style="visibility: inherit;" fill="rgb(0, 0, 0)" stroke="rgb(204, 204, 204)" stroke-width="1px"></line><line x1="41.171875" y1="13.692307692307683" x2="36.171875" y2="13.692307692307683" style="visibility: inherit;" fill="rgb(0, 0, 0)" stroke="rgb(204, 204, 204)" stroke-width="1px"></line><line x1="41.171875" y1="0" x2="36.171875" y2="0" style="visibility: inherit;" fill="rgb(0, 0, 0)" stroke="rgb(204, 204, 204)" stroke-width="1px"></line></g><g transform="translate(31.171875, 0)"><text x="0" y="178" dx="0em" dy="0.3em" style="text-anchor: end; visibility: hidden; font-family: Roboto, sans-serif; font-size: 12px; font-weight: 200;" fill="rgb(50, 49, 63)" stroke="none" stroke-width="1px">90</text><text x="0" y="164.30769230769232" dx="0em" dy="0.3em" style="text-anchor: end; visibility: inherit; font-family: Roboto, sans-serif; font-size: 12px; font-weight: 200;" fill="rgb(50, 49, 63)" stroke="none" stroke-width="1px">91</text><text x="0" y="150.6153846153846" dx="0em" dy="0.3em" style="text-anchor: end; visibility: hidden; font-family: Roboto, sans-serif; font-size: 12px; font-weight: 200;" fill="rgb(50, 49, 63)" stroke="none" stroke-width="1px">92</text><text x="0" y="136.9230769230769" dx="0em" dy="0.3em" style="text-anchor: end; visibility: inherit; font-family: Roboto, sans-serif; font-size: 12px; font-weight: 200;" fill="rgb(50, 49, 63)" stroke="none" stroke-width="1px">93</text><text x="0" y="123.23076923076923" dx="0em" dy="0.3em" style="text-anchor: end; visibility: hidden; font-family: Roboto, sans-serif; font-size: 12px; font-weight: 200;" fill="rgb(50, 49, 63)" stroke="none" stroke-width="1px">94</text><text x="0" y="109.53846153846155" dx="0em" dy="0.3em" style="text-anchor: end; visibility: inherit; font-family: Roboto, sans-serif; font-size: 12px; font-weight: 200;" fill="rgb(50, 49, 63)" stroke="none" stroke-width="1px">95</text><text x="0" y="95.84615384615384" dx="0em" dy="0.3em" style="text-anchor: end; visibility: hidden; font-family: Roboto, sans-serif; font-size: 12px; font-weight: 200;" fill="rgb(50, 49, 63)" stroke="none" stroke-width="1px">96</text><text x="0" y="82.15384615384616" dx="0em" dy="0.3em" style="text-anchor: end; visibility: inherit; font-family: Roboto, sans-serif; font-size: 12px; font-weight: 200;" fill="rgb(50, 49, 63)" stroke="none" stroke-width="1px">97</text><text x="0" y="68.46153846153845" dx="0em" dy="0.3em" style="text-anchor: end; visibility: hidden; font-family: Roboto, sans-serif; font-size: 12px; font-weight: 200;" fill="rgb(50, 49, 63)" stroke="none" stroke-width="1px">98</text><text x="0" y="54.769230769230774" dx="0em" dy="0.3em" style="text-anchor: end; visibility: inherit; font-family: Roboto, sans-serif; font-size: 12px; font-weight: 200;" fill="rgb(50, 49, 63)" stroke="none" stroke-width="1px">99</text><text x="0" y="41.076923076923066" dx="0em" dy="0.3em" style="text-anchor: end; visibility: hidden; font-family: Roboto, sans-serif; font-size: 12px; font-weight: 200;" fill="rgb(50, 49, 63)" stroke="none" stroke-width="1px">100</text><text x="0" y="27.384615384615387" dx="0em" dy="0.3em" style="text-anchor: end; visibility: inherit; font-family: Roboto, sans-serif; font-size: 12px; font-weight: 200;" fill="rgb(50, 49, 63)" stroke="none" stroke-width="1px">101</text><text x="0" y="13.692307692307683" dx="0em" dy="0.3em" style="text-anchor: end; visibility: hidden; font-family: Roboto, sans-serif; font-size: 12px; font-weight: 200;" fill="rgb(50, 49, 63)" stroke="none" stroke-width="1px">102</text><text x="0" y="0" dx="0em" dy="0.3em" style="text-anchor: end; visibility: hidden; font-family: Roboto, sans-serif; font-size: 12px; font-weight: 200;" fill="rgb(50, 49, 63)" stroke="none" stroke-width="1px">103</text></g><line x1="41.171875" y1="0" x2="41.171875" y2="178" fill="rgb(0, 0, 0)" stroke="rgb(204, 204, 204)" stroke-width="1px"></line></g></g><g transform="translate(41, 0)" clip-path="url(#clip_0)"><clipPath id="clip_0"><rect width="288" height="178"></rect></clipPath><g><g><g><line x1="0" y1="0" x2="0" y2="178" fill="rgb(0, 0, 0)" stroke="rgb(60, 60, 60)" stroke-width="1px" opacity="0.25"></line><line x1="22.217548076923077" y1="0" x2="22.217548076923077" y2="178" fill="rgb(0, 0, 0)" stroke="rgb(60, 60, 60)" stroke-width="1px" opacity="0.25"></line><line x1="44.43509615384615" y1="0" x2="44.43509615384615" y2="178" fill="rgb(0, 0, 0)" stroke="rgb(60, 60, 60)" stroke-width="1px" opacity="0.25"></line><line x1="66.65264423076924" y1="0" x2="66.65264423076924" y2="178" fill="rgb(0, 0, 0)" stroke="rgb(60, 60, 60)" stroke-width="1px" opacity="0.25"></line><line x1="88.8701923076923" y1="0" x2="88.8701923076923" y2="178" fill="rgb(0, 0, 0)" stroke="rgb(60, 60, 60)" stroke-width="1px" opacity="0.25"></line><line x1="111.08774038461539" y1="0" x2="111.08774038461539" y2="178" fill="rgb(0, 0, 0)" stroke="rgb(60, 60, 60)" stroke-width="1px" opacity="0.25"></line><line x1="133.30528846153848" y1="0" x2="133.30528846153848" y2="178" fill="rgb(0, 0, 0)" stroke="rgb(60, 60, 60)" stroke-width="1px" opacity="0.25"></line><line x1="155.52283653846152" y1="0" x2="155.52283653846152" y2="178" fill="rgb(0, 0, 0)" stroke="rgb(60, 60, 60)" stroke-width="1px" opacity="0.25"></line><line x1="177.7403846153846" y1="0" x2="177.7403846153846" y2="178" fill="rgb(0, 0, 0)" stroke="rgb(60, 60, 60)" stroke-width="1px" opacity="0.25"></line><line x1="199.95793269230768" y1="0" x2="199.95793269230768" y2="178" fill="rgb(0, 0, 0)" stroke="rgb(60, 60, 60)" stroke-width="1px" opacity="0.25"></line><line x1="222.17548076923077" y1="0" x2="222.17548076923077" y2="178" fill="rgb(0, 0, 0)" stroke="rgb(60, 60, 60)" stroke-width="1px" opacity="0.25"></line><line x1="244.39302884615384" y1="0" x2="244.39302884615384" y2="178" fill="rgb(0, 0, 0)" stroke="rgb(60, 60, 60)" stroke-width="1px" opacity="0.25"></line><line x1="266.61057692307696" y1="0" x2="266.61057692307696" y2="178" fill="rgb(0, 0, 0)" stroke="rgb(60, 60, 60)" stroke-width="1px" opacity="0.25"></line><line x1="288.828125" y1="0" x2="288.828125" y2="178" fill="rgb(0, 0, 0)" stroke="rgb(60, 60, 60)" stroke-width="1px" opacity="0.25"></line></g><g><line x1="0" y1="178" x2="288.828125" y2="178" fill="rgb(0, 0, 0)" stroke="rgb(60, 60, 60)" stroke-width="1px" opacity="0.25"></line><line x1="0" y1="164.30769230769232" x2="288.828125" y2="164.30769230769232" fill="rgb(0, 0, 0)" stroke="rgb(60, 60, 60)" stroke-width="1px" opacity="0.25"></line><line x1="0" y1="150.6153846153846" x2="288.828125" y2="150.6153846153846" fill="rgb(0, 0, 0)" stroke="rgb(60, 60, 60)" stroke-width="1px" opacity="0.25"></line><line x1="0" y1="136.9230769230769" x2="288.828125" y2="136.9230769230769" fill="rgb(0, 0, 0)" stroke="rgb(60, 60, 60)" stroke-width="1px" opacity="0.25"></line><line x1="0" y1="123.23076923076923" x2="288.828125" y2="123.23076923076923" fill="rgb(0, 0, 0)" stroke="rgb(60, 60, 60)" stroke-width="1px" opacity="0.25"></line><line x1="0" y1="109.53846153846155" x2="288.828125" y2="109.53846153846155" fill="rgb(0, 0, 0)" stroke="rgb(60, 60, 60)" stroke-width="1px" opacity="0.25"></line><line x1="0" y1="95.84615384615384" x2="288.828125" y2="95.84615384615384" fill="rgb(0, 0, 0)" stroke="rgb(60, 60, 60)" stroke-width="1px" opacity="0.25"></line><line x1="0" y1="82.15384615384616" x2="288.828125" y2="82.15384615384616" fill="rgb(0, 0, 0)" stroke="rgb(60, 60, 60)" stroke-width="1px" opacity="0.25"></line><line x1="0" y1="68.46153846153845" x2="288.828125" y2="68.46153846153845" fill="rgb(0, 0, 0)" stroke="rgb(60, 60, 60)" stroke-width="1px" opacity="0.25"></line><line x1="0" y1="54.769230769230774" x2="288.828125" y2="54.769230769230774" fill="rgb(0, 0, 0)" stroke="rgb(60, 60, 60)" stroke-width="1px" opacity="0.25"></line><line x1="0" y1="41.076923076923066" x2="288.828125" y2="41.076923076923066" fill="rgb(0, 0, 0)" stroke="rgb(60, 60, 60)" stroke-width="1px" opacity="0.25"></line><line x1="0" y1="27.384615384615387" x2="288.828125" y2="27.384615384615387" fill="rgb(0, 0, 0)" stroke="rgb(60, 60, 60)" stroke-width="1px" opacity="0.25"></line><line x1="0" y1="13.692307692307683" x2="288.828125" y2="13.692307692307683" fill="rgb(0, 0, 0)" stroke="rgb(60, 60, 60)" stroke-width="1px" opacity="0.25"></line><line x1="0" y1="0" x2="288.828125" y2="0" fill="rgb(0, 0, 0)" stroke="rgb(60, 60, 60)" stroke-width="1px" opacity="0.25"></line></g></g></g><g><g><line x1="0" y1="1410.3076923076924" x2="288.828125" y2="1410.3076923076924" fill="rgb(0, 0, 0)" stroke="rgb(153, 153, 153)" stroke-width="1.5px"></line></g></g><g><g><line x1="22.217548076923077" y1="0" x2="22.217548076923077" y2="178" fill="rgb(0, 0, 0)" stroke="rgb(153, 153, 153)" stroke-width="1.5px"></line></g></g><g><g><g><g><g><path stroke="rgb(255, 112, 67)" stroke-width="2px" d="M26.61240126201923,-4.145352785461455L26.781698978365384,7.563634489180263L26.970548137019232,12.121176139668394L27.19316796875,21.05915691456903L27.385349759615387,24.398360932609364L27.57219933894231,25.523751239191764L27.741497055288463,24.104186001841644L27.941677163461538,25.667740926659523L28.117195793269232,25.76092619715141L28.286493509615386,24.074418927178844L28.479564002403848,26.68946418439819L28.70995997596154,31.267932555913173L28.911695312499997,31.895145831527458L29.100988822115387,34.88988534238152L29.314943810096153,30.950442555976306L29.50157121394231,34.08108287356888L29.748185997596156,33.47836304297732L29.96836189903846,42.92895276923167L30.18875997596154,48.67953494808891L30.392494891826924,47.562341328687836L30.568013521634615,45.89982591967737L30.796854266826923,47.72664763727082L31.041025120192305,46.64399733355236L31.25409140625,47.74823264761821L31.45382716346154,45.042352486426864L31.689110997596156,49.04416994312754L31.884181069711538,47.241962640388465L32.09991346153846,50.35511927225372L32.336530348557694,50.601104916721L32.52582385817308,56.66833788622958L32.75844158653846,54.216294385872686L32.94106983173077,61.5344199984319L33.13302944711538,64.47224266913625L33.34765096153846,63.96393031827811L33.580268689903846,60.379524901451475L33.81155336538461,62.37012780144826L34.12415426682692,63.08993040307473L34.34144188701923,65.18044984716349L34.56783870192307,67.65306267046776L34.82400703125,66.82747415201027L35.05373647836538,68.19784839219787L35.288798137019235,68.62983715280657L35.536968149038465,69.38669698819828L35.783582932692305,72.94331063582774L36.064857091346155,78.79072393032484L36.339021634615385,78.7043561392945L36.60074435096154,78.8745423945143L36.88601766826923,87.68414785633016L37.22305787259615,85.5362934388582L37.523883473557696,85.01000097317058L37.81315594951923,83.554188778764L38.079100000000004,86.04059854745671L38.39192307692308,83.24595148875048L38.630983894230766,82.83046179995128L38.92536640625,85.51748437414145L39.24085558894231,85.70907085285018L39.61610997596154,88.6155937849974L39.945151862980765,89.342320513787L40.33284807692308,91.48412859883695L40.7132125,91.06072533763759L41.06824891826923,99.13104485928329L41.3941803485577,106.42366992188005L41.88229987980769,107.65053233173387L42.36286544471154,110.30310485577104L42.74278551682692,113.53235166421373L43.21090925480769,117.23730556733838L43.5495046875,127.3995014481255L43.94342181490385,124.4856692620543L44.39777067307693,123.63308622144518L44.64460763221154,126.33196636628051L44.865894411057695,128.32230885747853L45.278696454326926,125.43305769654839L45.65239561298077,121.44237386822962L46.03875877403846,125.5505979424822L46.37690985576923,128.58615663583183L46.726614062500005,125.17697849922763L47.072096935096155,121.97321637763162L47.518891826923074,122.3311578914828L48.01634272836539,124.2790226345291L48.494020012019234,123.06633795346394L48.86660829326923,127.78050852628508L49.30407181490384,125.31957981153437L49.72065084134615,126.56848879737734L50.02503125,134.95624314320992L50.486934074519226,136.26554745593788L50.92062061298077,140.85011028696408L51.455841346153846,146.1424575296004L51.92107680288461,142.20741806493567L52.598489843749995,136.66947647372695L53.07661147836538,135.48939387326877L53.56117620192308,131.11494980052368L54.113948798076926,128.56069210462314L54.800693209134614,128.75338162770774L55.674509375,126.19801755835533L56.53632806490385,130.34922951788585L57.1786373798077,129.62112781740217L57.796285216346156,131.2900942460303L58.33328335336538,131.41932491450518L59.18954765625,130.15466783406973L60.009375180288465,130.27546061255117L60.6827890625,129.15082042552345L61.39286189903846,129.33711231616135L62.100268629807694,128.96605476199247L62.815229326923074,132.65919124436496L63.4635373798077,131.99579409983414L64.14917091346153,129.33669483429952L64.86679771634616,131.02378720181173L65.48866688701924,133.09330204990314L66.06032439903846,134.63444661831318L66.72285168269231,139.40633419319335L67.46713954326923,137.08972289797748L68.05190540865384,135.37374481525876L68.54957848557693,135.25362170135486L69.11968076923077,133.80329137267574L69.77287668269231,133.3866759391403L70.34897770432693,134.32538184052729L70.9801782451923,129.49776065479716L71.59071646634615,132.65237061688666L72.28234873798077,129.30785397319687L72.98553413461538,129.9213522577162L73.45943443509614,131.34992814774864L73.99754344951924,128.59082189766343L74.40901243990385,125.70176345861009L74.83869981971154,130.76939557140997L75.26749849759616,140.95832219485922L75.68652145432692,142.86466147346607L76.26084507211539,138.10052342779954L76.72141484375,136.25655335205238L77.20531304086538,130.32522905525184L77.66210582932692,136.33274776593373L78.15200276442307,135.4213630901491L78.61279471153846,134.41601881938385L79.13801754807693,134.96095537967102L79.55592962740384,131.7643460080009L79.98628353365385,137.04065012282928L80.43685540865384,135.65343107054244L80.84832439903846,134.48865335010782L81.31178245192308,135.93501799413906L81.7023669471154,134.771972710546L82.1289438701923,136.5332702962495L82.62528389423078,132.63970798979898L83.00742572115385,134.46608562996704L83.54309080528847,135.9924293226917L83.96789032451923,135.75553778442026L84.45734290865384,132.35316444874707L84.8352634014423,133.17944486816654L85.24562151442306,135.40158547183145L85.65420222355769,132.97997340599548L86.11610504807693,133.88597082244345L86.51735396634615,133.8043730208098L86.88127740384616,134.2255442038622L87.28052674278845,132.21192094839913L87.70932542067308,133.06774705146137L88.08080282451922,131.02667963111722L88.52426508413461,136.7882583796319L88.90618473557693,134.6474385764572L89.31032193509616,134.70426467832627L89.76111598557692,133.04905182081785L90.12837205528847,136.13432470351827L90.56827950721154,136.70793528560247L90.97841544471153,137.7511748394803L91.38899573317308,142.24926541300317L91.77846935096154,142.97604803611318L92.17216430288462,139.87400491091074L92.56719230769231,138.5304609205549L92.93822536057692,138.51383178445434L93.31636802884616,140.09032844266795L93.69850985576923,141.3729348585697L94.1326407451923,137.52660984843507L94.54655366586537,137.93441965380254L94.93802686298078,146.8541736146974L95.32683395432691,146.16132008678727L95.69720048076923,143.3843868913151L96.10755859375,142.74013577811846L96.54102295673077,145.59710928012225L96.91649951923077,143.77694138688346L97.29375348557691,143.68702664853635L97.69877938701923,143.02050080733082L98.08003251201923,140.47531224070863L98.45084338942308,144.1862756482112L98.85164795673077,143.40111428465997L99.30621899038462,143.90324603849433L99.78678455528846,144.98959307456886L100.19692049278846,146.10655867301654L100.59461460336539,144.35450996718131L101.12583617788461,143.11278016149853L101.50797800480768,151.9395294813643L101.88923112980768,148.69389065306132L102.28292608173078,145.81844902525026L102.65862481971153,143.6566498125359L103.04121099759615,147.1352055200336L103.47289795673076,147.6506151239192L103.89014350961538,148.58768963099214L104.28072800480768,144.73210925260372L104.67553383413461,149.23879886736756L105.07056183894231,160.0275754442185L105.4475936298077,153.41542785367045L105.86950486778846,148.51414741232253L106.24675883413462,147.1482368886497L106.65667259615385,148.2109232404616L107.08369387019232,144.4939733778708L107.51471430288461,146.0008156485675L107.92240631009616,150.1229977462619L108.30810294471155,149.25500451464424L108.69224435096154,147.23573492408093L109.10771249999999,148.1495562827238L109.47830120192307,145.08084517287952L109.86777481971153,147.6187919031569L110.23147608173078,148.72102959276538L110.61295138221155,149.8258428533154L111.11240186298078,150.92936003515638L111.48299056490386,151.49093417388838L111.89512608173077,149.0198440830589L112.26615913461538,148.47348012396404L112.63719218749999,148.34334945508763L113.03310889423076,148.26573069543838L113.47523810096153,149.4578101870947L113.92603215144231,149.93224742911377L114.40415378605769,149.84142431008237L114.82562067307693,153.07420413908437L115.19665372596154,150.94817426379916L115.56102151442309,152.93751652492614L115.93649807692307,150.2664128784472L116.30064368990385,151.10946226658155L116.69122818509615,154.40924472398137L117.08225703125001,149.98371493459933L117.54060504807691,149.52377106562744L117.94829705528845,147.06408892393168L118.36198780048078,158.08861110676293L118.74101917067307,157.16348770897972L119.10538695913462,151.44956263365108L119.46975474759614,150.06882768686143L119.90077518028846,149.43147229946663L120.26492079326924,152.70166432919928L120.66550318509616,156.56260109902206L121.0298709735577,154.2643189414146L121.40090402644232,153.02349286349659L121.8125951923077,152.58223536653537L122.19718094951924,149.763043142998L122.60909429086539,149.45367033066066L123.00367794471154,148.70231131047564L123.4329209735577,149.6963586162132L123.81128581730769,148.91457232492607L124.1938719951923,149.58582976439658L124.57934645432691,149.70485995674488L125.00570120192307,149.76144418167917L125.41028275240384,149.7035081669102L125.99082728365386,151.38776464323496L126.35497289663462,153.58131084799015L126.71934068509616,160.25063446552483L127.09792770432692,159.15923171597368L127.46229549278846,156.8445821861346L127.84043816105769,156.6045205894752L128.22569044471155,157.79340270825247L128.6109427283654,155.27937883949483L129.16260444711537,152.69348085688208L129.52652788461538,151.24043074294542L129.94355126201924,152.40982757512438L130.38257001201924,150.34325278380655L130.77093275240384,149.26251107157597L131.15218587740384,150.83254748955L131.5165536658654,155.03660453414466L131.92402349759615,164.40239297138822L132.28772475961537,162.88609614566343L132.7049703125,157.19520890058917L133.09533263221152,159.20616154828616L133.50235811298077,154.35841654285406L133.90982794471154,151.92127832865714L134.27375138221154,150.51126919446006L134.65811496394232,151.90589153094902L135.02248275240385,151.09923701066677L135.4061798076923,148.53348535919454L135.79631995192307,148.36610655881609L136.19445841346155,150.4028041471286L136.57415631009616,150.6797576272495L136.98029308894232,150.97199689155389L137.35065961538461,151.3161125166933L137.73613407451924,149.9842029855268L138.10361231971154,152.16228176352158L138.4713127403846,149.95742483485583L138.87722734375,146.05337194944107L139.27025576923077,147.40716965403965L139.68283563701922,153.06503261799475L140.06697704326922,149.18587907725714L140.4780016826923,151.61563652087366L140.84192512019231,148.17191393250624L141.25694891826922,149.37147627792328L141.64620036057693,149.3715401763091L142.01056814903848,146.8475189262483L142.37471376201924,150.01397165472727L142.80417896634614,147.4353872934674L143.2183140625,149.25728480997458L143.58623665865383,147.35284923258916L143.99281778846154,150.3828985982974L144.39073407451923,150.97314172808902L144.83197457932692,152.2924515557837L145.21411640625,160.81604616634266L145.6033678485577,165.4926658420833L145.9744009014423,161.92090045552047L146.35654272836538,159.6697000727414L146.7209105168269,158.24171825578418L147.11838245192308,151.1982775542819L147.4949698918269,145.93233651829635L147.8697799278846,145.613399244211L148.23703599759617,149.7801085444233L148.6136234375,151.0231394956443L148.97732469951922,148.86703123344444L149.35413431490386,150.67068260725412L149.7444966346154,151.62843589397983L150.17773882211537,150.20051265192268L150.60187181490386,149.09154078301057L150.9769040264423,144.96589154838207L151.37659771634617,149.1030325251831L151.78451189903845,146.8970555803141L152.20686748798076,153.08510083616923L152.57012439903846,152.69094603730844L153.05068996394232,159.36320184338865L153.4594928485577,156.21106263247552L153.86051959134616,137.81901898348156L154.22377650240387,126.50474851073187L154.61947103365384,115.5124288089633L155.05871195913463,103.91814125472888L155.4335219951923,98.15484030046349L155.80855420673075,94.62837311807846L156.17181111778845,93.45701466862349L156.53484585336537,92.38565054546487L156.9160989783654,89.579967269136L157.2973521033654,86.08995658594091L157.77125240384615,85.38009840694323L158.16183689903846,86.64741986522972L158.52531598557695,86.80488821721468L158.9861079326923,88.74549912999828L159.37580372596153,91.9821392841888L159.74594807692307,90.06785506615631L160.14208695913462,88.15740756343183L160.50645474759614,84.16056673983195L160.8699338341346,82.6906877189293L161.31539567307692,82.46015613346077L161.70642451923078,85.60200732941524L162.09500943509616,84.9786862749028L162.5840176682692,83.13806062311468L162.95438419471154,84.92123781617661L163.32186243990384,85.29077557356999L163.69956075721154,83.63390090979689L164.09725486778845,87.08208755985063L164.48561760817307,85.46797436583836L164.87797950721153,86.77473274901027L165.26145438701923,93.1390048762691L165.64226316105768,94.27447254339961L166.02307193509614,92.50674050470559L166.38632884615384,88.74700178479446L166.7829120793269,89.42521851754142L167.18260576923078,87.9421437682773L167.62251322115384,85.24256428079818L167.9866588341346,83.65779114134537L168.3765768028846,87.91149174835883L168.7616069110577,88.46619295691798L169.0873161658654,86.15473690170492L169.45146177884615,86.28468080162995L169.85559897836538,85.11087571355009L170.22596550480768,88.21672966115278L170.6361014423077,87.29255704624109L171.02446418269233,86.71958423901285L171.4608168269231,86.61978671378023L171.85206784855768,87.3949517683522L172.2348762019231,91.03241408234553L172.59902181490386,88.44590014712375L172.98360757211537,86.9496502144761L173.39774266826922,83.66289174752595L173.79477025240382,85.19802801726559L174.17335727163461,84.30298194332224L174.53683635817308,84.88058536491164L174.95052710336537,82.8180818191573L175.34933209134616,84.74780334329722L175.77213203125,89.05058818085826L176.16027259615385,88.01960086148978L176.55530060096152,87.16508693290959L177.11407193509615,89.63649769760647L177.4775510216346,86.9280388491828L177.85458281249998,87.54806241708175L178.28160408653847,86.08105020941369L178.64508317307693,98.39673756630327L179.05033125,97.98293859221585L179.4144768629808,94.80030674382118L179.87482445913463,91.22770226293926L180.24208052884615,92.59417234559405L180.61733491586537,89.6157845071161L180.99436670673077,85.83628870682386L181.38583990384618,84.21447135360157L181.78353401442308,79.68287686639772L182.23499459134615,77.88813422906327L182.65423972355768,77.0794268865967L183.0294941105769,75.90674567522726L183.39741670673078,74.79088015002824L183.83710198317306,75.29353068166358L184.22502037259616,80.26086008943679L184.6369337139423,78.90767243512235L185.0448478966346,79.03957134719121L185.44498593749998,85.20950612336893L185.85489969951922,84.90451977979043L186.24992770432692,82.09622185885985L186.6500657451923,79.68392283136154L187.05753557692307,79.67296544010307L187.4892225360577,80.97753978088863L187.86714302884616,83.7345707435332L188.27505721153844,81.17792834981574L188.63831412259614,81.21984529489546L189.04867223557693,79.47859249845163L189.43370234374999,82.2123461165591L189.79740360576923,79.91000091287421L190.23420060096154,78.7976513139505L190.6692201923077,80.77430940690988L191.03247710336538,85.83036182353305L191.46882974759617,85.65485865812224L191.83230883413464,81.06629541572667L192.19556574519228,90.79447648696603L192.7401178485577,90.95125864608593L193.1384784855769,86.70580908638962L193.57127632211538,88.48589859411138L193.93453323317306,95.24147483480223L194.31800811298078,118.05380025920476L194.68193155048078,142.87342442385227L195.1229498798077,148.23636732333176L195.53130841346152,138.139567257731L195.9310021033654,129.01897829784772L196.37157608173075,127.02999847585409L196.73483299278845,120.48195219173238L197.09808990384616,116.64045633982909L197.5173350360577,113.50055704458259L197.94146802884615,116.83254764321595L198.3513817908654,119.96421552252804L198.78306874999998,123.52412586174393L199.18342896634616,118.72491487627113L199.62022596153847,117.47536124171825L200.03080624999998,112.10823591945996L200.41250372596153,110.85547781594866L200.80775390625,107.43276159942496L201.24121826923079,108.02349222107327L201.67668221153846,102.82399664349128L202.09348341346154,96.46984260373284L202.45718467548076,92.17096571473371L202.84599176682693,89.0505995422717L203.20969302884615,90.64403629537497L203.59872229567307,88.11847978879356L203.9695331730769,87.5052971393518L204.49297860576922,86.62459458093679L204.8773421875,89.3428729219394L205.241265625,92.6658645096239L205.65184591346156,85.63706049138139L206.03598731971152,83.17636142628925L206.39924423076923,82.53749269336376L206.83470817307693,82.37822587818772L207.21929393028847,81.49304317414814L207.61565498798078,80.3942760810215L208.02401352163463,78.45946838674382L208.4363712139423,80.37212409094053L208.82384525240386,78.67959159323618L209.18776868990386,78.10520274740807L209.55546911057692,76.83610467128136L209.99582091346153,80.77907838645257L210.36596526442307,80.03684916904098L210.7609932692308,77.10033732218781L211.14446814903846,75.79330833156399L211.50794723557692,80.59883515293473L211.87120414663462,87.7024557642367L212.25690078125,82.71897759015246L212.62015769230769,82.42489804748072L212.98719158653847,82.79220642539335L213.3682225360577,96.61936400697871L213.73525643028847,119.10433747344803L214.1731643028846,137.6247625651986L214.5755240985577,138.98283624254464L214.93878100961538,127.2009495858212L215.38068804086538,123.31362442021273L215.76527379807692,120.6302720078969L216.36381454326923,116.43665648148084L216.68485811298075,115.79712056031275L217.10165931490386,114.04680073162038L217.50535216346154,111.67108581006607L217.89504795673076,111.08650862621391L218.2791893629808,115.61193372140144L218.65533245192307,119.08873146556323L219.01858936298078,110.74411975749283L219.3947324519231,104.84585680792114L219.78531694711538,102.66919339665176L220.16101568509615,102.62186140307512L220.53738094951925,102.63365996083544L220.90108221153847,99.1525184111467L221.26456129807693,92.72886925732496L221.6418152644231,91.82934003396232L222.0519512019231,94.04195685992076L222.4936360576923,94.1390244014093L222.85711514423076,92.23288175698133L223.264140625,90.25987722876829L223.64872638221155,91.4155252893342L224.03264561298076,86.44520938558964L224.42367445913462,83.81243108883575L224.8258120793269,79.91667148758623L225.21995138221155,84.73997340787616L225.62519945913462,82.89120459761025L226.00645258413462,78.91900244982207L226.4216985576923,77.24311148717072L226.80095210336538,78.38151283205613L227.1979796875,79.57651089559795L227.57456712740384,77.94327826963035L227.93782403846154,76.33613673341279L228.32218762019232,76.50741746673032L228.74276580528846,78.03302760969572L229.1382381610577,79.39048541722977L229.50149507211538,77.63719276776587L229.89630090144232,75.82818733659116L230.31621256009615,73.64298690240534L230.71079621394233,77.44504601013318L231.10826814903845,79.65578915580963L231.47152506009616,77.17402018068529L231.84633509615384,92.76114851165644L232.2371417668269,99.95319320104431L232.6899353966346,100.70828630073481L233.05341448317307,98.38230679771848L233.42089272836537,97.62503602800012L233.78437181490384,94.11296999044797L234.1545161658654,99.28566060003794L234.6346373798077,91.4990265057559L235.01611268028847,83.65309491487184L235.3971436298077,81.12979499354435L235.83638455528848,85.6675409271663L236.28429032451922,82.39913530224325L236.68687229567308,78.71138529042051L237.08212247596154,75.73957437587495L237.4815939903846,74.67549276630012L237.84529525240384,77.11760410328961L238.20855216346152,75.90533278198578L238.6477930889423,84.23830136315198L239.03082361778846,81.76414170656312L239.39408052884616,82.95655725200282L239.7777775841346,80.99806201796855L240.16702902644232,78.57127702072714L240.55072608173077,75.3709912161923L240.9346453125,77.6637281995171L241.29790222355768,77.22863289702397L241.70848251201923,75.12198902682607L242.13328203125002,74.20611859638421L242.55497109375,75.50807479740376L242.93933467548078,77.13315063640499L243.3519145432692,74.56297988755205L243.73961075721152,75.0822450013413L244.10286766826923,74.98075334470491L244.50767139423075,77.94517808104172L244.8922571514423,76.84655959802419L245.32772109375,79.1566319539767L245.70875204326924,76.04115371415281L246.08356207932692,75.24788793537257L246.4505959735577,78.21560569541819L246.83073822115384,75.34950971382528L247.20532608173076,73.34399678757995L247.58235787259616,72.61416174442303L247.9713871394231,72.89848314941841L248.35930552884616,74.29443891684454L248.74855697115385,75.91858464292528L249.1309209735577,73.8887705085616L249.4935113581731,73.00800830498673L249.8918719951923,75.69637414990908L250.26623768028844,75.70332206731928L250.64460252403845,73.92136504778338L251.07317902644232,76.19186368762422L251.4477668870192,77.67655291434735L251.86190198317308,81.23324638953386L252.29158936298077,80.96764042311324L252.67439771634614,78.92825881441482L253.03676592548078,77.18920438720664L253.3998006610577,79.16202398448749L253.81482445913463,77.51933728732712L254.20940811298078,75.02355164748639L254.59732650240383,72.05397332998822L255.07100462740385,72.22578703660486L255.4627,72.81918757277413L255.85439537259617,71.56171846689156L256.25431123798074,69.32046332172152L256.6169016225962,72.70993593323712L256.9797141826923,74.93073544816335L257.34985853365384,77.04886813939072L257.75910576923076,75.42638697062358L258.16657560096155,72.43014060710382L258.57226802884617,76.6999972060591L259.0541666466346,75.60496020013787L259.4174235576923,74.16888714021493L259.8306699519231,73.29688047373224L260.1937046875,75.87596529220204L260.6229477163461,74.41648212003281L260.98909290865384,73.57484748641286L261.37767782451925,71.63883502429968L261.7527100360577,71.35848599805334L262.1279644230769,72.1837293880449L262.5052183894231,73.14653993526088L262.86869747596154,72.39001183300152L263.2321765625,72.38023418814225L263.6112079326923,72.96099573749473L263.99490498798076,74.02795617897524L264.35816189903846,73.19163802153778L264.72208533653844,71.28309288278433L265.1037828125,71.47130273237488L265.5034765024038,77.4510532177002L265.8662890625,75.23667948170188L266.2333229567308,71.82483380455588L266.6030229567308,72.15795992816629L267.00649362980766,70.8089685087327L267.39374549278847,72.30120846025758L267.76855552884615,72.56324977191784L268.1875784855769,70.72044826684666L268.5575006610577,70.46848909983143L268.93186634615387,72.19866876789169L269.36977421874997,73.48740663934083L269.75547085336535,72.61220716719825L270.11872776442306,72.46583222549918L270.5137557692308,71.56945576558795L270.91878167067307,77.46109766307873L271.28226075721153,77.18293723742062L271.67262307692306,75.12812547346184L272.11519663461536,77.98253934657717L272.4782313701923,78.90172077967091L272.86148407451924,77.51638318520023L273.2365162860577,75.47832872797704L273.6106597956731,74.15867880229095L273.9879137620192,72.29337481818331L274.38916268028845,72.93767039872242L274.75241959134615,76.86223508929345L275.11567650240386,75.79903661021675L275.49470787259617,73.49002752878027L275.85796478365387,74.69909041675731" style="fill: none;" fill="none"></path></g></g></g></g><g opacity="0.2"><g><g><g><path stroke="rgb(255, 112, 67)" stroke-width="2px" d="M24.501956370192307,-1900.4587120643027L24.768344771634617,95.00218904935397L24.951417367788462,115.29035480205829L25.162039723557694,92.27682729867789L25.348667127403846,28.358637883112976L25.56439951923077,10.97175128643329L25.770800540865384,13.843258197490993L26.001640865384616,16.951271644005406L26.20493143028846,34.32562255859375L26.415775961538465,18.153234628530644L26.61240126201923,35.70392080453726L26.781698978365384,25.12673011192908L26.970548137019232,18.957398634690495L27.19316796875,34.466022198016816L27.385349759615387,29.407143226036656L27.57219933894231,27.21183189978967L27.741497055288463,21.974841778094945L27.941677163461538,28.013070913461544L28.117195793269232,25.90070401705228L28.286493509615386,21.54465895432693L28.479564002403848,30.61203120304987L28.70995997596154,38.135634202223564L28.911695312499997,32.83596567007211L29.100988822115387,39.38199439415564L29.314943810096153,25.04127854567307L29.50157121394231,38.777043269230774L29.748185997596156,32.57428330641525L29.96836189903846,57.10483727088342L30.18875997596154,57.30540818434494L30.392494891826924,45.88655090332031L30.568013521634615,43.406052809495186L30.796854266826923,50.46688021146335L31.041025120192305,45.02002187875601L31.25409140625,49.40458561823919L31.45382716346154,40.98353224534256L31.689110997596156,55.04689612755408L31.884181069711538,44.53865168644831L32.09991346153846,55.0248542198768L32.336530348557694,50.97008338341345L32.52582385817308,65.7691873403696L32.75844158653846,50.53822913536658L32.94106983173077,72.51160841721756L33.13302944711538,68.8789766751803L33.34765096153846,63.20146179199219L33.580268689903846,55.00291677621695L33.81155336538461,65.35603215144232L34.12415426682692,64.16963430551382L34.34144188701923,68.31622901329627L34.56783870192307,71.36198190542368L34.82400703125,65.58909137432391L35.05373647836538,70.25340975247897L35.288798137019235,69.27782029371994L35.536968149038465,70.52198674128607L35.783582932692305,78.27823110727164L36.064857091346155,87.56184387207031L36.339021634615385,78.57480445274939L36.60074435096154,79.12982177734375L36.88601766826923,100.89855604905347L37.22305787259615,82.31451181265024L37.523883473557696,84.22056227463943L37.81315594951923,81.37047048715445L38.079100000000004,89.77021320049579L38.39192307692308,79.0539809006911L38.630983894230766,82.2072272667518L38.92536640625,89.5480182354267L39.24085558894231,85.99645057091345L39.61610997596154,92.97537818321814L39.945151862980765,90.43241060697116L40.33284807692308,94.69684072641226L40.7132125,90.42562044583835L41.06824891826923,111.2365241417518L41.3941803485577,117.36260751577524L41.88229987980769,109.4908259465144L42.36286544471154,114.2819636418269L42.74278551682692,118.37622187687799L43.21090925480769,122.79473642202524L43.5495046875,142.6427952693059L43.94342181490385,120.11492098294772L44.39777067307693,122.35421166053186L44.64460763221154,130.38028658353366L44.865894411057695,131.30782259427585L45.278696454326926,121.09918095515326L45.65239561298077,115.45634812575122L46.03875877403846,131.71293405386118L46.37690985576923,133.13949467585638L46.726614062500005,120.06321129432092L47.072096935096155,117.16757319523737L47.518891826923074,122.86807016225961L48.01634272836539,127.20081974909857L48.494020012019234,121.24731093186597L48.86660829326923,134.85176438551684L49.30407181490384,121.62818673940805L49.72065084134615,128.44185227614184L50.02503125,147.53787466195914L50.486934074519226,138.22950392503003L50.92062061298077,147.7269545335036L51.455841346153846,154.0809783935547L51.92107680288461,136.30485886793872L52.598489843749995,128.36256408691406L53.07661147836538,133.71926997258112L53.56117620192308,124.55328369140625L54.113948798076926,124.72930556077222L54.800693209134614,129.04241591233472L55.674509375,122.3649714543269L56.53632806490385,136.5760474571815L57.1786373798077,128.5289752666767L57.796285216346156,133.79354388897235L58.33328335336538,131.61317091721753L59.18954765625,128.25768221341647L60.009375180288465,130.45664978027344L60.6827890625,127.46386014498196L61.39286189903846,129.6165501521184L62.100268629807694,128.4094684307392L62.815229326923074,138.19889596792368L63.4635373798077,131.00069838303784L64.14917091346153,125.34804593599759L64.86679771634616,133.55442575307993L65.48866688701924,136.19757432204028L66.06032439903846,136.94616347092847L66.72285168269231,146.56416555551382L67.46713954326923,133.61480595515326L68.05190540865384,132.7997776911809L68.54957848557693,135.07343703049878L69.11968076923077,131.62779587965747L69.77287668269231,132.76175278883716L70.34897770432693,135.73344069260816L70.9801782451923,122.2563288762019L71.59071646634615,137.38428556002103L72.28234873798077,124.29107900766226L72.98553413461538,130.84159968449518L73.45943443509614,133.49279198279748L73.99754344951924,124.45216252253607L74.40901243990385,121.36817580003003L74.83869981971154,138.37084374060998L75.26749849759616,156.24171213003305L75.68652145432692,145.72417039137622L76.26084507211539,130.95431635929987L76.72141484375,133.4905982384315L77.20531304086538,121.42824261005109L77.66210582932692,145.34402583195612L78.15200276442307,134.05428607647235L78.61279471153846,132.90800241323618L79.13801754807693,135.77836022010217L79.55592962740384,126.96943195049579L79.98628353365385,144.9551062950721L80.43685540865384,133.57260249211237L80.84832439903846,132.74148676945612L81.31178245192308,138.10456496018628L81.7023669471154,133.02740478515625L82.1289438701923,139.1752166748047L82.62528389423078,126.7993645301232L83.00742572115385,137.20565209021936L83.54309080528847,138.28194486177884L83.96789032451923,135.40020047701321L84.45734290865384,127.24960444523737L84.8352634014423,134.41886549729566L85.24562151442306,138.73479637732873L85.65420222355769,129.34755530724158L86.11610504807693,135.2449669471154L86.51735396634615,133.68197631835938L86.88127740384616,134.8573009784405L87.28052674278845,129.19148606520434L87.70932542067308,134.3514862060547L88.08080282451922,127.96507850060095L88.52426508413461,145.43062650240384L88.90618473557693,131.4362088716947L89.31032193509616,134.78950383112982L89.76111598557692,130.5662325345553L90.12837205528847,140.7622340275691L90.56827950721154,137.56835115872897L90.97841544471153,139.31603417029748L91.38899573317308,148.99640127328726L91.77846935096154,144.06622197077826L92.17216430288462,135.22094022310696L92.56719230769231,136.51514493502103L92.93822536057692,138.48888808030347L93.31636802884616,142.45507342998798L93.69850985576923,143.29684448242188L94.1326407451923,131.75712233323316L94.54655366586537,138.54613436185397L94.93802686298078,160.23380455603967L95.32683395432691,145.12203979492188L95.69720048076923,139.21898709810696L96.10755859375,141.7737591083233L96.54102295673077,149.882569533128L96.91649951923077,141.04668954702524L97.29375348557691,143.55215454101562L97.69877938701923,142.02071204552283L98.08003251201923,136.65752939077524L98.45084338942308,149.75272075946515L98.85164795673077,142.22337223933295L99.30621899038462,144.6564436692458L99.78678455528846,146.6191136286809L100.19692049278846,147.7820070706881L100.59461460336539,141.72643690842847L101.12583617788461,141.25018545297476L101.50797800480768,165.17965346116287L101.88923112980768,143.82543241060696L102.28292608173078,141.50528658353366L102.65862481971153,140.41395099346454L103.04121099759615,152.35303908128003L103.47289795673076,148.4237295297476L103.89014350961538,149.99330139160156L104.28072800480768,138.94873868502103L104.67553383413461,155.99883328951321L105.07056183894231,176.21074030949518L105.4475936298077,143.49720646784857L105.86950486778846,141.16222675030048L106.24675883413462,145.09937110314002L106.65667259615385,149.80495276817908L107.08369387019232,138.91854858398438L107.51471430288461,148.26107905461237L107.92240631009616,156.3062708928035L108.30810294471155,147.95301466721753L108.69224435096154,144.20683053823618L109.10771249999999,149.5202883206881L109.47830120192307,140.47777850811298L109.86777481971153,151.42571199857272L110.23147608173078,150.37438612717847L110.61295138221155,151.48306274414062L111.11240186298078,152.58463580791766L111.48299056490386,152.33329538198618L111.89512608173077,145.3132089468149L112.26615913461538,147.65393418532153L112.63719218749999,148.14815345177283L113.03310889423076,148.14930255596454L113.47523810096153,151.24592942457934L113.92603215144231,150.64390329214243L114.40415378605769,149.70518963153546L114.82562067307693,157.92337388258713L115.19665372596154,147.7591294508714L115.56102151442309,155.92152991661658L115.93649807692307,146.25975740872897L116.30064368990385,152.37403634878305L116.69122818509615,159.35891841008112L117.08225703125001,143.34542025052585L117.54060504807691,148.83385526216946L117.94829705528845,143.37456571138821L118.36198780048078,174.6253943810096L118.74101917067307,155.7758026123047L119.10538695913462,142.87867502065805L119.46975474759614,147.9977252666767L119.90077518028846,148.4754392183744L120.26492079326924,157.60695237379807L120.66550318509616,162.354006253756L121.0298709735577,150.816895705003L121.40090402644232,151.1622537466196L121.8125951923077,151.92034912109375L122.19718094951924,145.53425480769232L122.60909429086539,148.98961111215445L123.00367794471154,147.5752727801983L123.4329209735577,151.1874295748197L123.81128581730769,147.7418928879958L124.1938719951923,150.59271592360278L124.57934645432691,149.88340524526743L125.00570120192307,149.84632051908054L125.41028275240384,149.6166041447566L125.99082728365386,153.91414935772235L126.35497289663462,156.8716301551232L126.71934068509616,170.25461989182693L127.09792770432692,157.52212759164664L127.46229549278846,153.37260789137622L127.84043816105769,156.24442819448618L128.22569044471155,159.57672588641827L128.6109427283654,151.50834303635816L129.16260444711537,148.81463388296274L129.52652788461538,149.06085557204028L129.94355126201924,154.16392282339243L130.38257001201924,147.24339059682993L130.77093275240384,147.64139850323016L131.15218587740384,153.1876021165114L131.5165536658654,161.34269010103665L131.92402349759615,178.4510756272536L132.28772475961537,160.61165090707632L132.7049703125,148.65887803297778L133.09533263221152,162.22259051983173L133.50235811298077,147.08679903470554L133.90982794471154,148.26557100736179L134.27375138221154,148.39625549316406L134.65811496394232,153.9978250356821L135.02248275240385,149.8892552302434L135.4061798076923,144.68485788198618L135.79631995192307,148.1150383582482L136.19445841346155,153.45785052959735L136.57415631009616,151.0951878474309L136.98029308894232,151.4103557880108L137.35065961538461,151.83228595440204L137.73613407451924,147.98633868877704L138.10361231971154,155.42939993051382L138.4713127403846,146.65013944185696L138.87722734375,140.1972926213191L139.27025576923077,149.4378662109375L139.68283563701922,161.55182706392728L140.06697704326922,143.36714876615085L140.4780016826923,155.2602726862981L140.84192512019231,143.00633004995493L141.25694891826922,151.17081979604868L141.64620036057693,149.37163602388821L142.01056814903848,143.06148705115686L142.37471376201924,154.76365074744592L142.80417896634614,143.56751075157752L143.2183140625,151.9901310847356L143.58623665865383,144.4961958665114L143.99281778846154,154.92797264685998L144.39073407451923,151.85850642277643L144.83197457932692,154.27141629732571L145.21411640625,173.6014380821815L145.6033678485577,172.50759535569412L145.9744009014423,156.5632523756761L146.35654272836538,156.29289949857272L146.7209105168269,156.09974553034857L147.11838245192308,140.63311650202826L147.4949698918269,138.0334249643179L147.8697799278846,145.13499333308295L148.23703599759617,156.03017249474158L148.6136234375,152.88768592247595L148.97732469951922,145.63286884014423L149.35413431490386,153.37615966796875L149.7444966346154,153.0650658240685L150.17773882211537,148.05862778883716L150.60187181490386,147.42808297964243L150.9769040264423,138.7774176964393L151.37659771634617,155.3087439903846L151.78451189903845,143.5880901630108L152.20686748798076,162.36716871995193L152.57012439903846,152.09971383901743L153.05068996394232,169.371585552509L153.4594928485577,151.48285381610577L153.86051959134616,110.23095350999097L154.22377650240387,109.53334280160757L154.61947103365384,99.02394925631009L155.05871195913463,86.52670992337741L155.4335219951923,89.50988886906549L155.80855420673075,89.33867234450122L156.17181111778845,91.6999769944411L156.53484585336537,90.77860436072717L156.9160989783654,85.37144235464243L157.2973521033654,80.85494056114783L157.77125240384615,84.3153111384465L158.16183689903846,88.54840205265924L158.52531598557695,87.04109074519232L158.9861079326923,91.65641549917368L159.37580372596153,96.83709951547476L159.74594807692307,87.19642873910757L160.14208695913462,85.29173630934494L160.50645474759614,78.1653055044321L160.8699338341346,80.48586918757513L161.31539567307692,82.11435875525842L161.70642451923078,90.31478412334735L162.09500943509616,84.043704693134L162.5840176682692,80.37712214543268L162.95438419471154,87.59600360576923L163.32186243990384,85.84508220966046L163.69956075721154,81.14858891413763L164.09725486778845,92.2543675349309L164.48561760817307,83.0468045748197L164.87797950721153,88.73487032376804L165.26145438701923,102.68541306715747L165.64226316105768,95.97767404409555L166.02307193509614,89.85514244666467L166.38632884615384,83.10739370492789L166.7829120793269,90.44254361666165L167.18260576923078,85.71753164438101L167.62251322115384,81.19319504957932L167.9866588341346,81.28063143216647L168.3765768028846,94.29204265887921L168.7616069110577,89.2982447697566L169.0873161658654,82.68755281888522L169.45146177884615,86.47959665151743L169.85559897836538,83.3501680814303L170.22596550480768,92.8755105825571L170.6361014423077,85.9062981238732L171.02446418269233,85.86012502817007L171.4608168269231,86.47009042593149L171.85206784855768,88.55769935021033L172.2348762019231,96.48860755333533L172.59902181490386,84.56612924429086L172.98360757211537,84.70527531550482L173.39774266826922,78.73275404710037L173.79477025240382,87.500732421875L174.17335727163461,82.96041283240686L174.53683635817308,85.74699049729568L174.95052710336537,79.72432650052585L175.34933209134616,87.6423856295072L175.77213203125,95.50476543719952L176.16027259615385,86.47311988243689L176.55530060096152,85.88331604003906L177.11407193509615,93.34361384465143L177.4775510216346,82.86535057654748L177.85458281249998,88.4780977689303L178.28160408653847,83.88053189791165L178.64508317307693,116.87026860163763L179.05033125,97.36224013108472L179.4144768629808,90.02635897122897L179.87482445913463,85.86879554161658L180.24208052884615,94.64387746957632L180.61733491586537,85.14820274939905L180.99436670673077,80.16704500638522L181.38583990384618,81.78174532376804L181.78353401442308,72.88548513559195L182.23499459134615,75.19602027306189L182.65423972355768,75.86636587289664L183.0294941105769,74.14772385817307L183.39741670673078,73.11708186222955L183.83710198317306,76.04750647911658L184.22502037259616,87.71185420109674L184.6369337139423,76.87789095365085L185.0448478966346,79.23741971529446L185.44498593749998,94.46440828763522L185.85489969951922,84.44704026442307L186.24992770432692,77.88377497746393L186.6500657451923,76.0654742901142L187.05753557692307,79.65652935321515L187.4892225360577,82.93440129206732L187.86714302884616,87.8701171875L188.27505721153844,77.34296475923978L188.63831412259614,81.28272071251502L189.04867223557693,76.86671330378607L189.43370234374999,86.31297654371994L189.79740360576923,76.45648310734674L190.23420060096154,77.12912691556491L190.6692201923077,83.73929654634915L191.03247710336538,93.41444044846753L191.46882974759617,85.39160391000601L191.83230883413464,74.18345055213342L192.19556574519228,105.38674809382513L192.7401178485577,91.18643188476562L193.1384784855769,80.33763474684494L193.57127632211538,91.1560328556941L193.93453323317306,105.37483919583835L194.31800811298078,152.2722883958083L194.68193155048078,180.1028606708233L195.1229498798077,156.2807816725511L195.53130841346152,122.99436715932993L195.9310021033654,115.33809485802283L196.37157608173075,124.04652874286359L196.73483299278845,110.65988276554987L197.09808990384616,110.87821256197415L197.5173350360577,108.79070810171274L197.94146802884615,121.83053354116586L198.3513817908654,124.6617173414964L198.78306874999998,128.8639913705679L199.18342896634616,111.52609839806189L199.62022596153847,115.60103078988882L200.03080624999998,104.05754793607272L200.41250372596153,108.9763406606821L200.80775390625,102.2986872746394L201.24121826923079,108.90958815354566L201.67668221153846,95.0247532771184L202.09348341346154,86.93861154409555L202.45718467548076,85.72265038123498L202.84599176682693,84.37005028357873L203.20969302884615,93.03419142503003L203.59872229567307,84.33014502892127L203.9695331730769,86.5855231651893L204.49297860576922,85.3035407433143L204.8773421875,93.42029043344351L205.241265625,97.65035189115085L205.65184591346156,75.09385446401743L206.03598731971152,79.48531282865085L206.39924423076923,81.57918959397537L206.83470817307693,82.13932565542368L207.21929393028847,80.16526911808893L207.61565498798078,78.74612544133112L208.02401352163463,75.55725684532752L208.4363712139423,83.24110764723557L208.82384525240386,76.14079284667969L209.18776868990386,77.24361947866586L209.55546911057692,74.93245755709134L209.99582091346153,86.69353895920975L210.36596526442307,78.92350534292368L210.7609932692308,72.69556955190805L211.14446814903846,73.83276484562799L211.50794723557692,87.807125384991L211.87120414663462,98.35788668118991L212.25690078125,75.24376032902643L212.62015769230769,81.98377873347357L212.98719158653847,83.34316899226263L213.3682225360577,117.36010037935696L213.73525643028847,152.83179767315204L214.1731643028846,165.40540020282452L214.5755240985577,141.01994675856372L214.93878100961538,109.52811960073618L215.38068804086538,117.48263667179987L215.76527379807692,116.6052433894231L216.36381454326923,110.14623319185696L216.68485811298075,114.8378166785607L217.10165931490386,111.42132098858173L217.50535216346154,108.10751342773438L217.89504795673076,110.2096428504357L218.2791893629808,122.40007136418268L218.65533245192307,124.3039280818059L219.01858936298078,98.22720219538763L219.3947324519231,95.99846238356372L219.78531694711538,99.40419827974759L220.16101568509615,102.55086341271033L220.53738094951925,102.65135779747595L220.90108221153847,93.93080608661359L221.26456129807693,83.09339552659256L221.6418152644231,90.48004619891827L222.0519512019231,97.36088209885816L222.4936360576923,94.28462571364184L222.85711514423076,89.37366779033954L223.264140625,87.3003704364483L223.64872638221155,93.14899738018329L224.03264561298076,78.98973552997296L224.42367445913462,79.86326364370493L224.8258120793269,74.07303208571213L225.21995138221155,91.97492628831128L225.62519945913462,80.11805138221155L226.00645258413462,72.96069922814002L226.4216985576923,74.72927504319412L226.80095210336538,80.089114849384L227.1979796875,81.36900799091046L227.57456712740384,75.49342933067908L227.93782403846154,73.92542442908655L228.32218762019232,76.76433856670673L228.74276580528846,80.32144282414362L229.1382381610577,81.42667212853064L229.50149507211538,75.0072537935697L229.89630090144232,73.11467918982873L230.31621256009615,70.3651862511268L230.71079621394233,83.14813467172476L231.10826814903845,82.97190387432391L231.47152506009616,73.45136671799881L231.84633509615384,116.14184100811298L232.2371417668269,110.74126023512622L232.6899353966346,101.84092595027045L233.05341448317307,94.8933375431941L233.42089272836537,96.48912987342248L233.78437181490384,88.8448709341196L234.1545161658654,107.0446965144231L234.6346373798077,79.81907536433295L235.01611268028847,71.88419752854568L235.3971436298077,77.3448451115535L235.83638455528848,92.47415982759915L236.28429032451922,77.49652686485877L236.68687229567308,73.17976027268631L237.08212247596154,71.28185800405649L237.4815939903846,73.07937035193811L237.84529525240384,80.78077110877405L238.20855216346152,74.08692580003006L238.6477930889423,96.73775423490085L239.03082361778846,78.05290222167969L239.39408052884616,84.74518057016226L239.7777775841346,78.06031916691705L240.16702902644232,74.93109952486478L240.55072608173077,70.57056250939002L240.9346453125,81.10283367450421L241.29790222355768,76.57598994328424L241.70848251201923,71.96202322152945L242.13328203125002,72.83231295072116L242.55497109375,77.46100909893329L242.93933467548078,79.57076439490686L243.3519145432692,70.70772376427283L243.73961075721152,75.86114267202524L244.10286766826923,74.82851585975061L244.50767139423075,82.39181518554688L244.8922571514423,75.19863187349759L245.32772109375,82.62174048790564L245.70875204326924,71.36793635441705L246.08356207932692,74.05798926720252L246.4505959735577,82.66718233548679L246.83073822115384,71.05036574143631L247.20532608173076,70.33572739821213L247.58235787259616,71.5194091796875L247.9713871394231,73.32496525691107L248.35930552884616,76.38837256798377L248.74855697115385,78.35480323204627L249.1309209735577,70.84404930701623L249.4935113581731,71.68686499962439L249.8918719951923,79.72892291729266L250.26623768028844,75.71374394343451L250.64460252403845,71.24842951847955L251.07317902644232,79.5976116473858L251.4477668870192,79.9035867544321L251.86190198317308,86.56828660231369L252.29158936298077,80.56923147348257L252.67439771634614,75.86918640136719L253.03676592548078,74.58062274639423L253.3998006610577,82.12125338040866L253.81482445913463,75.05530724158655L254.20940811298078,71.27987318772537L254.59732650240383,67.599605853741L255.07100462740385,72.48350759652945L255.4627,73.70928837702826L255.85439537259617,69.6755148080679L256.25431123798074,65.95858060396634L256.6169016225962,77.7941448505108L256.9797141826923,78.26193472055289L257.34985853365384,80.22606717623196L257.75910576923076,72.99266521747296L258.16657560096155,67.93577106182391L258.57226802884617,83.10478210449219L259.0541666466346,73.96240469125601L259.4174235576923,72.01477755033054L259.8306699519231,71.98887047400842L260.1937046875,79.74459251990686L260.6229477163461,72.22725736177884L260.98909290865384,72.31239553598257L261.37767782451925,68.73481633112982L261.7527100360577,70.9379624586839L262.1279644230769,73.42159447303186L262.5052183894231,74.59075575608475L262.86869747596154,71.25521967961237L263.2321765625,72.36556772085336L263.6112079326923,73.83213806152344L263.99490498798076,75.62839684119592L264.35816189903846,71.93716078538162L264.72208533653844,68.42027517465445L265.1037828125,71.7536175067608L265.5034765024038,86.42067894568811L265.8662890625,71.91511887770432L266.2333229567308,66.70706528883713L266.6030229567308,72.65764911358173L267.00649362980766,68.78548137958234L267.39374549278847,74.53956838754507L267.76855552884615,72.95631173940805L268.1875784855769,67.95624600923978L268.5575006610577,70.0905503493089L268.93186634615387,74.79393826998196L269.36977421874997,75.42051344651443L269.75547085336535,71.29940795898438L270.11872776442306,72.24626981295071L270.5137557692308,70.22489107572116L270.91878167067307,86.29856050931491L271.28226075721153,76.76569659893329L271.67262307692306,72.04590782752405L272.11519663461536,82.26416015625L272.4782313701923,80.28049292931189L272.86148407451924,75.4383767934946L273.2365162860577,72.42124704214243L273.6106597956731,72.17920391376202L273.9879137620192,69.49541884202225L274.38916268028845,73.90411376953125L274.75241959134615,82.74908212515024L275.11567650240386,74.20423889160156L275.49470787259617,70.02651390662561L275.85796478365387,76.51268474872296" style="fill: none;" fill="none"></path></g></g></g></g></g><g><g><span fill="rgb(0, 0, 0)" stroke="none" stroke-width="1px">Alt + Scroll to Zoom</span></g></g></g><g transform="translate(41, 178)" clip-path="url(#clip_1)"><clipPath id="clip_1"><rect width="288" height="22"></rect></clipPath><g><g><line x1="0" y1="0" x2="0" y2="5" style="visibility: inherit;" fill="rgb(0, 0, 0)" stroke="rgb(204, 204, 204)" stroke-width="1px"></line><line x1="22.217548076923077" y1="0" x2="22.217548076923077" y2="5" style="visibility: inherit;" fill="rgb(0, 0, 0)" stroke="rgb(204, 204, 204)" stroke-width="1px"></line><line x1="44.43509615384615" y1="0" x2="44.43509615384615" y2="5" style="visibility: inherit;" fill="rgb(0, 0, 0)" stroke="rgb(204, 204, 204)" stroke-width="1px"></line><line x1="66.65264423076924" y1="0" x2="66.65264423076924" y2="5" style="visibility: inherit;" fill="rgb(0, 0, 0)" stroke="rgb(204, 204, 204)" stroke-width="1px"></line><line x1="88.8701923076923" y1="0" x2="88.8701923076923" y2="5" style="visibility: inherit;" fill="rgb(0, 0, 0)" stroke="rgb(204, 204, 204)" stroke-width="1px"></line><line x1="111.08774038461539" y1="0" x2="111.08774038461539" y2="5" style="visibility: inherit;" fill="rgb(0, 0, 0)" stroke="rgb(204, 204, 204)" stroke-width="1px"></line><line x1="133.30528846153848" y1="0" x2="133.30528846153848" y2="5" style="visibility: inherit;" fill="rgb(0, 0, 0)" stroke="rgb(204, 204, 204)" stroke-width="1px"></line><line x1="155.52283653846152" y1="0" x2="155.52283653846152" y2="5" style="visibility: inherit;" fill="rgb(0, 0, 0)" stroke="rgb(204, 204, 204)" stroke-width="1px"></line><line x1="177.7403846153846" y1="0" x2="177.7403846153846" y2="5" style="visibility: inherit;" fill="rgb(0, 0, 0)" stroke="rgb(204, 204, 204)" stroke-width="1px"></line><line x1="199.95793269230768" y1="0" x2="199.95793269230768" y2="5" style="visibility: inherit;" fill="rgb(0, 0, 0)" stroke="rgb(204, 204, 204)" stroke-width="1px"></line><line x1="222.17548076923077" y1="0" x2="222.17548076923077" y2="5" style="visibility: inherit;" fill="rgb(0, 0, 0)" stroke="rgb(204, 204, 204)" stroke-width="1px"></line><line x1="244.39302884615384" y1="0" x2="244.39302884615384" y2="5" style="visibility: inherit;" fill="rgb(0, 0, 0)" stroke="rgb(204, 204, 204)" stroke-width="1px"></line><line x1="266.61057692307696" y1="0" x2="266.61057692307696" y2="5" style="visibility: inherit;" fill="rgb(0, 0, 0)" stroke="rgb(204, 204, 204)" stroke-width="1px"></line><line x1="288.828125" y1="0" x2="288.828125" y2="5" style="visibility: inherit;" fill="rgb(0, 0, 0)" stroke="rgb(204, 204, 204)" stroke-width="1px"></line></g><g transform="translate(0, 8)"><text x="0" y="0" dx="0em" dy="0.95em" style="text-anchor: middle; visibility: hidden; font-family: Roboto, sans-serif; font-size: 12px; font-weight: 200;" fill="rgb(50, 49, 63)" stroke="none" stroke-width="1px">-100k</text><text x="22.217548076923077" y="0" dx="0em" dy="0.95em" style="text-anchor: middle; visibility: inherit; font-family: Roboto, sans-serif; font-size: 12px; font-weight: 200;" fill="rgb(50, 49, 63)" stroke="none" stroke-width="1px">0</text><text x="44.43509615384615" y="0" dx="0em" dy="0.95em" style="text-anchor: middle; visibility: hidden; font-family: Roboto, sans-serif; font-size: 12px; font-weight: 200;" fill="rgb(50, 49, 63)" stroke="none" stroke-width="1px">100k</text><text x="66.65264423076924" y="0" dx="0em" dy="0.95em" style="text-anchor: middle; visibility: inherit; font-family: Roboto, sans-serif; font-size: 12px; font-weight: 200;" fill="rgb(50, 49, 63)" stroke="none" stroke-width="1px">200k</text><text x="88.8701923076923" y="0" dx="0em" dy="0.95em" style="text-anchor: middle; visibility: hidden; font-family: Roboto, sans-serif; font-size: 12px; font-weight: 200;" fill="rgb(50, 49, 63)" stroke="none" stroke-width="1px">300k</text><text x="111.08774038461539" y="0" dx="0em" dy="0.95em" style="text-anchor: middle; visibility: inherit; font-family: Roboto, sans-serif; font-size: 12px; font-weight: 200;" fill="rgb(50, 49, 63)" stroke="none" stroke-width="1px">400k</text><text x="133.30528846153848" y="0" dx="0em" dy="0.95em" style="text-anchor: middle; visibility: hidden; font-family: Roboto, sans-serif; font-size: 12px; font-weight: 200;" fill="rgb(50, 49, 63)" stroke="none" stroke-width="1px">500k</text><text x="155.52283653846152" y="0" dx="0em" dy="0.95em" style="text-anchor: middle; visibility: inherit; font-family: Roboto, sans-serif; font-size: 12px; font-weight: 200;" fill="rgb(50, 49, 63)" stroke="none" stroke-width="1px">600k</text><text x="177.7403846153846" y="0" dx="0em" dy="0.95em" style="text-anchor: middle; visibility: hidden; font-family: Roboto, sans-serif; font-size: 12px; font-weight: 200;" fill="rgb(50, 49, 63)" stroke="none" stroke-width="1px">700k</text><text x="199.95793269230768" y="0" dx="0em" dy="0.95em" style="text-anchor: middle; visibility: inherit; font-family: Roboto, sans-serif; font-size: 12px; font-weight: 200;" fill="rgb(50, 49, 63)" stroke="none" stroke-width="1px">800k</text><text x="222.17548076923077" y="0" dx="0em" dy="0.95em" style="text-anchor: middle; visibility: hidden; font-family: Roboto, sans-serif; font-size: 12px; font-weight: 200;" fill="rgb(50, 49, 63)" stroke="none" stroke-width="1px">900k</text><text x="244.39302884615384" y="0" dx="0em" dy="0.95em" style="text-anchor: middle; visibility: inherit; font-family: Roboto, sans-serif; font-size: 12px; font-weight: 200;" fill="rgb(50, 49, 63)" stroke="none" stroke-width="1px">1M</text><text x="266.61057692307696" y="0" dx="0em" dy="0.95em" style="text-anchor: middle; visibility: hidden; font-family: Roboto, sans-serif; font-size: 12px; font-weight: 200;" fill="rgb(50, 49, 63)" stroke="none" stroke-width="1px">1.1M</text><text x="288.828125" y="0" dx="0em" dy="0.95em" style="text-anchor: middle; visibility: hidden; font-family: Roboto, sans-serif; font-size: 12px; font-weight: 200;" fill="rgb(50, 49, 63)" stroke="none" stroke-width="1px">1.2M</text></g><line x1="0" y1="0" x2="288.828125" y2="0" fill="rgb(0, 0, 0)" stroke="rgb(204, 204, 204)" stroke-width="1px"></line></g></g></g></g></svg>